<svg width="266" height="170" viewBox="0 0 266 170" fill="none" xmlns="http://www.w3.org/2000/svg">
<g clip-path="url(#clip0_1_235)">
<rect width="265.625" height="170" rx="11.3333" fill="#00C6AE" style="fill:#00C6AE;fill:color(display-p3 0.0000 0.7765 0.6824);fill-opacity:1;"/>
<g clip-path="url(#clip1_1_235)">
<path fill-rule="evenodd" clip-rule="evenodd" d="M89.673 163.078C89.4007 160.557 89.2329 158.018 89.1366 155.484C89.0404 152.953 89.1663 150.391 89.2215 147.86C89.3341 142.709 89.517 137.546 89.1057 132.404C88.717 127.543 87.8246 122.717 86.4164 118.047C85.7306 115.773 85.0079 113.407 83.8801 111.305C82.7459 109.193 80.9495 107.786 78.9761 106.495C76.8752 105.121 74.7911 103.722 72.6983 102.335C70.9416 101.171 67.7803 99.8168 66.3389 98.2608C64.8223 96.6237 64.5372 92.5655 63.5272 90.6261C62.5436 88.737 59.7592 87.5047 57.6153 87.5047C54.0667 87.5047 51.378 87.3239 48.4601 90.5966C47.0043 92.2295 48.1626 93.8803 46.6366 95.4475C45.2337 96.8884 41.6458 98.3692 39.8376 99.2053C37.6719 100.207 35.4515 101.091 33.1989 101.878C30.9011 102.682 28.5454 103.281 26.2347 104.039C24.0198 104.766 21.1277 107.761 19.4082 109.346C17.8097 110.82 17.4129 110.655 16.1977 112.445C13.5305 116.374 10.8604 120.348 8.73644 124.602C7.6785 126.721 6.65412 128.949 6.27028 131.303C5.86084 133.812 6.2668 136.238 6.93078 138.668C7.60667 141.141 9.75295 143.496 10.4522 145.962C10.7744 147.099 9.66833 148.34 10.1771 149.411C10.4312 149.946 10.7512 150.422 11.1155 150.889C11.3962 151.248 12.4909 151.168 12.6325 151.608C12.7756 152.052 11.9836 152.973 11.9719 153.433C11.9551 154.09 11.9289 154.748 11.9072 155.406L11.7793 159.294C11.6952 161.848 11.6111 164.403 11.5271 166.958C11.4996 167.792 11.4595 168.607 11.6601 169.398C11.5877 169.331 11.5189 169.259 11.456 169.177C11.2721 168.937 10.8819 169.14 11.0381 169.42C11.2987 169.888 11.6734 170.217 12.1137 170.453C12.6254 171.205 90.1158 172.885 90.497 170.686C90.711 169.453 90.3216 168.132 90.1659 166.906C90.0039 165.629 89.8113 164.358 89.673 163.078Z" fill="white" style="fill:white;fill-opacity:1;"/>
<path fill-rule="evenodd" clip-rule="evenodd" d="M10.9575 131.307C11.147 130.766 12.0142 131 11.8233 131.545C10.8419 134.347 11.5381 137.397 12.599 140.073C12.8119 140.609 11.9432 140.84 11.7332 140.311C10.6172 137.496 9.9267 134.25 10.9575 131.307ZM17.5379 147.315C20.3056 147.703 23.0756 147.943 25.8624 148.137C25.987 148.145 26.0947 148.127 26.1879 148.086C26.1048 149.358 26.0375 150.632 25.9847 151.905C25.2249 151.884 24.4493 151.934 23.6962 151.914C22.7119 151.887 21.7287 151.838 20.7467 151.763C18.8454 151.62 16.9475 151.392 15.0675 151.076C14.3649 150.959 13.4727 150.887 12.6724 150.654C11.916 150.434 11.2425 150.069 10.889 149.382C10.5882 148.8 10.5332 148.087 10.5332 147.444C10.5332 147.001 10.6095 146.551 10.6555 146.104C10.7128 146.064 10.7644 146.016 10.8059 145.962C11.641 146.225 12.5074 146.41 13.3559 146.589C14.7376 146.882 16.1394 147.119 17.5379 147.315ZM15.9768 136.969C15.992 137.824 16.2294 138.601 16.6913 139.321C17.0037 139.808 16.2263 140.257 15.9159 139.773C15.3723 138.925 15.0968 137.973 15.0789 136.969C15.0686 136.392 15.9665 136.394 15.9768 136.969ZM86.9242 146.299C87.299 146.32 87.6761 146.333 88.052 146.353C88.3835 146.635 88.8426 146.78 89.2617 146.69C89.2762 146.727 89.2894 146.767 89.3014 146.814C89.3754 147.101 89.4125 147.41 89.4551 147.703C89.4978 147.992 89.5303 148.283 89.5528 148.574C89.564 148.721 89.6347 149.052 89.5449 149.18C89.4641 149.295 89.2857 149.285 89.1622 149.299C88.83 149.335 88.4933 149.352 88.1588 149.38C87.5269 149.435 86.895 149.489 86.2643 149.544C85.6459 149.598 84.9668 149.581 84.3619 149.743C84.2586 148.534 84.1644 147.324 84.0768 146.113C85.014 146.251 85.9938 146.248 86.9242 146.299ZM8.34567 144.293C8.72278 145.019 9.07071 145.733 9.79239 146.169C9.88667 146.225 9.99217 146.256 10.0999 146.263C10.0191 146.609 9.9686 146.963 9.9237 147.289C9.82494 148.009 9.80361 148.753 9.98431 149.463C10.1605 150.153 10.4523 150.77 11.0247 151.212C11.2907 151.417 11.5814 151.574 11.8867 151.698C11.8351 151.843 11.8048 151.986 11.8205 152.144C11.7475 152.51 11.6993 152.882 11.6465 153.239C11.5309 154.031 11.4153 154.825 11.3244 155.621C11.1426 157.206 11 158.79 10.88 160.38C10.7599 161.966 10.6734 163.554 10.6016 165.143C10.5646 165.955 10.532 166.768 10.5017 167.581C10.4714 168.417 10.3356 169.272 10.706 170.047C11.0045 170.674 12.0135 170.638 12.3233 170.047C12.7161 169.296 12.6005 168.405 12.6106 167.581C12.6207 166.806 12.6342 166.029 12.651 165.254C12.6847 163.666 12.7341 162.079 12.7734 160.491C12.8115 158.941 12.8587 157.393 12.8901 155.843C12.9058 155.032 12.9069 154.22 12.9114 153.409C12.9137 152.959 12.9327 152.479 12.8991 152.01C13.1797 152.076 13.4625 152.132 13.742 152.189C15.8756 152.626 18.0316 152.944 20.2011 153.141C21.291 153.239 22.3841 153.308 23.4773 153.348C24.2809 153.377 25.1137 153.433 25.9297 153.403C25.8657 155.345 25.8365 157.289 25.8399 159.232C25.8421 160.634 25.8612 162.036 25.896 163.439C25.9151 164.176 25.9308 164.913 25.9532 165.651C25.9633 165.982 25.9633 166.317 25.9858 166.647C25.9925 166.75 26.0071 166.849 26.0262 166.948C25.9521 167.157 25.8904 167.364 25.8399 167.558C25.593 168.497 25.593 169.401 25.703 170.358C25.7972 171.171 26.483 171.924 27.3887 171.639C27.5358 171.593 27.6828 171.544 27.8287 171.495C29.1621 171.646 30.5033 171.681 31.8557 171.707C33.8322 171.745 35.8098 171.757 37.7874 171.767C41.6663 171.787 45.5463 171.797 49.4263 171.808C57.2233 171.831 65.0203 171.852 72.8174 171.875C74.9813 171.881 77.1452 171.887 79.3091 171.894C80.4292 171.897 81.5471 171.898 82.6661 171.941C83.188 171.961 83.711 171.989 84.2329 171.997C84.8378 172.007 85.3732 171.833 85.9512 171.675C86.2778 171.585 86.4069 171.258 86.3373 170.982C86.8603 171.106 87.4944 170.842 87.6729 170.254C87.8031 169.828 87.7548 169.366 87.5607 168.971V168.97C87.1858 166.61 86.7099 164.261 86.3362 161.9C85.9265 159.314 85.5326 156.723 85.1857 154.127C84.9254 152.166 84.711 153.556 84.5258 151.586C85.3328 151.649 86.2452 151.404 87.0444 151.3C87.6179 151.226 88.1959 151.167 88.7706 151.088C88.7279 151.666 88.7403 152.254 88.7245 152.808C88.6942 153.908 88.7077 155.004 88.7358 156.104C88.7896 158.226 88.9097 156.991 89.1017 159.105C89.2958 161.234 89.5338 163.356 89.8222 165.475C89.9704 166.566 90.1286 167.656 90.2958 168.745C90.3733 169.253 90.453 169.76 90.5349 170.268C90.6326 170.866 90.664 171.434 91.114 171.883C91.4564 172.225 92.1556 172.196 92.3823 171.72C92.6696 171.119 92.5394 170.604 92.4328 169.973C92.3464 169.466 92.2633 168.96 92.1814 168.453C92.0063 167.366 91.8402 166.279 91.6842 165.19C91.3834 163.092 91.0995 160.99 90.8458 158.887C90.5899 156.766 90.325 158.005 90.0736 155.884C89.9468 154.815 89.82 153.747 89.6718 152.681C89.5966 152.132 89.5495 151.548 89.4507 150.983C89.4821 150.979 89.5136 150.973 89.545 150.968C90.2274 150.843 90.8099 150.46 90.9816 149.759C91.1455 149.089 90.9502 148.318 90.8121 147.66C90.6943 147.1 90.5878 146.384 90.2259 145.904C91.5009 144.285 92.3302 142.247 92.8592 140.289C93.4354 138.155 93.6766 135.927 93.7277 133.722C93.7869 131.167 93.5938 128.627 93.1546 126.129C93.1443 125.6 93.1198 125.07 93.0804 124.542C92.6943 119.354 91.0736 113.215 85.9355 110.791C85.9153 110.781 85.894 110.772 85.8726 110.763C85.4697 110.283 84.9669 109.851 84.5606 109.447C83.8412 108.731 83.0892 108.046 82.2923 107.415C80.7143 106.165 78.9836 105.167 77.1844 104.268C75.3651 103.358 73.5188 102.505 71.741 101.512C70.1921 100.646 68.7982 99.6032 67.4749 98.426C65.9878 97.1022 64.9294 95.3175 64.5141 93.3693C64.4928 93.2676 64.3413 93.2956 64.339 93.3928C64.2302 96.9635 66.6477 100.119 69.4301 102.115C72.7567 104.5 76.7737 105.629 80.1475 107.941C80.9859 108.515 81.7704 109.163 82.5168 109.851C81.3731 109.734 80.2092 109.808 79.1374 110.124C78.7153 110.098 78.2911 110.09 77.868 110.07C76.9005 110.022 75.9319 109.977 74.9633 109.935C72.9891 109.848 71.0137 109.768 69.0384 109.699C65.1629 109.562 61.2862 109.459 57.4096 109.391C49.6193 109.253 41.8189 109.226 34.0297 109.451C31.9175 109.512 20.8106 109.092 19.7825 109.211C21.2943 107.906 22.9532 106.841 24.777 105.965C27.0588 104.871 29.4168 104.142 31.8535 103.475C36.8715 102.102 42.0827 100.778 46.0985 97.2902C47.0962 96.423 47.9829 95.4261 48.7091 94.3217C49.4027 93.2676 50.1738 91.918 50.1928 90.6323C50.2063 89.7193 48.9313 89.3869 48.4779 90.1691C48.1962 90.6536 48.057 91.1851 47.8269 91.6931C47.5979 92.1967 47.3263 92.6823 47.0244 93.1468C46.4307 94.0599 45.6944 94.8744 44.8931 95.6095C43.1848 97.1783 41.1152 98.3275 38.9737 99.197C34.1117 101.17 28.7939 102.002 24.1866 104.603C22.1709 105.741 20.2416 107.311 19.0305 109.314C18.8352 109.344 18.6411 109.38 18.4469 109.42C18.5917 109.238 18.7376 109.055 18.8846 108.874C18.9811 108.755 18.8319 108.599 18.714 108.704C16.4233 110.736 14.3133 112.93 12.4008 115.323C10.5713 117.612 8.86532 120.011 7.65766 122.692C5.48702 127.508 5.00889 133.017 6.13013 138.167C6.43541 139.57 6.8664 140.944 7.41523 142.272C7.69807 142.958 8.00447 143.634 8.34567 144.293Z" fill="black" style="fill:black;fill-opacity:1;"/>
<path fill-rule="evenodd" clip-rule="evenodd" d="M57.7989 43.8503C64.1717 43.8503 72.1534 51.098 74.4895 54.1822C76.4535 56.7753 76.1756 70.1337 76.1756 78.058C76.1756 79.7153 75.4242 82.8519 75.1514 84.4372C74.1518 90.2463 69.7968 95.1183 61.1772 95.1183C54.1589 95.1183 48.7578 92.9019 43.5349 87.2333C42.3433 85.9401 36.524 90.5698 35.3339 88.9026C32.2254 88.9026 29.6261 59.9459 35.7293 51.2606C41.8326 42.5753 51.426 43.8503 57.7989 43.8503Z" fill="white" style="fill:white;fill-opacity:1;"/>
<path fill-rule="evenodd" clip-rule="evenodd" d="M38.6449 45.8899C42.3274 42.5498 47.2332 40.9429 52.1828 41.0615C54.7463 41.1231 57.3008 41.6098 59.7217 42.4435C60.9327 42.862 62.1056 43.408 63.2268 44.0257C63.6309 44.2478 64.0034 44.508 64.3619 44.7843L64.4513 44.8537H64.4524C65.4143 45.1984 66.2729 45.8172 67.0518 46.5412C68.613 46.417 70.1866 46.5568 71.6961 47.0369C73.7972 47.706 75.7422 48.9313 77.1082 50.6713C78.6992 52.697 79.2281 55.1542 79.0394 57.6907L79.0046 58.1216C78.8179 60.3623 78.4836 63.2444 76.639 64.7167C76.4987 64.8286 76.3438 64.9136 76.1833 64.9651C77.3719 66.9949 78.3472 69.2486 78.9309 71.5246C81.1587 80.2179 79.446 89.2838 76.767 97.6627C76.547 98.3531 75.4998 98.8119 74.9667 98.1372C74.0149 96.9309 72.6322 96.0111 71.0766 95.8388C70.117 95.7325 69.1619 95.925 68.255 95.4908C67.8992 95.3196 67.5558 95.0399 67.3088 94.6997C65.7779 95.2782 64.1292 95.5512 62.4939 95.4841C59.8104 95.3744 56.9416 94.4479 55.0953 92.4159C54.799 92.0897 54.7239 91.7234 54.7922 91.3933C55.0237 91.311 55.2614 91.2497 55.5063 91.2113C57.8476 92.5869 60.4283 93.5062 63.2019 93.5639C64.8045 93.5973 66.3677 93.3738 67.6672 92.3761C67.9484 92.1602 68.207 91.921 68.446 91.6641C71.1629 89.9217 73.0784 86.9621 73.9891 83.7919C74.8376 80.8356 74.7332 77.7573 74.4414 74.7248L74.2875 73.1246C74.0631 70.776 73.8549 68.4203 73.7965 66.0617L73.8141 66.0608C74.3879 66.0239 74.392 65.1284 73.8141 65.1656C72.3193 65.2621 70.8357 65.0176 69.3455 65.1241C69.333 64.4217 69.2823 63.7225 69.0752 63.0451C68.957 62.658 68.281 62.5817 68.2094 63.0451C68.1136 63.665 68.0786 64.2814 68.0681 64.9041C65.8379 64.8746 63.6098 64.6875 61.3792 64.7644C60.9677 64.3269 60.8368 63.5511 60.6443 63.0114C60.6162 62.9319 60.5882 62.8536 60.559 62.7742C60.3898 63.5454 60.1501 64.2997 59.8347 65.0381L59.2877 65.0399C56.1838 65.0544 53.0168 65.1469 49.9859 65.7896C49.7752 65.6283 49.6499 65.347 49.616 65.0916C49.3961 63.4292 49.0824 61.8111 48.5263 60.227L48.4467 60.0035C48.4402 59.9849 48.4333 59.9652 48.4262 59.9445C48.0164 60.6039 47.5275 61.2186 46.9943 61.7909C46.68 62.1283 46.3505 62.4509 46.0123 62.7643C45.6838 63.128 45.3443 63.4862 45.0152 63.851C45.0281 63.9173 45.0393 63.9847 45.0484 64.0533C45.1491 64.8103 45.1595 65.578 45.0858 66.3379C44.9525 67.7116 44.5635 69.0354 43.9385 70.26L43.9188 70.3826C43.8239 70.9565 43.6888 71.5496 43.3735 71.9818C43.767 72.4213 44.0702 72.9463 44.2459 73.5297C44.4024 74.049 43.6817 74.499 43.308 74.074C43.0111 73.7364 42.6813 73.457 42.319 73.2341C42.2961 73.2651 42.2548 73.2803 42.2084 73.2545C41.1994 72.6961 39.4856 72.8651 38.4777 73.391C37.224 74.0445 36.7347 75.3861 36.8738 76.7457C37.0074 78.0448 37.5776 79.5633 38.6831 80.2291C39.1904 80.5346 39.5855 80.5603 40.1242 80.4137C40.2964 80.3671 40.51 80.224 40.6017 80.1529L40.6919 80.0809C41.045 79.8026 41.374 79.612 41.7909 79.6047C42.2173 79.4721 42.6458 79.656 42.8089 80.1018L42.819 80.1306C42.8953 80.3578 43.0345 80.6431 43.0042 80.99C42.9727 81.3615 42.8021 81.6994 42.5474 81.9713C42.5036 82.0183 42.4564 82.0653 42.4082 82.109C46.7966 86.8456 47.36 94.2264 45.1097 100.144C45.0121 100.403 44.9077 100.659 44.7988 100.913C44.4228 101.784 42.975 101.514 42.7909 100.652C42.7359 100.393 42.6753 100.136 42.6091 99.8806C42.4874 99.4091 42.3479 98.942 42.1907 98.4818L42.131 98.3095C41.9974 97.9291 41.8728 97.5452 41.7381 97.1648L41.7247 97.1213C41.7196 97.1041 41.714 97.0842 41.7078 97.0618L41.48 97.5576L40.7875 99.0536C40.4635 99.7518 39.4339 99.3723 39.3956 98.6996L39.3947 98.6765C39.3913 98.5523 39.3868 98.4292 39.3789 98.3073C39.3296 97.3931 39.1713 96.5046 38.9199 95.6352L38.8292 95.7475C37.4786 97.4123 35.8934 98.9727 33.7189 99.3569C33.1734 99.4531 32.5561 98.8847 32.931 98.3352C33.0859 98.1081 33.2351 97.8753 33.3766 97.6392C33.2542 97.5822 33.1386 97.5229 33.032 97.4624C32.2071 97.0003 31.5202 96.3423 30.9523 95.596C29.748 94.0138 29.317 92.022 29.2115 90.0727C29.0993 88.0127 29.2811 85.8407 29.8456 83.8534C30.0903 82.9941 30.4214 82.1694 30.8041 81.3693C30.7772 81.2977 30.7514 81.2261 30.7256 81.1545C30.3125 80.0064 29.9736 78.8326 29.6919 77.6454C29.1239 75.2485 28.8187 72.7756 28.7816 70.3127C28.7143 65.9006 29.4775 61.418 31.0858 57.3035C32.7469 53.0603 35.2453 48.9727 38.6449 45.8899ZM36.5766 84.4655C36.2716 83.9867 35.5084 84.4182 35.7916 84.9003L35.8022 84.9176C36.2859 85.6774 36.5126 86.5412 36.791 87.3883C36.9694 87.9332 37.837 87.7005 37.6563 87.1499L37.5965 86.9661C37.3195 86.1071 37.0668 85.2342 36.5766 84.4655ZM39.2329 75.3257L39.4356 75.2279C40.0748 74.9238 40.6349 74.7167 41.3901 74.9822C42.4013 75.3369 43.4844 76.466 42.8009 77.5614C42.5495 77.9654 42.1028 78.1265 41.6426 78.0314C40.8669 77.871 40.6667 77.1745 40.273 76.6028L40.2052 76.506C39.9652 76.16 39.6617 75.6818 39.2621 75.5462C39.1712 75.5148 39.133 75.3738 39.2329 75.3257ZM39.8032 52.0668L39.8685 52.0085C40.3028 51.6258 39.6653 50.9947 39.2332 51.3752C37.2556 53.1174 36.5687 55.8444 35.5429 58.1685C35.3128 58.691 36.0861 59.1476 36.3184 58.6205C37.297 56.4028 37.9465 53.7498 39.8032 52.0668ZM63.5681 51.3047C63.0514 51.0725 62.5993 51.8222 63.0961 52.0691L63.1147 52.0779C64.8611 52.8645 65.6041 54.6459 66.3156 56.2998C66.5424 56.8279 67.3157 56.3725 67.0912 55.8488L66.9628 55.5521C66.2203 53.8477 65.3543 52.1105 63.5681 51.3047ZM66.3052 50.2282C65.7575 50.0391 65.5229 50.9029 66.0662 51.0921C67.5466 51.6057 68.5623 52.7135 69.4187 53.9801C69.7397 54.4546 70.5175 54.007 70.1931 53.5281C69.1987 52.0577 68.018 50.8235 66.3052 50.2282Z" fill="black" style="fill:black;fill-opacity:1;"/>
<path fill-rule="evenodd" clip-rule="evenodd" d="M63.2993 87.2611C62.5448 86.9542 61.8716 86.4424 61.3794 85.7885C61.2083 85.5612 61.164 85.3211 61.1999 85.1016C61.2402 84.8547 61.3867 84.631 61.5865 84.4809C61.7869 84.3304 62.0376 84.2561 62.2799 84.294C62.4905 84.3269 62.7001 84.4418 62.8661 84.6802L62.9007 84.7279C63.1933 85.1226 63.5746 85.4464 64.009 85.6551C64.4278 85.8563 64.8961 85.9501 65.3807 85.8955C66.3037 85.7916 66.9399 85.2939 67.6161 84.6181C67.6999 84.5328 67.7838 84.4448 67.8681 84.3554C67.9213 84.2743 67.9952 84.2222 68.0772 84.1949C68.1682 84.1645 68.2712 84.1662 68.3656 84.1991C68.4565 84.2307 68.5379 84.2907 68.5924 84.3706C68.6443 84.4464 68.6737 84.5402 68.6641 84.648C68.6022 85.3484 68.235 85.9735 67.7133 86.4643C67.1338 87.0094 66.3658 87.3865 65.6427 87.5187C64.8461 87.6644 64.0343 87.5601 63.2993 87.2611ZM66.0185 76.4563C66.866 76.9699 68.1574 78.1676 67.2457 79.4409C66.1725 80.5636 64.6273 79.2764 63.8658 78.6942C63.1598 78.243 62.3665 79.4034 63.0216 79.9303C68.5238 83.9916 70.7567 76.5906 66.4472 75.8524C65.9727 75.7711 65.7965 76.2974 66.0185 76.4563ZM56.1585 71.7319C56.2521 70.5731 58.0224 70.3099 58.1985 71.4567C58.3562 72.4839 58.1705 73.4275 57.7064 74.3524C57.263 75.2359 56.1484 74.8237 56.0641 74.0191C55.9512 72.9407 56.1002 72.4528 56.1585 71.7319ZM69.6339 71.2189C69.8807 70.8966 70.2371 70.6766 70.664 70.801C71.998 71.1896 71.6048 73.0776 71.1363 73.9966C70.8818 74.4957 70.059 74.6223 69.6871 74.1828C69.0811 73.4662 68.7908 72.0352 69.5613 71.3293C69.5822 71.2929 69.6054 71.256 69.6339 71.2189ZM57.6876 66.6612L57.8983 66.6244C58.5502 66.512 59.3607 66.404 59.8218 66.9265C60.0664 67.2036 60.1505 67.7185 59.8218 67.9837C59.2436 68.4503 58.6043 68.2695 57.9113 68.309C57.3403 68.3417 56.7914 68.4359 56.2414 68.5927C55.0346 68.9365 54.0513 69.5643 53.0206 70.2535C52.8854 70.344 52.7474 70.1715 52.8119 70.0454C53.4068 68.8836 54.5598 67.9292 55.7148 67.3475C56.3312 67.0369 57.0057 66.7793 57.6876 66.6612ZM68.4179 66.1407L68.5792 66.1736C70.3343 66.5394 72.6145 67.27 73.4456 68.9887C73.4773 69.2317 73.4438 69.2838 73.4166 69.3178L73.4076 69.3292C73.3851 69.3582 73.3672 69.3983 73.2616 69.4314C73.2323 69.4244 73.2027 69.417 73.1727 69.4092C72.7918 69.3097 72.4904 69.1725 72.1985 69.0303L71.8822 68.8749C71.5151 68.6954 71.1448 68.5225 70.7523 68.3949C69.9148 68.1225 69.0533 67.9306 68.1785 67.8282C67.9889 67.806 67.8064 67.7422 67.6623 67.6329C67.5256 67.5291 67.4211 67.3854 67.3735 67.1944C67.3118 66.9472 67.3295 66.76 67.4626 66.537C67.5626 66.3696 67.7057 66.2535 67.8701 66.1868C68.0376 66.1189 68.2283 66.1029 68.4179 66.1407Z" fill="black" style="fill:black;fill-opacity:1;"/>
<path fill-rule="evenodd" clip-rule="evenodd" d="M75.4826 77.4578C74.7269 78.4699 73.326 78.7923 72.0338 78.681C69.2469 78.4135 68.3698 75.2579 68.2784 72.8052C70.1473 73.3293 68.1204 69.6172 74.5088 69.209C76.7608 69.022 76.1399 70.3779 77.1349 71.3687C77.1144 73.448 76.7673 75.7073 75.4826 77.4578ZM62.2084 75.0686C60.563 82.7507 51.553 80.9234 50.6065 73.9985C51.4805 73.3835 51.2503 71.8649 52.336 71.3147C54.0568 70.2186 56.208 70.2655 58.1621 70.2912C60.6599 70.4623 61.3717 71.4939 62.6548 72.6194C62.5931 73.3711 62.415 74.262 62.2084 75.0686ZM79.0519 67.9368C78.9595 67.9214 78.867 67.907 78.7745 67.8935C78.7024 67.8526 78.6176 67.8212 78.5191 67.8023C78.294 67.7453 78.0706 67.7069 77.8475 67.6862C74.6451 66.9677 67.2368 67.9879 66.931 70.7124C65.9113 71.0518 65.0289 70.7479 63.8469 70.7781C62.9472 67.0289 47.3932 67.5581 46.6452 69.8184C46.6424 69.8177 46.6396 69.817 46.6367 69.8161C45.9179 69.5943 44.8583 69.6478 44.0356 69.6127C42.279 69.576 40.5204 69.7321 38.8017 70.1014C35.5833 70.6114 31.191 71.2083 33.4293 75.2152C33.4297 75.2158 33.4301 75.2166 33.4306 75.2173L33.431 75.2169C33.8167 75.6112 34.4714 75.2937 34.4958 74.7601C33.7432 72.8618 35.4429 72.6339 36.7507 72.0884C40.0047 70.9229 43.3177 70.7613 46.6832 71.1218C46.9364 71.419 47.3206 71.6782 47.7267 71.8138C49.9769 72.1862 48.791 73.8503 50.2134 74.0924C49.9521 79.8934 57.0163 83.0599 61.1095 79.2465C62.7437 77.6535 63.1333 75.2937 63.5122 73.1666C63.7126 73.1218 63.84 73.0126 63.9144 72.868C64.3962 72.3884 64.6989 71.9455 65.6517 71.8138C66.6044 71.6822 67.3379 71.9464 67.4371 72.0273C67.4621 72.0775 67.489 72.1279 67.5202 72.1783C67.5637 72.2533 67.623 72.3132 67.6903 72.3603C66.7494 78.1369 71.2475 81.7902 75.7885 78.7941C77.7616 76.9436 78.1785 74.1106 78.2609 71.582C78.5284 71.421 78.6977 71.1092 78.6052 70.7171C78.4775 70.1766 78.7768 69.7087 79.2533 69.4737C79.8725 69.1685 79.763 68.0542 79.0519 67.9368Z" fill="black" style="fill:black;fill-opacity:1;"/>
</g>
<g clip-path="url(#clip2_1_235)">
<path fill-rule="evenodd" clip-rule="evenodd" d="M173.932 156.967C174.385 154.42 174.8 151.866 175.176 149.307C175.355 148.091 175.53 146.875 175.687 145.657C175.797 144.803 175.964 143.827 175.382 143.195C174.562 142.305 173.817 141.544 173.717 140.269C173.623 139.07 174.029 137.762 174.284 136.598C174.817 134.157 175.481 131.746 176.215 129.358C176.96 126.932 177.777 124.528 178.606 122.13C179.382 119.887 180.127 117.624 181.136 115.472C183.052 111.388 186.294 108.364 190.299 106.344C191.296 105.842 193.328 104.049 194.369 103.648C195.326 103.279 195.322 104.357 196.264 103.951C197.017 103.626 197.718 103.193 198.139 102.469C198.597 101.682 199.745 100.581 199.92 99.6651C200.29 97.7235 199.889 96.071 201.279 94.6096C202.513 93.312 204.171 92.423 205.887 91.9458C209.663 90.896 214.697 91.6299 216.975 95.1273C218.063 96.7975 218.443 98.8163 219.911 100.179C221.193 101.37 220.906 102.183 222.566 102.797C222.66 102.831 225.209 102.286 225.303 102.321C227.119 101.934 228.855 103.019 230.521 103.648C233.005 104.586 235.37 105.807 237.592 107.259C242.073 110.186 245.91 113.986 249.073 118.286C252.263 122.622 254.738 127.482 256.5 132.562C256.928 133.796 257.313 135.044 257.652 136.305C257.842 137.011 258.044 137.743 257.813 138.466C257.624 139.057 257.204 139.497 256.71 139.851C256.041 140.332 254.698 140.645 254.725 141.612C254.745 142.347 254.995 143.121 255.117 143.847C255.262 144.713 255.382 145.583 255.501 146.452C256.044 150.407 256.467 154.385 256.654 158.375C256.838 162.302 256.991 166.31 256.718 170.237C256.699 170.496 256.622 170.734 256.497 170.935C256.614 170.979 256.623 171.196 256.478 171.226C256.376 171.248 256.274 171.269 256.173 171.291C255.962 171.45 255.698 171.548 255.395 171.557C255.189 171.564 254.984 171.573 254.779 171.584C252.613 172.035 250.447 172.462 248.252 172.785C245.584 173.177 242.909 173.497 240.225 173.757C234.71 174.292 229.239 174.114 223.717 173.826C218.204 173.539 212.693 173.471 207.174 173.614C201.65 173.758 196.128 173.997 190.603 174.095C184.43 174.205 178.267 174.037 172.112 173.547C171.268 173.48 170.746 172.811 170.912 171.975C171.909 166.969 173.039 161.996 173.932 156.967Z" fill="white" style="fill:white;fill-opacity:1;"/>
<path fill-rule="evenodd" clip-rule="evenodd" d="M227.025 102.198C226.454 102.173 225.872 102.265 225.303 102.321C225.253 102.326 225.234 102.402 225.29 102.414C226.309 102.626 227.317 102.917 228.318 103.212L228.747 103.338C229.875 103.671 230.971 104.014 232.064 104.458C234.242 105.343 236.31 106.538 238.214 107.91C245.544 113.194 250.849 121.194 254.197 129.477C255.107 131.726 255.877 134.031 256.501 136.375C256.653 136.946 256.796 137.518 256.931 138.093C256.971 138.261 257.144 138.692 257.049 138.865C256.965 139.017 256.639 139.111 256.487 139.19L255.975 139.455C254.976 139.968 253.313 140.811 253.146 140.894L252.886 141.021C248.631 143.101 244.085 144.864 239.297 144.987L239.259 144.579C239.046 142.325 238.766 140.059 238.154 137.875C238.121 137.758 237.971 137.797 237.958 137.901C237.617 140.488 237.726 143.094 237.845 145.692C238.055 150.293 238.335 154.892 238.583 159.492C238.708 161.793 238.868 164.092 239.013 166.392C239.159 168.696 239.206 171.056 239.538 173.341C239.612 173.851 240.21 174.128 240.663 174.074C241.165 174.014 241.55 173.574 241.553 173.069C241.559 171.738 241.391 170.391 241.298 169.063C241.209 167.801 241.114 166.54 241.017 165.279C240.661 160.676 240.251 156.079 239.872 151.479C239.738 149.847 239.593 148.217 239.444 146.587C244.516 146.424 249.255 144.551 253.776 142.362C253.841 143.843 253.999 145.322 254.152 146.797C254.579 150.913 254.956 155.028 255.237 159.157C255.38 161.242 255.483 163.33 255.574 165.419C255.618 166.445 255.654 167.472 255.682 168.498C255.691 168.841 255.699 169.183 255.707 169.525L255.722 170.31C255.735 170.806 255.786 171.267 256.205 171.628C256.631 171.996 257.206 172.015 257.628 171.628C258.192 171.11 258.092 170.405 258.076 169.709C258.062 169.122 258.045 168.535 258.025 167.948C257.987 166.775 257.937 165.602 257.876 164.429C257.665 160.33 257.242 156.247 256.689 152.18L256.473 150.61C256.07 147.692 255.628 144.707 254.727 141.896C255.078 141.722 255.427 141.547 255.776 141.371C256.394 141.059 257.033 140.766 257.633 140.422C258.11 140.149 258.521 139.774 258.654 139.221C258.802 138.605 258.575 137.932 258.425 137.331L258.412 137.278C258.265 136.673 258.106 136.07 257.938 135.47C257.259 133.038 256.42 130.653 255.437 128.326C253.47 123.667 250.93 119.242 247.828 115.24C245.036 111.638 241.737 108.372 237.871 105.922C235.981 104.724 233.967 103.74 231.837 103.045C230.841 102.72 229.758 102.438 228.715 102.321C228.153 102.258 227.59 102.223 227.025 102.198ZM216.911 94.8162C216.233 94.09 214.885 94.8415 215.211 95.8032C215.977 98.0656 217.197 100.129 219.101 101.616C220.89 103.014 223.025 103.921 225.323 103.728C225.341 103.726 225.356 103.721 225.37 103.715L225.172 103.983C223.617 106.08 221.976 108.148 219.999 109.862C215.97 113.355 210.486 115.238 205.189 113.898C201.022 112.844 197.351 109.559 196.271 105.372C196.426 105.441 196.61 105.465 196.812 105.421C197.676 105.234 198.531 104.328 199.088 103.679C199.691 102.976 200.161 102.218 200.506 101.36C201.138 99.7906 201.34 97.7699 200.478 96.2495C200.372 96.0621 200.126 96.1672 200.105 96.3501L200.073 96.6357C199.906 98.0605 199.699 99.4388 199.026 100.738C198.696 101.373 198.301 101.994 197.819 102.526C197.562 102.811 197.283 103.083 196.981 103.322C196.688 103.554 196.332 103.723 196.069 103.989L196.021 104.041L196.02 104.032C195.953 103.467 195.556 103.219 195.168 103.235C194.792 103.25 194.351 103.414 194.18 103.493L194.164 103.501C191.543 104.755 189.129 106.39 186.857 108.204C182.16 111.955 178.64 116.859 176.934 122.634C176.097 125.468 175.617 128.389 175.11 131.296L174.798 133.077C174.325 135.76 173.796 138.496 172.728 140.993C172.452 141.638 172.665 142.244 173.342 142.498C174.188 142.815 175.037 143.122 175.888 143.425C175.47 145.212 175.216 147.06 174.903 148.855C174.238 152.67 173.423 156.462 172.724 160.272C172.367 162.22 172.044 164.175 171.687 166.124C171.516 167.062 171.336 167.999 171.162 168.937C171.068 169.443 170.983 169.95 170.893 170.457L170.877 170.541C170.826 170.808 170.761 171.084 170.835 171.352C170.919 171.657 171.158 171.872 171.371 172.091C171.546 172.271 171.8 172.272 172.015 172.174L172.086 172.141C172.47 171.962 172.77 171.784 172.906 171.352C172.993 171.078 173.024 170.77 173.08 170.489C173.188 169.949 173.291 169.408 173.387 168.866C173.581 167.782 173.77 166.696 173.954 165.61L174.127 164.593C174.718 161.087 175.28 157.56 175.564 154.017C175.69 152.446 175.823 150.875 175.958 149.305L176.059 148.127C176.187 146.636 176.344 145.107 176.366 143.596L176.874 143.776L179.356 144.65C179.971 144.867 180.755 145.311 181.417 145.231C181.741 145.191 181.988 145.089 182.179 144.904C181.95 148.12 181.641 151.329 181.229 154.522C180.854 157.428 180.438 160.33 179.947 163.218C179.704 164.648 179.454 166.077 179.182 167.502C179.046 168.215 178.906 168.927 178.762 169.638C178.69 169.992 178.604 170.347 178.548 170.705C178.484 171.115 178.597 171.367 178.827 171.703C179.015 171.98 179.392 172.122 179.698 171.931C180.103 171.678 180.314 171.459 180.433 170.998C180.541 170.579 180.607 170.142 180.69 169.717C180.845 168.934 180.994 168.15 181.139 167.365C181.44 165.723 181.718 164.078 181.966 162.427C182.841 156.612 183.396 150.748 183.677 144.874C183.815 141.977 183.858 139.076 183.833 136.175C183.821 134.689 183.772 133.197 183.667 131.714C183.56 130.213 183.338 128.741 183.139 127.255C183.132 127.202 183.058 127.199 183.055 127.255C182.961 128.922 182.814 130.587 182.742 132.258C182.673 133.853 182.642 135.45 182.588 137.046C182.516 139.143 182.416 141.241 182.284 143.338C182.045 143.078 181.684 142.927 181.323 142.986C180.801 142.877 180.238 142.603 179.74 142.437L177.862 141.812C176.875 141.483 175.887 141.157 174.897 140.84C175.782 137.869 176.389 134.853 176.907 131.794L177.138 130.418C177.596 127.709 178.089 125 178.918 122.377C179.789 119.619 181.092 117.056 182.821 114.734C184.526 112.446 186.6 110.432 188.735 108.547C190.563 106.934 192.518 105.478 194.383 103.909C194.363 104.013 194.359 104.127 194.376 104.253C194.773 107.146 196.286 109.84 198.396 111.843C202.633 115.868 208.906 116.703 214.329 114.816C219.575 112.99 224.214 108.666 225.852 103.315C225.88 103.224 225.757 103.188 225.708 103.255C225.617 103.379 225.526 103.503 225.434 103.627C225.44 103.578 225.415 103.524 225.354 103.501C223.442 102.765 221.564 101.721 220.131 100.244C219.432 99.5243 218.823 98.7088 218.341 97.8293C218.111 97.408 217.904 96.9717 217.739 96.5209L217.697 96.4042C217.496 95.8395 217.329 95.2636 216.911 94.8162Z" fill="black" style="fill:black;fill-opacity:1;"/>
<path fill-rule="evenodd" clip-rule="evenodd" d="M218.296 50.364L217.326 51.5134C217.863 51.8905 218.37 52.2694 218.846 52.6502L218.847 52.649C216.639 51.2129 214.194 50.364 211.553 50.364C206.465 50.364 196.131 54.721 193.795 57.8636C192.636 59.4232 190.482 64.2111 189.364 69.4163C188.466 73.5986 187.131 85.4143 188.466 89.8541C190.176 95.5363 195.799 100.788 201.597 100.788C207.395 100.788 216.397 96.6148 222.803 87.4692C223.096 87.051 226.46 86.5662 228.86 84.9966L228.23 91.9173L227.751 95.9431L227.857 96.2296C229.576 100.864 230.938 103.282 231.943 103.483C232.969 103.688 235.058 102.012 238.21 98.4536L238.613 96.7681C239.636 92.4683 240.148 90.1604 240.148 89.8441L240.147 89.7865C240.132 89.0588 239.881 84.94 239.875 83.8316L239.875 67.2188C236.485 55.9823 233.25 50.364 230.17 50.364H218.296Z" fill="white" style="fill:white;fill-opacity:1;"/>
<path fill-rule="evenodd" clip-rule="evenodd" d="M226.329 46.5373C225.332 46.1524 224.177 46.2251 223.231 46.8047C221.373 46.7253 219.526 47.8084 218.558 49.3896C218.537 49.4119 218.516 49.4343 218.497 49.4567L218.292 49.6952C218.097 49.923 217.892 50.174 217.73 50.4332C218.525 50.4514 219.188 50.7746 219.651 51.4276C219.981 51.8934 219.225 52.3361 218.887 51.8955L218.875 51.8794C218.598 51.4874 218.178 51.3356 217.711 51.3276C217.577 51.3254 217.476 51.2743 217.404 51.1988C217.375 51.3028 217.35 51.4079 217.326 51.5134C214.976 50.602 212.442 50.3606 209.918 50.5768C210.029 50.7554 210.122 50.9467 210.193 51.1478C210.273 51.3757 210.101 51.6375 209.879 51.6983C209.639 51.7641 209.422 51.6238 209.335 51.4069L209.327 51.3857C209.23 51.1118 209.072 50.8767 208.859 50.6944C207.671 50.855 206.491 51.1103 205.341 51.4395C203.958 51.8355 202.587 52.3188 201.248 52.8722C201.475 52.9609 201.671 53.1108 201.808 53.3611C202.082 53.8608 201.329 54.3083 201.043 53.8307L201.033 53.813C201.005 53.7618 200.98 53.731 200.961 53.7134L200.955 53.7075L200.915 53.6893L200.842 53.6683L200.814 53.6614C200.789 53.6558 200.778 53.6561 200.713 53.6525C200.625 53.6476 200.538 53.6481 200.45 53.6479C200.245 53.6478 200.114 53.5336 200.054 53.3874C199.393 53.685 198.74 53.9983 198.099 54.3265L197.947 54.4052C195.968 55.4361 194.092 56.7901 193.005 58.7823C192.933 58.9154 192.91 59.0609 192.928 59.1996C192.696 59.4771 192.472 59.7636 192.256 60.0545C191.598 60.9452 191.117 61.9579 190.661 62.9616C189.744 64.9803 189.127 67.0537 188.646 69.2156C188.18 71.2991 187.804 73.405 187.455 75.511C187.067 77.8507 186.745 80.2107 186.678 82.584C186.559 86.8149 187.388 91.0703 189.771 94.632C191.897 97.8099 195.098 100.333 198.894 101.141C202.755 101.962 206.84 101.161 209.883 98.5966C210.373 98.1837 210.306 97.35 209.883 96.9271C209.403 96.4504 208.696 96.5164 208.208 96.9271C205.343 99.3429 201.172 99.7155 197.72 98.4847C194.528 97.3456 192.027 94.7182 190.493 91.7675C188.621 88.1688 188.305 84.0353 188.593 80.054C188.75 77.8675 189.077 75.6989 189.413 73.5337L189.616 72.2304C189.838 70.8187 190.071 69.4089 190.375 68.0116L190.446 67.686C190.817 66.001 191.252 64.2727 191.925 62.6886C192.277 61.8572 192.702 61.056 193.136 60.2649C193.22 60.1116 193.307 59.9561 193.395 59.7994C193.514 59.8408 193.65 59.8475 193.793 59.8028C195.019 59.4223 196.28 59.1672 197.563 59.0821C198.147 59.0432 198.732 59.0372 199.317 59.0599C200.318 59.0018 201.346 59.0895 202.3 59.3955C202.393 59.3157 202.488 59.2376 202.582 59.1595C202.608 59.1574 202.633 59.1548 202.659 59.1497C202.902 59.1021 203.073 58.9297 203.176 58.7121C203.181 58.7006 203.186 58.689 203.191 58.6775C203.313 58.5845 203.436 58.493 203.56 58.4027C203.863 58.4809 204.128 58.2299 204.199 57.9549C204.266 57.9096 204.335 57.8657 204.403 57.8213C204.456 57.8343 204.509 57.845 204.561 57.8488C204.784 57.8648 204.999 57.8308 205.196 57.7248C205.446 57.5907 205.606 57.3742 205.713 57.1284C206.091 57.1516 206.473 57.0293 206.811 56.8082C207.085 56.6288 207.296 56.3812 207.504 56.134C210.05 55.0021 212.817 54.3339 215.59 54.1627C215.863 54.215 216.134 54.2774 216.402 54.3499C216.466 54.3671 216.556 54.4009 216.659 54.4414C216.041 54.3669 215.415 54.3595 214.78 54.4507C211.766 54.8852 209.418 57.135 207.398 59.2587C206.917 59.1619 206.431 59.7824 206.876 60.1933L210.344 63.397C210.259 63.7553 210.671 64.1085 211.032 64.0224C211.637 63.8774 212.244 63.7364 212.851 63.5978C213.484 63.9031 214.28 63.8509 214.854 63.4082C214.881 63.3876 214.939 63.3547 214.989 63.3221C215.036 63.3609 215.1 63.3998 215.125 63.4164C215.329 63.5511 215.578 63.5907 215.816 63.5529C216.061 63.5141 216.283 63.39 216.474 63.2354C216.595 63.137 216.879 62.7263 217.036 62.696L217.052 62.6943C216.946 62.6973 217.284 63.0105 217.375 63.0753C217.587 63.226 217.821 63.3053 218.085 63.2764C218.544 63.226 218.94 62.8085 219.164 62.423L219.181 62.3934L219.188 62.3751L219.194 62.3949C219.195 62.3984 219.197 62.4022 219.198 62.4064C219.232 62.4971 219.338 62.6003 219.409 62.6638C219.614 62.8443 219.868 62.9236 220.138 62.8765C220.367 62.8367 220.56 62.6987 220.715 62.5317L220.739 62.5051C220.785 62.4535 221.087 62.0492 221.039 61.9523L221.034 61.9441L221.049 61.941C221.232 61.986 221.386 61.9409 221.499 61.8466C222.129 61.7089 222.751 61.5486 223.353 61.3447C223.4 61.4767 223.446 61.6088 223.491 61.7419C223.163 61.9445 222.858 62.2332 222.579 62.4391C222.049 62.8285 221.519 63.2179 220.991 63.6084L218.896 65.1488L218.657 65.0847C218.351 65.0027 218.088 65.1804 217.976 65.4519L217.966 65.4754C217.922 65.5944 217.868 65.7044 217.805 65.8097C217.282 65.7888 216.838 66.1093 216.695 66.569C216.566 66.5661 216.435 66.571 216.301 66.5857C215.936 66.6257 215.689 66.8965 215.755 67.2684L215.76 67.2939L215.769 67.3353C215.557 67.425 215.403 67.5983 215.369 67.8604C215.313 67.9456 215.267 68.0382 215.237 68.1414C215.084 68.6767 215.382 69.3385 215.541 69.8513L215.553 69.8915C215.655 70.2285 215.76 70.5639 215.866 70.8992L216.132 71.7316C216.868 74.0514 217.585 76.4974 216.99 78.9294C216.863 79.4442 217.523 79.6769 217.809 79.2741C218.503 78.2988 219.252 77.3798 220.039 76.4976L220.078 76.4915C220.629 76.3811 220.843 75.9929 221.096 75.5972C221.245 75.641 221.405 75.6513 221.56 75.6215C221.784 75.5784 221.985 75.4508 222.144 75.2895C222.278 75.1528 222.401 74.8021 222.56 74.7151C222.759 74.6065 223.158 74.7618 223.395 74.7269C223.588 74.6986 223.768 74.6326 223.943 74.5496C224.264 74.9862 224.477 75.4993 224.529 76.0525C224.55 76.2629 224.613 76.4408 224.704 76.5885C224.369 76.5762 224.033 76.5997 223.702 76.6613C222.477 76.8884 221.598 77.6426 221.104 78.7661C221.083 78.8153 221.147 78.8556 221.176 78.8086C221.909 77.684 223.504 77.6269 224.662 78.0231C225.892 78.4438 226.582 79.5236 226.828 80.7556C227.097 82.1062 226.752 83.562 226.014 84.7123C225.672 85.2472 225.205 85.735 224.585 85.932C223.847 86.1659 223.166 85.7474 222.411 85.9633C221.897 86.1099 221.67 86.6056 221.763 87.1013C221.8 87.296 221.868 87.4661 221.96 87.6138C221.689 88.1509 221.437 88.7037 221.118 89.2117C220.624 89.9961 220.027 90.6451 219.376 91.2997C218.703 91.9756 218.019 92.638 217.299 93.2646C216.61 93.8655 215.82 94.293 215.097 94.8435C214.59 95.2296 214.339 95.7711 214.589 96.3911C214.795 96.9035 215.491 97.34 216.055 97.1083C217.133 96.6652 218.077 95.911 218.937 95.1344C219.734 94.4138 220.427 93.5522 220.951 92.6168C221.446 91.7348 221.81 90.7333 222.118 89.7685L222.156 89.6481C222.301 89.1893 222.453 88.6735 222.552 88.1532C223.143 88.4754 223.946 88.5224 224.579 88.4351C225.601 88.2953 226.534 87.7817 227.239 87.0331C227.567 86.6847 227.858 86.2874 228.109 85.8567C228.086 86.1189 228.072 86.3725 228.058 86.6034C227.472 87.2432 227.237 88.1666 227.445 89.0091C226.954 89.5122 226.817 90.2673 227.073 90.9103C226.536 91.4409 226.556 92.2853 226.788 93.0521C226.154 93.759 226.094 94.8602 226.589 95.6578L226.604 95.7151C226.104 96.5494 226.217 97.6276 226.844 98.3644C226.416 99.192 226.482 100.305 227.551 100.626C227.941 100.743 228.319 100.643 228.602 100.426C228.343 101.706 228.228 103.005 228.572 104.291C228.709 104.801 229.21 105.174 229.736 105.174C230.176 105.174 230.496 104.953 230.717 104.629C230.691 105.275 230.73 105.924 230.869 106.578C230.952 106.974 231.32 107.282 231.71 107.377C231.569 107.536 231.513 107.765 231.648 108.003C232.221 109.014 233.604 108.595 233.697 107.626C234.088 107.336 234.27 106.858 234.345 106.343C234.454 105.591 234.494 104.851 234.618 104.108L234.666 104.152L234.69 104.174L234.698 104.227C234.769 104.594 234.977 104.851 235.246 105.005C235.188 105.645 235.296 106.297 235.704 106.783C235.975 107.107 236.437 107.235 236.834 107.164C236.859 107.166 236.884 107.166 236.911 107.162C237.808 107.043 238.327 106.194 238.091 105.415C238.453 104.974 238.605 104.414 238.498 103.86C239.197 103.398 239.183 102.384 238.941 101.57C239.674 100.993 239.95 99.9145 239.581 99.0575C240.242 98.2394 240.334 97.0994 239.885 96.1678C240.612 95.5724 240.608 94.4229 239.887 93.8139C240.271 93.0541 240.502 92.1435 240.118 91.4481C240.389 91.1502 240.538 90.7257 240.506 90.3155C240.461 89.713 240.061 89.2967 239.565 89.0194L239.53 88.8309C239.414 88.8454 239.29 88.8129 239.18 88.7082C239.072 88.6044 238.961 88.5209 238.845 88.4519C238.715 88.4502 238.602 88.3923 238.523 88.3031C238.307 88.2299 238.075 88.1976 237.817 88.1947C237.26 88.1886 237.241 87.3585 237.759 87.3046C237.841 87.2224 237.953 87.1706 238.075 87.1706L238.171 87.171C238.395 87.1731 238.621 87.1868 238.828 87.2755C238.963 87.3331 239.067 87.4198 239.144 87.5259C239.158 87.6863 239.245 87.8463 239.435 87.9785C239.654 88.1311 239.953 88.1489 240.188 88.0108C240.516 87.8175 240.519 87.5157 240.481 87.1876C240.398 86.4699 240.812 85.7945 240.714 85.0602C240.67 84.7356 240.562 84.4553 240.385 84.2289C240.758 83.6727 240.824 82.9546 240.537 82.344C241.134 81.7027 241.238 80.7142 240.857 79.9424C240.851 79.9238 240.847 79.9046 240.841 79.8862C240.798 79.755 240.738 79.6367 240.673 79.5236C241.008 78.9455 241.005 78.2362 240.665 77.6606C241.18 77.0617 241.197 76.1087 240.738 75.4635C240.736 75.41 240.73 75.3565 240.725 75.3031C240.936 74.7587 240.885 74.1398 240.618 73.6335C240.714 73.4148 240.787 73.1792 240.834 72.9284C240.954 72.2816 240.892 71.6527 240.713 71.0216C240.684 70.922 240.651 70.8224 240.616 70.7229C240.611 70.2906 240.594 69.8602 240.572 69.4307C240.658 69.067 240.671 68.6674 240.673 68.2964L240.674 68.0558C240.678 67.4436 240.721 66.5472 240.332 66.0268C240.582 65.4647 240.479 64.7564 240.063 64.3108C240.355 63.81 240.417 63.1952 240.123 62.6396C240.076 62.5502 240.021 62.4669 239.961 62.3882C239.986 61.8794 239.878 61.3547 239.606 60.849C239.43 60.5198 239.166 60.2348 238.852 60.0068C238.857 59.9393 238.861 59.8719 238.859 59.8056C238.854 59.5095 238.788 59.2122 238.677 58.9348C238.876 58.5962 238.968 58.2145 238.852 57.8031C238.722 57.3377 238.379 56.9371 237.952 56.711C237.917 56.2722 237.849 55.8359 237.75 55.4054C238.013 54.8221 237.804 54.0522 237.21 53.7086C237.287 53.2424 237.218 52.759 236.877 52.3949C236.748 52.2569 236.596 52.1523 236.433 52.0829C236.512 51.6142 236.423 51.1266 236.098 50.7449C235.832 50.4332 235.439 50.2439 235.038 50.216C234.884 49.4008 234.103 48.7911 233.278 48.8397C233.175 48.4807 232.929 48.1678 232.547 48.0091C232.45 47.9685 232.351 47.9417 232.252 47.9268C231.582 47.2528 230.584 46.7959 229.72 46.5619C228.854 46.3281 227.975 46.3055 227.231 46.5773L227.177 46.5977L227.117 46.5899C226.854 46.5608 226.591 46.544 226.329 46.5373ZM232.914 101.785C233.145 101.713 233.403 101.87 233.466 102.098C233.532 102.338 233.385 102.576 233.152 102.648C232.863 102.738 232.559 102.761 232.257 102.761C232.015 102.761 231.808 102.555 231.808 102.313C231.808 102.071 232.014 101.866 232.257 101.866C232.502 101.866 232.684 101.857 232.914 101.785ZM234.972 97.0319C235.318 97.0322 235.615 97.1146 235.872 97.3563C236.043 97.5175 236.047 97.8289 235.872 97.9894C235.695 98.1514 235.438 98.1608 235.256 98.0066L235.221 97.9753C235.217 97.9715 235.214 97.9684 235.211 97.9659C235.196 97.9565 235.182 97.9469 235.166 97.9388L235.195 97.9579C235.218 97.974 235.166 97.9478 235.137 97.9354L235.128 97.9317L235.125 97.931L235.102 97.9292C235.059 97.927 235.016 97.9271 234.972 97.9271C234.738 97.9269 234.513 97.7214 234.523 97.4795C234.534 97.2371 234.721 97.0317 234.972 97.0319ZM228.443 94.1922C227.957 93.8951 228.391 93.1352 228.878 93.4088L228.896 93.4192C229.146 93.572 229.453 93.5513 229.736 93.5514C230.314 93.5518 230.315 94.4469 229.736 94.4466L229.641 94.4463C229.226 94.4431 228.806 94.4142 228.443 94.1922ZM232.267 90.9249C232.634 90.8559 233.045 90.7945 233.432 90.8364L233.496 90.8444H233.615C233.718 90.8444 233.818 90.8858 233.898 90.9509C234.025 91.0035 234.146 91.074 234.255 91.1688C234.693 91.5469 234.055 92.1778 233.62 91.8019C233.596 91.781 233.568 91.7637 233.537 91.7496L233.513 91.7396H233.033C232.989 91.7396 232.947 91.7305 232.905 91.7174C232.749 91.7388 232.604 91.7696 232.506 91.788C231.941 91.894 231.699 91.0314 232.267 90.9249ZM232.677 82.3333C233.381 82.0079 234.16 82.0103 234.811 82.4621C235.276 82.7853 234.844 83.5472 234.375 83.2463L234.358 83.2351C234.299 83.1946 234.24 83.1607 234.179 83.1299C233.848 83.2252 233.516 83.2297 233.196 83.1126L233.155 83.0966L233.13 83.1062C232.609 83.347 232.153 82.5757 232.677 82.3333ZM225.014 80.9307C225.725 80.8513 225.731 79.7316 225.014 79.8118C223.501 79.981 222.128 80.6516 221.123 81.8032C220.655 82.3388 221.425 83.1224 221.902 82.6107L221.916 82.5944C222.716 81.6787 223.795 81.067 225.014 80.9307ZM232.978 75.1823C233.136 75.1651 233.294 75.1565 233.449 75.164C233.822 75.1819 234.276 75.4298 234.113 75.8779C233.981 76.2368 233.551 76.251 233.339 76.0596C233.251 76.0617 233.162 76.0675 233.074 76.0765C232.84 76.1005 232.608 76.1451 232.377 76.1905C231.812 76.3012 231.571 75.4386 232.138 75.3272L232.389 75.2777C232.473 75.2612 232.559 75.2451 232.644 75.2303C232.696 75.2049 232.751 75.1878 232.809 75.1834L232.839 75.1823H232.978ZM237.439 68.2374L237.492 68.2303C238.25 68.1336 239.467 68.2225 239.559 69.1847C239.61 69.7176 238.838 69.751 238.685 69.2954C238.125 69.1948 237.561 69.1755 237.005 69.2366C236.793 69.0218 236.791 68.6088 237.144 68.5057C237.194 68.3721 237.298 68.2576 237.439 68.2374ZM220.109 66.6123C220.284 66.4519 220.572 66.4307 220.744 66.6123C220.843 66.7168 220.926 66.833 220.992 66.9607L221.036 67.047C221.043 67.0614 221.051 67.0756 221.058 67.0897C221.073 67.1157 221.09 67.1406 221.106 67.1659L221.117 67.1764C221.121 67.1808 221.126 67.186 221.132 67.1924C221.293 67.3626 221.314 67.6588 221.132 67.8254C220.957 67.9857 220.669 68.007 220.497 67.8254C220.398 67.7209 220.315 67.6048 220.249 67.4769L220.205 67.3907C220.198 67.3764 220.19 67.3622 220.183 67.3481C220.168 67.322 220.151 67.2971 220.135 67.2718L220.117 67.254C220.115 67.2514 220.112 67.2485 220.109 67.2453C219.948 67.0752 219.927 66.7789 220.109 66.6123ZM229.315 65.4467C229.948 64.9997 230.7 64.9789 231.282 65.5166C231.701 65.9047 231.085 66.5265 230.662 66.1628L230.647 66.1496C230.631 66.1353 230.616 66.1227 230.6 66.1108C230.525 66.1752 230.428 66.2161 230.318 66.2162C230.289 66.2162 230.26 66.2162 230.232 66.2168L230.188 66.2183L230.165 66.2202L230.162 66.2208L230.142 66.2293C230.105 66.2459 230.054 66.2716 230.124 66.2279C230.109 66.2361 230.094 66.2457 230.079 66.2551L230.053 66.2785C229.884 66.4381 229.591 66.4591 229.423 66.2826C229.126 66.1824 228.968 65.692 229.315 65.4467ZM223.131 63.9803L223.119 63.9767C222.565 63.8188 222.801 62.9548 223.358 63.1134C223.95 63.2818 224.232 63.8306 224.351 64.3928C224.4 64.6292 224.281 64.8766 224.037 64.9434C223.814 65.0044 223.535 64.8685 223.485 64.6308C223.45 64.4637 223.409 64.3219 223.345 64.1903L223.306 64.1152C223.288 64.0809 223.282 64.0752 223.221 64.022C223.21 64.013 223.164 63.9913 223.131 63.9803ZM232.526 59.4718L232.612 59.452C233.153 59.334 233.87 59.2724 234.196 59.8065C234.494 60.293 233.743 60.7359 233.434 60.276C233.43 60.2758 233.424 60.2759 233.418 60.2764L233.408 60.2775L233.269 60.2664C233.097 60.2651 232.932 60.2956 232.764 60.3351C232.203 60.4677 231.963 59.6047 232.526 59.4718ZM213.127 56.0305C212.718 55.6226 213.353 54.9894 213.762 55.3976C214.086 55.7202 214.398 56.045 214.608 56.4549C214.719 56.67 214.665 56.9405 214.447 57.0673C214.247 57.1842 213.944 57.1227 213.833 56.9067C213.651 56.5515 213.421 56.323 213.127 56.0305ZM218.29 54.9598C218.694 55.1984 218.955 55.5914 219.114 56.0462C219.194 56.2745 219.023 56.5358 218.801 56.5968C218.561 56.6624 218.343 56.5225 218.256 56.3054L218.249 56.2841C218.206 56.1625 218.138 56.0188 218.054 55.9104C217.982 55.8179 217.87 55.7252 217.786 55.6944C217.584 55.6204 217.44 55.4375 217.459 55.224C217.792 55.3387 218.101 55.2007 218.29 54.9598ZM230.388 53.0128C230.796 52.6355 231.343 52.5855 231.837 52.8138C232.057 52.9155 232.112 53.2318 231.998 53.4263C231.866 53.6513 231.605 53.6889 231.384 53.5868C231.441 53.613 231.339 53.5784 231.294 53.5658C231.289 53.5684 231.215 53.5651 231.189 53.5654L231.158 53.5674C231.158 53.5676 231.166 53.5674 231.181 53.5669C231.159 53.5718 231.138 53.5776 231.117 53.5842L231.09 53.5935C231.104 53.5907 231.043 53.6301 231.026 53.6432L231.023 53.6457C230.6 54.0372 229.964 53.4057 230.388 53.0128Z" fill="black" style="fill:black;fill-opacity:1;"/>
<path fill-rule="evenodd" clip-rule="evenodd" d="M197.811 87.5142C197.426 86.8368 196.277 86.9469 196.101 87.737C195.745 89.3387 197.66 90.8178 199.115 90.8547C200.561 90.8913 202.184 89.6643 201.974 88.1146C201.923 87.7312 201.409 87.7777 201.234 88.0181L201.166 88.1103C200.691 88.7473 200.063 89.4065 199.18 89.2512C198.815 89.187 198.482 88.9592 198.261 88.6659C197.995 88.3119 198.024 87.8893 197.811 87.5142ZM207.005 75.7963C206.809 75.7424 206.611 75.7632 206.438 75.8369C206.05 75.9077 205.726 76.23 205.612 76.5979C205.603 76.6297 205.593 76.6612 205.582 76.6923L205.565 76.7388L205.611 76.6208C205.59 76.737 205.495 76.8591 205.461 76.9757C205.419 77.119 205.409 77.2818 205.423 77.4396C205.3 77.4408 205.177 77.445 205.054 77.4556L204.935 77.4662C204.27 77.5278 203.54 77.6408 203.146 78.2135C202.925 78.5353 203.132 79.1147 203.539 79.1767C204.165 79.2721 204.704 78.9268 205.328 78.8577C205.918 78.7922 206.535 78.8297 207.117 78.9359C208.318 79.1549 209.423 79.6405 210.594 79.9452L210.753 79.9856L210.753 79.9848C210.954 80.0331 211.181 79.755 210.983 79.5923C210.045 78.8239 208.844 78.2012 207.66 77.8219C207.833 77.5486 207.886 77.1885 207.768 76.895C207.75 76.8341 207.727 76.775 207.703 76.716L207.654 76.5948C207.649 76.5376 207.638 76.4811 207.622 76.4257L207.619 76.4088L207.618 76.4098C207.53 76.1243 207.3 75.8773 207.005 75.7963ZM195.036 75.8405C194.779 75.5845 194.419 75.6223 194.151 75.8238L194.115 75.8515C193.863 75.9633 193.654 76.2076 193.517 76.434C193.374 76.6691 193.28 76.9085 193.276 77.1673C192.655 77.1693 192.06 77.3551 191.604 77.8551C191.457 78.0164 191.356 78.2653 191.437 78.484L191.485 78.6142C191.639 79.0273 192.327 79.2652 192.561 78.7793L192.572 78.7556C192.82 78.1787 193.775 78.2392 194.282 78.2982C194.635 78.3395 194.985 78.4271 195.326 78.5252C195.446 78.5598 195.566 78.5973 195.685 78.6356L195.804 78.6741C195.867 78.6946 196.198 78.8738 195.992 78.8314C195.937 78.82 195.895 78.9003 195.952 78.9273C196.197 79.0442 196.459 78.8113 196.442 78.5486C196.414 78.0925 195.688 77.8425 195.338 77.6852L195.317 77.6757C195.183 77.6139 195.043 77.5547 194.898 77.4998C194.979 77.3789 195.047 77.2447 195.103 77.1005C195.156 76.9645 195.191 76.8322 195.21 76.6875C195.23 76.6168 195.23 76.5461 195.21 76.4752L195.208 76.455C195.217 76.4082 195.222 76.3599 195.221 76.3112L195.223 76.2923H195.221C195.215 76.1219 195.147 75.9511 195.036 75.8405ZM199.135 80.6973C198.15 81.001 196.523 81.8283 197.037 83.1051C197.754 84.2778 199.657 83.416 200.578 83.0371C201.407 82.7636 201.838 83.9208 201.037 84.2696C194.42 86.8796 194.444 79.9913 198.895 80.0924C199.385 80.1035 199.401 80.5964 199.135 80.6973ZM207.89 71.7156L207.722 71.6667C206.848 71.4144 205.956 70.9786 205.181 71.6585C204.876 71.9255 204.813 72.4803 205.031 72.8133C205.528 73.5721 206.264 73.4562 207.066 73.5208C207.677 73.5701 208.278 73.7489 208.848 73.9723C209.314 74.1551 209.746 74.4123 210.154 74.6992C210.554 74.9813 210.828 75.4223 211.239 75.6762C211.39 75.7693 211.564 75.6735 211.618 75.5226C211.81 74.9871 211.486 74.3201 211.212 73.8639C210.877 73.3073 210.369 72.8521 209.822 72.5077C209.224 72.1305 208.562 71.9127 207.89 71.7156ZM195.159 71.1395C193.682 71.139 192.261 71.958 191.435 73.1586C191.154 73.5664 191.36 74.1707 191.763 74.4055C192.215 74.6692 192.698 74.4793 192.996 74.1016L193.013 74.0787C193.487 73.4497 194.098 72.9543 194.822 72.6319C195.175 72.4744 195.566 72.3467 195.948 72.282L196.071 72.2609C196.244 72.232 196.445 72.2043 196.601 72.2314C196.685 72.2423 196.762 72.27 196.833 72.3121C196.799 72.3864 196.887 72.4759 196.968 72.4313C197.335 72.2304 197.29 71.8719 196.987 71.5932C196.558 71.199 195.713 71.1396 195.159 71.1395Z" fill="black" style="fill:black;fill-opacity:1;"/>
</g>
<g clip-path="url(#clip3_1_235)">
<path fill-rule="evenodd" clip-rule="evenodd" d="M168.4 123.142C168.027 122.119 168.571 121.1 168.872 120.111C169.944 116.681 171.113 113.25 172.768 110.052C173.394 108.982 172.363 107.669 171.168 107.971C169.123 108.257 167.014 108.029 164.965 107.903C164.216 105.963 162.216 105.159 160.642 104.042C158.855 102.927 157.118 101.646 155.26 100.668C155.157 99.744 154.037 99.5151 153.352 100.176C151.472 99.0055 149.216 99.2229 147.2 98.4561C145.668 95.979 145.554 93.3743 145.148 90.9846C144.971 89.943 145.159 88.9379 144.447 88.0091C142.057 84.6462 132.613 83.1881 129.131 85.1809C127.257 84.0115 127.212 86.1294 126.914 87.4366C126.583 88.0905 126.404 88.8312 126.459 89.6115C124.446 93.8183 119.84 95.7201 115.715 97.2607C115.198 96.7626 114.458 96.8255 113.966 97.2377C110.39 98.0153 106.92 99.3822 103.924 101.516C100.521 102.512 98.124 105.281 96.3908 108.251C96.1998 108.564 96.1548 108.883 96.2106 109.176C90.8807 116.992 88.3369 126.349 87.9795 135.799C84.5521 137.857 89.6086 156.343 90.7858 160.181C90.787 160.18 90.7881 160.18 90.7893 160.179C91.553 161.532 92.4201 165.391 94.3313 165.093C95.6423 166.576 97.7315 166.284 99.5106 166.398C99.2208 167.51 99.3632 168.782 99.7081 169.881C100.116 171.189 102.118 171.233 102.402 169.807C120.118 173.251 138.296 170.503 156.212 171.02C161.392 171.057 166.572 171.217 171.739 171.586C172.467 171.638 173.205 170.894 173.155 170.17C172.044 158.345 171.001 142.789 169.758 131.08C169.464 128.41 169.231 125.71 168.4 123.142Z" fill="white" style="fill:white;fill-opacity:1;"/>
<path fill-rule="evenodd" clip-rule="evenodd" d="M127.206 85.9108C127.257 85.7721 127.464 85.7905 127.468 85.9462C127.55 89.271 126.722 93.3339 124.063 95.5797C122.698 96.7325 120.893 97.2601 119.235 97.8663L119.048 97.9353L116.12 99.0266C115.343 99.3161 114.505 99.7613 113.819 99.3524C114.375 100.73 114.841 102.145 115.517 103.472C116.358 105.124 117.376 106.636 118.621 108.011C123.555 113.458 131.364 115.119 138.371 113.523C141.979 112.701 145.49 111.144 147.952 108.303C149.823 106.144 150.898 103.245 151.151 100.387C151.077 100.398 150.999 100.398 150.92 100.38C150.033 100.187 149.138 99.7116 148.358 99.2453L148.283 99.2003C147.532 98.7482 146.75 98.2302 146.211 97.5279C145.676 96.8304 145.114 94.5552 145.114 94.5552C144.962 93.7001 144.818 91.9966 144.843 91.1323C144.845 91.0508 145.207 91.0026 145.245 91.0874C145.579 91.8212 145.687 93.4334 145.945 94.1971L145.997 94.3496C146.273 95.1471 146.509 96.1181 147.08 96.7628C148.153 97.9735 149.77 98.486 151.214 99.0931C151.318 97.7248 153.503 97.7567 153.475 99.1838C153.473 99.2612 153.47 99.3382 153.467 99.4154C153.64 99.5101 153.805 99.6185 153.96 99.723L154.111 99.8257C154.683 100.215 155.26 100.585 155.869 100.915C157.048 101.554 158.296 102.061 159.504 102.642C160.727 103.229 161.87 103.929 162.937 104.766C163.438 105.159 163.919 105.578 164.375 106.023L164.499 106.145C164.933 106.577 165.497 107.061 165.745 107.629C165.799 107.754 166.072 108.045 166.22 108.055C168.516 108.206 170.806 108.418 173.087 108.737C173.678 108.82 173.911 109.124 173.693 109.616C172.943 111.309 170.006 118.067 169.225 119.88C169.316 121.213 169.193 122.781 169.275 124.114C169.396 126.059 169.553 128.003 169.742 129.942C170.417 136.88 171.441 143.784 172.366 150.691C172.829 154.148 173.251 157.61 173.668 161.073C173.878 162.823 174.057 164.575 174.194 166.332C174.251 167.064 174.303 167.797 174.349 168.53L174.388 169.18C174.443 169.999 174.568 170.78 174.062 171.482C173.832 171.801 173.308 171.98 173.007 171.618C172.627 171.163 172.486 170.824 172.45 170.226C172.422 169.768 172.416 169.309 172.395 168.851C172.35 167.858 172.293 166.866 172.227 165.874C172.094 163.892 171.943 161.91 171.768 159.931C171.155 152.991 169.989 146.104 169.214 139.182C168.823 135.692 168.545 132.195 168.398 128.686C168.325 126.934 168.298 125.181 168.315 123.428C168.322 122.772 168.353 122.12 168.398 121.47C167.236 124.11 166.014 126.726 164.737 129.306L164.434 129.917C163.625 131.548 162.794 133.185 161.821 134.723L161.654 134.985C161.26 135.61 160.722 136.594 160.003 136.791C159.502 136.929 158.891 136.832 158.377 136.822C157.868 136.813 157.358 136.81 156.849 136.79C156.278 136.767 155.734 136.692 155.182 136.543C155.09 136.518 155.004 136.491 154.925 136.457C154.369 137.367 153.424 138.06 152.459 138.464C151.685 138.788 150.874 139.009 150.062 139.215L149.776 139.286C148.905 139.503 147.909 139.607 147.418 140.448L147.304 140.643C146.939 141.263 146.589 141.808 145.985 142.252C145.335 142.731 144.564 143.033 143.797 143.267C143.011 143.507 142.207 143.691 141.409 143.887L141.192 143.941C140.665 144.073 140.133 144.194 139.61 144.338C139.386 144.399 139.159 144.462 138.94 144.537C138.683 144.626 138.497 144.763 138.294 144.913C138.112 145.549 137.335 145.894 136.695 145.85C136.359 145.827 136.058 145.713 135.784 145.546C135.305 145.953 134.778 146.318 134.291 146.696C133.608 147.224 132.922 147.749 132.233 148.269C130.811 149.341 129.378 150.399 127.931 151.436C125.362 153.277 122.737 155.033 120.068 156.724C118.955 157.429 117.834 158.133 116.703 158.82L116.824 158.865L117.063 158.956C117.629 159.167 118.26 159.509 118.37 160.17C118.457 160.694 118.164 161.055 117.647 161.119C117.032 161.195 116.554 160.76 116.171 160.346C116.002 160.163 115.813 159.993 115.651 159.804C115.585 159.728 115.534 159.639 115.49 159.546C114.373 160.204 113.245 160.84 112.098 161.435L111.811 161.583C108.968 163.037 106.201 164.631 103.334 166.044C102.586 166.412 101.674 166.811 100.724 167.083C100.976 168.061 100.972 169.135 100.978 170.127C100.984 171.095 99.4478 171.09 99.4802 170.127L99.4958 169.663C99.5238 168.881 99.5695 168.069 99.7549 167.309C96.9545 167.773 94.1568 166.763 93.6359 166.46C93.061 166.126 92.5391 165.591 92.1048 165.094C91.1754 164.031 90.5304 162.757 89.9582 161.476C88.7325 158.732 87.8641 155.798 87.2292 152.864C84.8886 142.048 85.8954 130.471 89.6965 120.102C90.6462 117.511 91.7674 114.978 93.0522 112.536L93.2117 112.234C94.4938 109.819 95.9188 107.414 97.7289 105.359C99.6142 103.218 101.94 101.554 104.472 100.262C105.708 99.6313 106.979 99.0848 108.279 98.6006C108.488 98.5227 108.698 98.4529 108.909 98.3864C110.263 97.5227 111.907 96.6963 113.551 96.7288C113.663 96.7308 113.753 96.7733 113.821 96.8371C113.9 96.851 113.979 96.8678 114.059 96.891C114.234 96.9418 114.419 97.1339 114.394 97.3312L114.385 97.3969C114.381 97.429 114.375 97.46 114.365 97.4902C114.423 97.4989 114.481 97.5129 114.538 97.5323C116.111 97.0878 117.659 96.4081 119.194 95.8598L119.543 95.7363C120.829 95.2856 122.148 94.8438 123.203 93.9517C124.252 93.0643 125.041 91.9148 125.612 90.6721C126.315 89.1411 126.629 87.4826 127.206 85.9108ZM158.703 166.659C159.014 166.427 159.383 166.696 159.499 166.983C159.882 167.925 159.693 169.388 159.154 170.221C158.595 171.083 157.257 170.743 157.224 169.698C157.191 168.609 157.824 167.314 158.703 166.659ZM161.92 140.658C161.948 140.536 162.138 140.537 162.167 140.658C162.426 141.763 162.42 142.953 162.496 144.086L162.505 144.211C162.596 145.461 162.673 146.713 162.728 147.965C162.835 150.427 162.964 152.889 163.108 155.35C163.179 156.57 163.256 157.789 163.337 159.009C163.593 158.866 163.856 158.741 164.129 158.631C164.538 158.466 164.937 158.447 165.376 158.451C165.911 158.457 166.314 158.927 166.243 159.452C166.166 160.023 165.663 160.268 165.141 160.186C164.563 160.096 163.982 159.955 163.399 159.897C163.464 160.84 163.531 161.783 163.602 162.725C163.697 163.972 163.82 165.218 163.906 166.466C163.914 166.585 163.923 166.704 163.932 166.824C164.281 166.643 164.65 166.55 165.069 166.436L165.178 166.405C165.786 166.231 166.437 165.989 167 166.398C167.378 166.673 167.454 167.126 167.14 167.489C166.665 168.039 165.962 167.933 165.305 167.904L164.952 167.892C164.619 167.878 164.312 167.857 164.005 167.773C164.061 168.586 164.091 169.402 163.991 170.203C163.937 170.636 163.368 170.75 163.217 170.308C162.823 169.154 162.741 167.909 162.597 166.7C162.463 165.571 162.381 164.433 162.293 163.299L162.266 162.959C162.068 160.464 161.909 157.967 161.793 155.467C161.677 152.967 161.607 150.467 161.58 147.965C161.567 146.828 161.586 145.688 161.63 144.552L161.644 144.211C161.696 143.043 161.66 141.803 161.92 140.658ZM109.861 166.843C109.876 166.684 110.004 166.485 110.194 166.51C110.37 166.533 110.55 166.522 110.724 166.551C110.952 166.589 111.136 166.724 111.349 166.809C111.695 166.948 112.072 167.019 112.427 167.132C113.092 167.345 113.455 168.046 113.18 168.7C112.89 169.389 112.161 169.545 111.532 169.256C111.036 169.028 110.666 168.665 110.332 168.244L110.238 168.123C110.094 167.943 109.931 167.741 109.87 167.522C109.812 167.308 109.841 167.061 109.861 166.843ZM142.204 163.608C143.033 163.491 143.741 163.775 144.508 164.042L144.571 164.064C145.351 164.333 146.491 164.52 146.891 165.319C147.132 165.802 146.945 166.442 146.377 166.585C145.477 166.81 144.67 166.152 143.926 165.709L143.887 165.686C143.169 165.265 142.427 164.912 141.969 164.186C141.846 163.992 141.953 163.643 142.204 163.608ZM113.259 97.6419C112.927 97.7163 112.595 97.7821 112.263 97.8454C111 98.5223 109.775 99.2246 108.472 99.8276C107.089 100.467 105.711 101.128 104.398 101.902C101.744 103.466 99.5567 105.5 97.7491 107.992C94.6266 112.297 92.304 117.262 90.6417 122.299C90.2146 123.594 89.8325 124.902 89.4943 126.222C90.0921 125.669 90.7999 125.329 91.5935 125.038C91.9299 124.914 92.3485 125.123 92.519 125.415C92.5957 125.545 92.6389 125.675 92.631 125.828C92.6133 126.167 92.393 126.552 92.0293 126.619C91.1814 126.775 90.3569 127.08 89.5394 127.348C89.4154 127.388 89.3089 127.373 89.2239 127.325C88.4122 130.764 87.9045 134.274 87.7246 137.805C87.5725 140.795 87.6663 143.808 87.9973 146.793C88.2517 146.679 88.5005 146.572 88.7794 146.507C89.1411 146.422 89.4968 146.32 89.8496 146.204C90.8678 145.87 91.3322 147.552 90.2915 147.808C89.9042 147.903 89.5146 147.983 89.12 148.041C88.776 148.091 88.4718 148.069 88.1476 148.016C88.3953 149.878 88.7336 151.727 89.1646 153.55L89.2597 153.949C89.8196 156.277 90.4721 158.627 91.4157 160.827C91.8786 161.906 92.4914 162.931 93.2481 163.831C93.6199 164.273 94.0325 164.652 94.4825 165.012C94.8571 165.311 96.1304 165.96 97.6385 165.96C99.1466 165.96 99.5549 165.817 100.316 165.555C101.82 165.037 103.249 164.21 104.66 163.473L104.806 163.397C105.43 163.074 106.052 162.747 106.672 162.416C106.593 161.784 106.73 161.253 107.06 160.668C107.416 160.037 108.298 160.351 108.364 160.998L108.366 161.022C108.376 161.168 108.4 161.316 108.43 161.464C112.576 159.193 116.633 156.762 120.626 154.229C123.199 152.597 125.743 150.917 128.251 149.187C129.504 148.323 130.747 147.443 131.977 146.545C132.622 146.075 133.263 145.601 133.902 145.123C134.168 144.924 134.429 144.715 134.695 144.515C134.631 144.434 134.567 144.353 134.506 144.273C133.511 142.969 132.865 141.415 132.543 139.812C132.349 138.845 132.255 137.84 132.227 136.854L132.214 136.425C132.194 135.703 132.189 134.947 132.322 134.247C132.141 134.346 131.956 134.444 131.772 134.548C131.11 134.923 130.447 135.298 129.784 135.67C128.455 136.416 127.122 137.153 125.773 137.86C123.362 139.124 120.928 140.325 118.428 141.403L117.211 141.927C115.1 142.836 112.971 143.728 110.776 144.403C109.538 144.784 108.291 145.109 107.035 145.4L107.542 145.995C107.887 146.399 107.893 146.977 107.453 147.317C107.02 147.651 106.44 147.512 106.151 147.069L105.626 146.26C105.514 146.087 105.45 145.925 105.414 145.755C104.835 145.876 104.255 145.992 103.674 146.105L102.574 146.315C101.004 146.618 99.4819 147.218 98.0785 147.986C97.5907 148.253 97.4548 147.735 97.9717 147.373C99.4831 146.316 101.246 145.718 103.065 145.216L103.154 145.191C103.822 145.009 104.488 144.818 105.153 144.62C105.08 144.356 105.037 144.081 105.046 143.779C105.065 143.105 105.124 142.428 105.16 141.754C105.235 140.34 105.331 138.93 105.443 137.519C105.486 136.975 105.535 136.43 105.59 135.885C105.233 135.694 104.926 135.44 104.529 135.315L104.462 135.296C104.036 135.181 104.18 134.633 104.557 134.586C104.9 134.544 105.24 134.563 105.577 134.636C105.629 134.647 105.679 134.66 105.726 134.674C105.788 134.169 105.857 133.666 105.935 133.166C106.141 131.843 106.287 130.45 106.717 129.179C106.749 129.085 106.889 129.051 106.94 129.15C107.566 130.34 107.587 131.8 107.658 133.125L107.667 133.283C107.75 134.729 107.754 136.189 107.728 137.636C107.7 139.128 107.649 140.616 107.582 142.107C107.555 142.707 107.556 143.33 107.454 143.904C111.175 142.694 114.83 141.245 118.334 139.53C120.805 138.321 123.255 137.062 125.677 135.757C126.891 135.103 128.11 134.46 129.323 133.803C129.747 133.573 130.172 133.342 130.596 133.111L131.232 132.764C131.828 132.439 132.325 132.115 133.018 132.093C133.225 132.086 133.41 132.183 133.542 132.329C133.915 132.065 134.346 131.902 134.798 131.906C135.478 130.966 136.169 130.033 136.887 129.121L137.418 128.446C138.337 127.28 139.31 126.097 140.481 125.21C141.004 124.814 141.579 124.517 142.179 124.272C142.038 124.238 141.9 124.168 141.777 124.054C141.204 123.523 141.125 122.536 141.008 121.794C140.888 121.026 140.934 120.337 141.054 119.571C141.1 119.273 141.593 119.211 141.713 119.485C141.967 120.062 142.236 120.614 142.466 121.198L142.535 121.374C142.782 122.03 143.31 122.721 143.275 123.433C143.266 123.628 143.2 123.798 143.099 123.935C143.603 123.768 144.113 123.619 144.616 123.463C146.198 122.974 147.787 122.499 149.4 122.119C149.829 122.018 150.261 121.925 150.694 121.839C150.921 120.761 151.252 119.702 151.642 118.663C151.272 118.474 151.033 118.157 150.715 117.875C150.418 117.61 150.213 117.289 149.959 116.985C149.728 116.709 149.858 116.21 150.273 116.227L150.391 116.231C150.821 116.251 151.238 116.296 151.628 116.497L151.767 116.569C151.958 116.668 152.167 116.781 152.353 116.915C152.596 116.356 152.848 115.802 153.104 115.254L153.435 114.544C154.294 112.699 155.151 110.783 156.23 109.065C156.709 108.301 157.347 107.824 158.263 107.75C159.207 107.674 160.187 107.772 161.132 107.806C162.227 107.845 163.322 107.891 164.416 107.949C164.135 107.655 163.879 107.328 163.598 107.046C163.13 106.578 162.636 106.135 162.117 105.726C161.09 104.915 159.96 104.247 158.787 103.671C157.613 103.096 156.405 102.594 155.303 101.883C154.606 101.434 153.983 100.868 153.414 100.255C153.056 104.118 151.192 107.706 148.391 110.402C145.482 113.202 141.461 114.74 137.529 115.395C133.517 116.062 129.331 115.817 125.493 114.422C123.515 113.703 121.617 112.676 119.925 111.387C119.906 111.499 119.884 111.61 119.84 111.714C119.781 111.854 119.708 111.973 119.626 112.096L119.478 112.312C119.385 112.447 119.29 112.582 119.185 112.708C118.929 113.013 118.566 113.146 118.176 113.145C117.429 113.142 116.863 112.409 117.064 111.684C117.19 111.228 117.461 110.954 117.883 110.776C118.016 110.719 118.152 110.672 118.289 110.625L118.392 110.591C118.53 110.543 118.667 110.498 118.81 110.472C118.008 109.764 117.265 108.995 116.599 108.165C114.511 105.561 112.451 101.914 113.149 98.4555C113.161 98.3961 113.215 98.3588 113.272 98.3493C113.313 98.1066 113.442 97.8718 113.619 97.714C113.5 97.6827 113.38 97.6585 113.259 97.6419ZM134.944 157.433C135.357 157.203 135.785 157.75 135.448 158.088L134.947 158.59C134.481 159.058 134.028 159.531 133.629 160.065L133.532 160.195C132.994 160.928 132.42 161.776 131.539 162.05C130.472 162.381 129.447 161.081 130.065 160.132C130.605 159.303 131.643 158.99 132.539 158.647C133.386 158.322 134.152 157.874 134.944 157.433ZM100.539 153.605C100.782 153.287 101.416 153.454 101.25 153.905C100.711 155.367 100.491 157.361 99.1294 158.332C98.6901 158.646 98 158.502 97.6383 158.14C97.2274 157.729 97.2109 157.15 97.4459 156.648C97.7326 156.036 98.4377 155.593 98.9319 155.127L98.9762 155.084C99.5079 154.568 100.083 154.203 100.539 153.605ZM157.452 155.288C157.885 155.101 159.016 154.737 159.351 155.168C159.366 155.183 159.38 155.201 159.391 155.22C159.473 155.363 159.485 155.564 159.391 155.706C159 156.292 158.594 156.731 158.039 157.148L157.976 157.195C157.372 157.639 156.805 158.161 156.068 158.361C155.048 158.639 154.335 157.361 155.052 156.615C155.629 156.013 156.511 155.701 157.276 155.366L157.452 155.288ZM116.474 146.932C116.304 146.624 116.652 146.245 116.968 146.438C117.869 146.989 118.919 147.403 119.931 147.699C120.34 147.82 120.71 148.235 120.679 148.683L120.675 148.751C120.662 148.909 120.641 149.066 120.54 149.198C120.188 149.659 119.683 149.837 119.145 149.564C117.945 148.956 117.124 148.106 116.474 146.932ZM142.808 145.998C142.786 145.868 142.881 145.768 143.013 145.793C143.774 145.937 144.477 146.305 145.131 146.728C145.482 146.955 145.82 147.204 146.17 147.433C146.602 147.716 146.764 147.95 146.828 148.469C146.87 148.811 146.55 149.124 146.257 149.219C145.458 149.476 144.542 148.63 144.001 148.081L143.976 148.056C143.41 147.478 142.942 146.795 142.808 145.998ZM165.676 145.1C165.503 144.631 166.101 144.242 166.492 144.473C166.861 144.69 167.26 144.869 167.608 145.118C167.927 145.346 168.218 145.617 168.524 145.864L168.676 145.984C169.237 146.436 170.164 147.553 169.361 148.201C168.597 148.817 167.584 148.03 167.071 147.454L167.035 147.413C166.74 147.072 166.376 146.702 166.162 146.303C165.961 145.928 165.824 145.498 165.676 145.1ZM158.14 108.804C157.183 108.99 156.793 110.172 156.39 110.943C155.439 112.761 154.564 114.612 153.685 116.466C153.415 117.036 153.152 117.61 152.886 118.184C152.87 118.229 152.849 118.273 152.824 118.317C152.28 119.489 151.719 120.654 151.064 121.767C151.664 121.655 152.267 121.559 152.872 121.484C152.841 120.914 153.231 120.151 153.424 119.671L153.44 119.631C153.681 119.016 153.933 118.047 154.552 117.728C154.759 117.622 154.979 117.755 154.995 117.983C155.042 118.659 154.381 119.434 154.057 120.008C153.861 120.356 153.671 120.705 153.485 121.058C153.415 121.19 153.357 121.319 153.286 121.436C153.598 121.402 153.91 121.372 154.224 121.35L154.428 121.336C155.589 121.259 156.822 121.237 157.872 121.81C158.845 122.342 159.343 123.476 158.808 124.509C158.142 125.796 156.674 125.966 155.384 126.07C153.773 126.2 152.158 126.435 150.558 126.664C148.903 126.901 147.344 127.511 145.714 127.825C145.562 127.854 145.468 127.656 145.607 127.571C146.893 126.788 148.456 126.357 149.894 125.918L150.01 125.882C150.79 125.643 151.552 125.369 152.359 125.233C153.142 125.101 153.931 124.994 154.721 124.913L154.797 124.906C155.667 124.833 157.886 124.858 157.792 123.57C157.73 122.717 156.345 122.57 155.712 122.56C152.813 122.513 149.892 123.283 147.137 124.108L146.522 124.292C145.393 124.632 144.264 124.981 143.156 125.38C141.902 125.831 140.913 126.534 140 127.497C138.986 128.564 138.005 129.656 136.954 130.687C136.291 131.338 135.62 131.976 134.944 132.61C134.791 132.808 134.669 133.023 134.584 133.302C134.441 133.774 134.474 134.213 134.528 134.698C134.664 135.922 134.694 137.159 134.865 138.379C135.023 139.51 135.244 140.682 135.714 141.73C135.9 142.146 136.141 142.554 136.417 142.918L136.639 143.208C136.736 143.333 136.844 143.471 136.958 143.6C137.125 143.396 137.367 143.263 137.648 143.297C138.245 143.367 138.714 143.35 139.3 143.213C139.753 143.107 140.203 142.982 140.654 142.867C141.54 142.641 142.434 142.435 143.311 142.176L143.462 142.13C144.116 141.93 144.769 141.679 145.313 141.256C145.945 140.766 146.14 140.058 146.608 139.446C147.608 138.14 149.768 138.167 151.231 137.809C152.474 137.505 153.67 137.025 154.53 136.123L154.58 136.069C154.542 135.908 154.604 135.726 154.753 135.643L154.786 135.625C154.844 135.592 154.907 135.579 154.969 135.58C155.049 135.463 155.126 135.342 155.196 135.213C155.253 135.106 155.397 135.185 155.378 135.29C155.367 135.352 155.351 135.413 155.337 135.475C156.17 135.26 157.085 135.301 157.931 135.302L159.029 135.298C159.219 135.296 159.502 135.286 159.527 135.275L159.553 135.263C159.622 135.233 159.524 135.283 159.572 135.219C159.625 135.149 159.677 135.078 159.727 135.007C159.909 134.752 160.082 134.49 160.25 134.225C158.412 134.693 156.507 134.985 154.63 135.228C152.616 135.489 150.575 135.67 148.543 135.672C147.983 135.673 147.988 134.827 148.543 134.805C150.695 134.723 152.835 134.609 154.973 134.334C156.078 134.191 157.178 134.012 158.273 133.802C158.695 133.721 159.117 133.636 159.537 133.545L159.853 133.476C160.05 133.432 160.609 133.369 160.882 133.187C160.935 133.095 160.989 133.003 161.042 132.911C161.016 132.588 160.195 132.631 160.002 132.631C159.457 132.629 158.911 132.634 158.366 132.635C157.274 132.638 156.183 132.629 155.092 132.62C152.911 132.602 150.723 132.526 148.544 132.62C148.015 132.642 147.738 131.794 148.26 131.57C150.568 130.585 153.129 130.371 155.593 130.068C156.889 129.908 158.186 129.724 159.452 129.402L159.765 129.322C160.561 129.118 161.44 128.869 162.11 128.383C161.103 127.976 159.851 128.022 158.807 127.965L158.727 127.96C157.265 127.87 155.801 127.824 154.336 127.822C151.34 127.818 148.342 127.924 145.349 128.066C145.274 128.07 145.258 127.951 145.331 127.935C148.408 127.264 151.535 126.94 154.683 126.89C156.149 126.867 157.616 126.888 159.082 126.953L159.619 126.978C160.868 127.031 162.254 127.046 163.299 127.801C163.459 127.916 163.543 128.062 163.556 128.218C164.958 125.423 166.252 122.569 167.552 119.735C168.562 117.531 169.535 115.308 170.582 113.122L170.921 112.414C171.375 111.47 171.84 110.526 172.357 109.616C170.426 109.358 168.484 109.179 166.541 109.042C164.77 108.916 158.993 108.639 158.14 108.804ZM157.285 139.097C157.506 138.975 157.843 139.074 157.897 139.346C157.938 139.548 158.007 139.773 158.007 139.98C158.007 140.228 157.918 140.497 157.871 140.74C157.762 141.297 157.628 141.751 157.345 142.247C157.167 142.558 156.809 142.769 156.449 142.761C156.164 142.755 155.912 142.678 155.716 142.457C155.482 142.193 155.321 141.804 155.45 141.448C155.786 140.515 156.405 139.586 157.285 139.097ZM110.572 138.166C111.088 137.263 112.309 136.456 113.375 136.536C114.976 136.656 115.303 138.812 113.753 139.327C112.826 139.634 111.552 139.319 110.742 138.812C110.523 138.676 110.443 138.393 110.572 138.166ZM94.1217 135.082C94.0046 134.911 94.1981 134.717 94.3725 134.755C94.7593 134.84 95.1763 134.877 95.5552 134.993C95.9431 135.111 96.3187 135.306 96.703 135.441C97.5082 135.723 98.3681 135.865 99.1473 136.206C99.4588 136.342 99.7038 136.793 99.675 137.126L99.6676 137.203C99.6504 137.369 99.6218 137.513 99.5295 137.663C99.2815 138.069 98.7902 138.278 98.3266 138.153C97.4663 137.922 96.6258 137.328 95.8923 136.835L95.7568 136.745C95.4363 136.533 95.0918 136.313 94.8335 136.041C94.564 135.757 94.3425 135.403 94.1217 135.082ZM123.692 131.797C123.593 131.441 124.036 131.205 124.295 131.446C124.812 131.928 125.352 132.374 125.858 132.868L125.892 132.902C126.255 133.266 126.782 133.968 126.31 134.44C125.706 135.044 124.865 134.147 124.541 133.68C124.13 133.088 123.884 132.49 123.692 131.797ZM163.238 128.848C162.471 129.66 161.29 130.034 160.25 130.343C159.017 130.71 157.747 130.929 156.475 131.109C155.246 131.283 154.027 131.438 152.817 131.638C153.732 131.65 154.647 131.656 155.559 131.673C156.612 131.692 157.664 131.715 158.716 131.745C159.483 131.767 160.382 131.662 161.11 131.947C161.241 131.998 161.364 132.069 161.471 132.156C162.083 131.067 162.67 129.963 163.238 128.848ZM115.951 121.252C116.751 120.997 117.504 120.66 118.352 120.748C118.578 120.771 118.739 120.99 118.616 121.207C118.214 121.915 117.56 122.314 116.917 122.788L116.86 122.83C116.156 123.354 115.4 123.831 114.634 124.261C113.315 125.002 112.133 122.883 113.465 122.261C114.266 121.887 115.108 121.52 115.951 121.252ZM130.357 119.412C131.581 119.493 132.805 119.548 134.031 119.597C135.45 119.655 134.973 121.84 133.787 121.398C132.615 120.961 131.444 120.529 130.261 120.122C129.901 119.997 129.93 119.406 130.334 119.411L130.357 119.412ZM98.9593 115.524C99.2766 115.502 99.5966 115.571 99.9143 115.602L100.252 115.635C100.949 115.704 101.603 115.79 102.268 116.073C103.494 116.597 102.835 118.569 101.604 118.524C100.694 118.49 99.916 118.099 99.1476 117.644C98.4759 117.247 98.0641 116.749 97.6104 116.124C97.4602 115.917 97.6696 115.685 97.8742 115.664C98.2345 115.628 98.5988 115.549 98.9593 115.524ZM160.436 111.496C160.233 112.763 159.73 113.95 158.97 114.984C158.589 115.504 157.919 115.523 157.541 114.984C157.006 114.222 157.336 113.348 157.739 112.615L157.858 112.401C158.039 112.079 158.316 111.61 158.632 111.286L158.638 111.253C158.807 109.926 160.645 110.191 160.436 111.496ZM110.923 103.366C111.228 103.091 111.79 103.174 111.889 103.621C112.028 104.248 112.112 104.954 112.021 105.59C111.972 105.935 111.954 106.322 111.818 106.644C111.673 106.989 111.392 107.255 111.128 107.515C110.601 108.033 109.49 107.862 109.348 107.045L109.33 106.944C109.259 106.558 109.169 106.145 109.274 105.761C109.353 105.472 109.531 105.177 109.677 104.909L109.708 104.852C110.002 104.304 110.461 103.782 110.923 103.366ZM153.82 104.7L153.931 104.701C154.783 104.718 156.34 104.925 156.348 105.978C156.35 106.226 156.166 106.483 155.92 106.541C155.411 106.659 155.082 106.358 154.719 106.054C154.422 105.805 154.076 105.606 153.717 105.463C153.329 105.309 153.354 104.699 153.82 104.7Z" fill="black" style="fill:black;fill-opacity:1;"/>
<path fill-rule="evenodd" clip-rule="evenodd" d="M155.291 63.6622C154.852 60.1516 153.47 56.4242 152.017 53.1514C148.751 46.2316 141.272 45.2789 134.568 43.8522C127.952 42.8886 120.946 42.0186 114.43 43.9411C110.766 44.8388 109.336 49.2034 109.914 52.6476C110.244 54.7939 111.22 56.8251 112.053 58.8142C113.708 62.899 114.758 67.2722 114.76 71.6948C114.646 74.585 114.239 77.8838 117.559 79.108C120.718 80.6796 120.985 84.9401 124.941 87.3574C126.54 90.5987 130.898 90.884 134.034 91.6359C136.016 92.0154 138.02 92.2947 140.03 92.4751C145.85 93.2212 150.506 91.5341 153.553 86.3475C155.592 83.191 157.11 79.5464 156.735 75.7209C156.361 71.6925 155.739 67.6851 155.291 63.6622Z" fill="white" style="fill:white;fill-opacity:1;"/>
<path fill-rule="evenodd" clip-rule="evenodd" d="M134.618 35.4424C134.95 35.0657 135.462 35.1949 135.772 35.4927C135.975 35.5524 136.171 35.641 136.356 35.7583C136.774 35.7046 137.212 35.7046 137.622 35.7197C137.722 35.6639 137.829 35.6142 137.945 35.5716C138.774 35.2683 139.508 35.4223 140.114 35.8284C140.406 35.5522 140.774 35.379 141.245 35.4052C141.665 35.4286 141.964 35.6263 142.22 35.8867C142.476 35.5177 142.89 35.2545 143.405 35.2179C144.125 35.1667 144.817 35.4555 145.39 35.9027C145.725 35.5192 146.18 35.2987 146.688 35.2966C147.022 35.2359 147.375 35.2599 147.693 35.3561C148.156 35.4958 148.562 35.7576 148.885 36.0974C149.397 35.6072 150.023 35.2545 150.746 35.306C151.68 35.3735 152.455 36.061 152.815 36.9072C153.448 37.1608 154.032 37.5224 154.52 38.0379C154.546 38.065 154.571 38.0935 154.597 38.1221C154.86 38.2191 155.108 38.3567 155.326 38.5379C156.016 39.1129 156.17 39.9449 155.942 40.7601C155.974 40.8906 156.001 41.0234 156.026 41.156C156.673 41.2544 157.26 41.6278 157.594 42.2358C158.052 43.0702 157.962 44.1699 157.466 44.9664C157.254 45.3091 156.983 45.5978 156.68 45.8502C157.023 46.6301 156.858 47.5607 156.305 48.1914C156.17 48.4089 156.005 48.6052 155.818 48.7828C156.024 49.5891 155.658 50.421 154.929 50.8518L154.866 51.0081C154.856 51.0341 154.845 51.0599 154.834 51.0855C154.826 51.1187 154.816 51.1508 154.806 51.1832C154.789 51.4693 154.695 51.75 154.508 52.0146C154.125 52.5567 153.65 52.9102 153.399 53.5431L153.374 53.6096C153.266 53.9091 152.916 54.1204 152.619 54.0279C154.271 57.4224 155.137 61.1994 155.732 64.901C156.029 66.7476 156.257 68.6006 156.443 70.4608L156.625 72.3131C156.785 73.9597 156.928 75.6116 156.929 77.2636C156.931 81.0005 155.862 84.5951 153.569 87.5688C151.399 90.3799 148.33 92.4172 144.862 93.2196C141.282 94.0468 137.082 93.7209 133.872 91.827C132.925 91.2701 133.754 89.9307 134.718 90.3788C136.541 91.2274 138.394 91.8579 140.415 91.999C142.385 92.1375 144.36 91.891 146.228 91.2463C149.319 90.1785 151.949 87.9421 153.64 85.157C154.473 83.7844 155.076 82.2948 155.397 80.7207C155.796 78.7589 155.736 76.7312 155.589 74.7443L155.579 74.6089C155.289 70.7806 154.906 66.9288 154.288 63.1387C153.741 59.7872 152.901 56.5035 151.809 53.2925C151.382 52.9161 150.904 52.6047 150.392 52.3681C146.645 52.2115 142.892 52.2573 139.15 52.5159C135.958 52.7379 132.782 53.1135 129.63 53.6608L129.293 53.7202C128.595 53.8445 127.82 53.9156 127.163 54.1966C126.599 54.4384 126.37 54.903 126.228 55.4741C125.87 56.9188 125.816 58.5 125.755 59.9814C125.696 61.4296 125.83 62.8899 125.714 64.3333C125.615 65.541 125.306 66.7771 124.412 67.6507C123.944 68.1081 123.368 68.3581 122.828 68.7054C122.478 68.9295 122.33 69.1605 122.375 69.5753C122.472 70.4832 123.203 71.6269 122.382 72.4043C122.238 72.5406 121.988 72.5584 121.846 72.4043C121.507 72.0359 121.039 71.7549 120.637 71.4574C120.469 71.3342 120.609 71.0948 120.8 71.18C121.051 71.2928 121.307 71.4255 121.568 71.5416C120.99 71.0652 120.168 70.8316 119.483 70.6929C119.139 70.6242 118.776 70.6041 118.417 70.6362C118.152 70.7629 117.88 70.8803 117.609 70.9952C117.264 71.1399 116.916 71.2713 116.565 71.3959C115.349 72.3877 114.768 74.0009 115.022 75.5784C115.16 76.4493 115.562 77.3964 116.319 77.9049C117.216 78.5069 118.417 78.2484 119.386 78.6954C120.294 79.1136 120.846 79.9588 121.259 80.8334L121.432 81.1976C121.815 82.0038 122.21 82.7887 122.734 83.5225C123.341 84.3722 124.084 85.1355 124.894 85.791C125.287 86.1082 125.706 86.3936 126.139 86.6535L126.258 86.7238C126.696 86.9809 127.01 87.2261 127.039 87.7701C127.049 87.9598 126.929 88.1328 126.775 88.2312C126.112 88.6519 125.452 88.1257 124.9 87.7583C124.304 87.3624 123.734 86.9169 123.207 86.431C122.205 85.5089 121.337 84.4138 120.67 83.225C120.162 82.3196 119.873 81.0456 119.07 80.3439C118.579 79.916 117.886 79.9125 117.274 79.8342C116.704 79.7608 116.165 79.6423 115.658 79.3614C113.595 78.2154 113.012 75.4409 113.502 73.2969C113.585 72.9353 113.701 72.5833 113.844 72.2443C113.076 72.3723 112.214 71.5784 112.526 70.7771C112.549 70.7166 112.576 70.6599 112.603 70.6017C112.097 70.2687 111.697 69.7639 111.508 69.1036C111.411 68.7623 111.396 68.4174 111.447 68.0844C111.202 67.9197 111 67.6933 110.869 67.4147C110.462 67.2263 110.1 66.9443 109.885 66.5414C109.586 65.9854 109.624 65.4734 109.852 65.0124C109.82 64.9544 109.789 64.8952 109.759 64.8346C108.924 64.305 108.341 63.3923 108.407 62.3801C108.429 62.0447 108.512 61.7425 108.64 61.47C108.629 61.4356 108.618 61.4 108.609 61.3656C107.91 61.0101 107.332 60.4259 107.126 59.646C106.919 58.8613 107.162 58.0791 107.648 57.477C106.937 56.9569 106.51 56.2304 106.769 55.1316C106.874 54.6849 107.087 54.2783 107.373 53.9357C107.372 53.9252 107.37 53.9145 107.367 53.9037L107.301 53.8521C106.423 53.1594 105.919 52.2766 106.457 51.1909C106.699 50.7027 107.044 50.3624 107.449 50.1384L107.469 50.0744C107.179 49.4522 107.081 48.7613 107.281 48.0347C107.444 47.4363 107.832 46.9598 108.327 46.6435C108.294 46.3755 108.298 46.09 108.352 45.7805C108.441 45.258 108.7 44.8017 109.079 44.4782C109.093 44.4093 109.111 44.3419 109.131 44.2742C109.259 43.8607 109.499 43.4115 109.776 43.0783C110.004 42.8022 110.26 42.7015 110.573 42.6908C110.554 42.4361 110.567 42.1776 110.619 41.9157C110.779 41.1075 111.293 40.3477 112.055 40.0028C112.368 39.8618 112.697 39.8204 113.015 39.8547C113.285 39.2858 113.812 38.8735 114.46 38.7846C114.713 38.749 114.947 38.7513 115.163 38.7834C115.285 38.7264 115.411 38.6755 115.544 38.6292C115.632 38.5984 115.721 38.5699 115.81 38.5416C116.109 38.1695 116.504 37.8719 116.965 37.693C117.497 37.4856 118.038 37.5068 118.518 37.681L118.671 37.649C118.91 37.2342 119.291 36.9131 119.878 36.7673C120.544 36.6025 121.227 36.8325 121.751 37.2509C121.753 37.2509 121.756 37.2509 121.759 37.2496C122.033 36.6369 122.501 36.2102 123.286 36.2399C123.776 36.2588 124.217 36.5019 124.559 36.848C124.748 36.8242 124.938 36.8028 125.128 36.7816C125.33 36.5456 125.554 36.3253 125.801 36.1274C126.207 35.8025 126.734 35.8287 127.032 36.2861C127.097 36.3857 127.158 36.4864 127.218 36.5871L127.492 36.5682C127.814 36.1332 128.254 35.8393 128.856 35.8157C129.408 35.7931 129.801 36.0634 130.101 36.4414C130.345 36.4354 130.59 36.4308 130.835 36.4271C131.121 36.0965 131.457 35.8049 131.841 35.5631C132.135 35.3783 132.568 35.4412 132.807 35.6877C132.967 35.8553 133.117 36.0302 133.256 36.2113C133.615 35.8088 134.1 35.5437 134.618 35.4424ZM117.181 73.0776C117.735 72.7623 118.479 73.1037 119.014 73.3715C119.667 73.6974 120.315 74.1893 120.714 74.8056C121.258 75.6447 119.98 76.3226 119.408 75.57C119.056 75.1066 118.775 74.6397 118.348 74.2343C117.959 73.8622 117.394 73.6133 117.17 73.1226C117.161 73.106 117.164 73.0871 117.181 73.0776ZM117.57 52.7102L117.581 52.6806C117.738 52.2501 117.051 52.0645 116.895 52.4915C116.659 53.1387 116.932 53.8423 117.571 54.1218C117.748 54.1993 117.95 54.1724 118.057 53.9943C118.146 53.8444 118.105 53.5846 117.929 53.5079C117.57 53.3506 117.449 53.073 117.57 52.7102ZM111.654 51.5063C111.998 51.2029 111.494 50.7014 111.152 51.0035C110.832 51.2854 110.596 51.6682 110.657 52.1085C110.72 52.5572 111.058 52.874 111.428 53.0978C111.821 53.3352 112.178 52.7206 111.787 52.4838L111.743 52.4569C111.579 52.3548 111.387 52.2145 111.359 52.0138C111.329 51.8004 111.51 51.6339 111.654 51.5063ZM113.606 46.1526L113.63 46.1347C113.999 45.8711 113.645 45.2541 113.271 45.5207C112.929 45.7652 112.654 46.0828 112.626 46.5208C112.597 46.9465 112.814 47.3156 113.097 47.6151C113.412 47.9483 113.914 47.4448 113.6 47.1123C113.293 46.7883 113.234 46.4348 113.606 46.1526Z" fill="black" style="fill:black;fill-opacity:1;"/>
<path fill-rule="evenodd" clip-rule="evenodd" d="M147.313 81.0542C147.395 81.0319 147.468 81.1424 147.4 81.2029C147.121 81.4504 146.944 81.9117 146.74 82.2261C146.547 82.5253 146.36 82.8213 146.19 83.1345C145.999 83.4854 145.815 83.835 145.666 84.2063L145.637 84.2812C145.681 84.3871 145.716 84.4917 145.741 84.5602L145.749 84.5797C146.003 85.2279 145.47 85.9484 144.869 86.1296C143.842 86.4395 142.96 85.5953 142.935 84.5914C142.916 83.8016 143.451 83.0978 143.995 82.5758C144.471 82.1191 145.003 81.7304 145.599 81.4456C145.862 81.3201 146.135 81.2151 146.421 81.1541C146.712 81.0919 147.027 81.1315 147.313 81.0542ZM145.377 83.9164C145.452 83.952 145.516 84.0389 145.571 84.1403C145.544 84.0543 145.488 83.9687 145.377 83.9164ZM146.02 72.9425C146.914 73.4865 148.277 74.755 147.315 76.1037C146.182 77.2928 144.551 75.9294 143.747 75.3127C143.002 74.8348 142.165 76.0639 142.856 76.622C148.664 80.9236 151.021 73.0848 146.472 72.3029C145.971 72.2167 145.785 72.7742 146.02 72.9425ZM138.666 67.7189L138.824 67.7056C139.509 67.6452 140.204 67.553 140.88 67.7082C141.788 67.9168 141.721 69.2387 140.88 69.4818C140.138 69.696 139.316 69.6033 138.55 69.6107C138.429 69.6118 138.309 69.6149 138.189 69.6169C138.165 69.9034 138.071 70.1504 137.927 70.3971C137.824 70.5742 137.693 70.7424 137.563 70.8996C137.256 71.2735 136.53 71.265 136.22 70.8996C135.99 70.6292 135.808 70.3181 135.805 69.952C135.804 69.8582 135.815 69.7587 135.838 69.6608L135.42 69.6681C134.397 69.6837 133.366 69.6768 132.361 69.5142C132.004 69.5881 131.712 68.9432 132.205 68.7501C133.546 68.2255 135.044 68.0711 136.466 67.9136C137.197 67.8325 137.932 67.7767 138.666 67.7189ZM150.088 67.1768L150.124 67.1732C151.011 67.0823 151.989 66.9249 152.878 67.0154C154.206 67.1504 154.203 68.9455 152.878 69.0798C152.392 69.1291 151.879 69.1051 151.368 69.0579C151.63 69.6124 151.32 70.2745 150.69 70.3592C150.105 70.4378 149.499 69.8691 149.691 69.2592L149.7 69.2323C149.737 69.1265 149.771 69.0082 149.811 68.8914L149.599 68.8736C148.967 68.8176 148.088 68.7033 147.855 68.2036C147.785 68.0529 147.801 67.9131 147.91 67.7844C148.353 67.2562 149.446 67.2388 150.088 67.1768ZM140.653 63.0668C141.295 62.8335 141.962 63.3796 142.046 63.9951C142.142 64.7043 141.63 65.1713 140.982 65.256L140.95 65.2599C139.519 65.4175 138.099 65.7058 136.667 65.8687C136.016 65.9426 135.36 65.9913 134.705 66.0088L134.237 66.0193C133.664 66.0338 133.049 66.0469 132.519 65.8493L132.521 65.8457C132.38 65.805 132.316 65.602 132.472 65.4911C133.036 65.0923 133.796 64.9416 134.452 64.752C135.112 64.5613 135.777 64.3856 136.443 64.2205C137.843 63.8742 139.297 63.5596 140.653 63.0668ZM146.575 63.2326C146.745 62.3353 148.016 62.2391 148.483 62.892C148.784 62.9956 149.227 63.1037 149.501 63.185C149.978 63.3266 150.456 63.4674 150.935 63.6038C151.926 63.8864 152.894 64.2445 153.869 64.5784C153.969 64.6129 153.942 64.7404 153.845 64.7531C152.484 64.9302 151.147 65.0127 149.778 64.9559L149.497 64.9432C148.291 64.8962 146.243 64.9859 146.575 63.2326Z" fill="black" style="fill:black;fill-opacity:1;"/>
<path fill-rule="evenodd" clip-rule="evenodd" d="M148.529 86.2096C147.426 85.2263 146.189 83.2494 144.604 84.8136C144.212 85.2555 144.053 86.2463 143.454 86.4407C142.657 86.6991 141.868 85.8564 141.597 85.2093C140.487 81.6138 145.076 80.6277 147.69 81.2085C148.967 81.7332 149.908 83.8452 149.965 84.9474C150.001 85.6881 149.375 86.7773 148.529 86.2096ZM156.853 80.6678C156.842 80.62 156.827 80.5769 156.809 80.5376C156.321 80.3531 155.935 80.5413 155.696 80.8928C155.704 80.9802 155.73 81.0687 155.746 81.1554C155.562 81.5434 155.396 82.0235 155.147 82.3588C155.097 82.3626 155.046 82.3574 154.997 82.3431C150.861 82.7753 152.88 78.4459 148.685 77.3706C145.442 76.8354 139.581 77.4485 138.051 80.8252C136.845 86.2187 130.71 82.4605 128.696 79.6555C126.547 77.1028 125.157 73.9834 123.817 70.9564C123.534 70.3158 122.65 70.7739 122.746 71.3886C121.508 73.874 121.549 76.8594 121.242 79.5823C120.72 85.0145 120.212 92.6326 125.257 95.9496C131.831 103.383 148.246 106.006 155.828 99.176C158.453 93.531 158.129 86.6443 156.853 80.6678Z" fill="black" style="fill:black;fill-opacity:1;"/>
</g>
</g>
<rect x="0.708333" y="0.708333" width="264.208" height="168.583" rx="10.625" stroke="#18191F" style="stroke:#18191F;stroke:color(display-p3 0.0941 0.0980 0.1216);stroke-opacity:1;" stroke-width="1.41667"/>
<defs>
<clipPath id="clip0_1_235">
<rect width="265.625" height="170" rx="11.3333" fill="white" style="fill:white;fill-opacity:1;"/>
</clipPath>
<clipPath id="clip1_1_235">
<rect width="127.5" height="137.655" fill="white" style="fill:white;fill-opacity:1;" transform="translate(-12.75 32.5833)"/>
</clipPath>
<clipPath id="clip2_1_235">
<rect width="127.5" height="137.655" fill="white" style="fill:white;fill-opacity:1;" transform="matrix(-1 0 0 1 277.333 32.5833)"/>
</clipPath>
<clipPath id="clip3_1_235">
<rect width="134.583" height="145.799" fill="white" style="fill:white;fill-opacity:1;" transform="translate(62.875 24.7917)"/>
</clipPath>
</defs>
</svg>
