<svg width="541" height="347" viewBox="0 0 541 347" fill="none" xmlns="http://www.w3.org/2000/svg">
<g clip-path="url(#clip0_15_1235)">
<rect width="540.95" height="346.208" rx="23.0805" fill="#00C6AE" style="fill:#00C6AE;fill:color(display-p3 0.0000 0.7765 0.6824);fill-opacity:1;"/>
<g clip-path="url(#clip1_15_1235)">
<path fill-rule="evenodd" clip-rule="evenodd" d="M182.621 331.904C182.066 326.769 181.725 321.599 181.528 316.439C181.333 311.284 181.589 306.067 181.701 300.911C181.93 290.421 182.303 279.907 181.465 269.434C180.674 259.536 178.856 249.707 175.989 240.197C174.592 235.565 173.12 230.747 170.823 226.467C168.514 222.164 164.855 219.299 160.836 216.671C156.558 213.874 152.313 211.023 148.051 208.199C144.474 205.829 138.036 203.071 135.1 199.902C132.012 196.568 131.431 188.303 129.374 184.353C127.371 180.506 121.701 177.997 117.335 177.997C110.108 177.997 104.632 177.629 98.6898 184.293C95.7251 187.619 98.084 190.981 94.9763 194.172C92.1192 197.107 84.8124 200.123 81.1299 201.825C76.7194 203.865 72.1976 205.665 67.6102 207.269C62.9307 208.905 58.1332 210.125 53.4274 211.669C48.9168 213.149 43.0269 219.249 39.5252 222.477C36.2697 225.479 35.4617 225.142 32.9868 228.788C27.555 236.789 22.1173 244.882 17.7919 253.545C15.6374 257.861 13.5512 262.4 12.7695 267.192C11.9357 272.303 12.7624 277.243 14.1146 282.192C15.4911 287.228 19.862 292.023 21.286 297.047C21.9422 299.362 19.6897 301.889 20.7258 304.07C21.2433 305.16 21.8949 306.13 22.6369 307.079C23.2085 307.811 25.4379 307.649 25.7263 308.544C26.0177 309.448 24.4049 311.325 24.3809 312.261C24.3468 313.6 24.2933 314.939 24.2492 316.278L23.9886 324.196C23.8174 329.399 23.6462 334.602 23.475 339.805C23.419 341.504 23.3374 343.163 23.7459 344.775C23.5985 344.639 23.4584 344.49 23.3304 344.324C22.9557 343.836 22.1612 344.249 22.4792 344.82C23.0099 345.772 23.7731 346.442 24.6698 346.923C25.7118 348.454 183.522 351.875 184.299 347.398C184.735 344.885 183.942 342.195 183.625 339.699C183.295 337.099 182.902 334.511 182.621 331.904Z" fill="white" style="fill:white;fill-opacity:1;"/>
<path fill-rule="evenodd" clip-rule="evenodd" d="M22.315 267.201C22.7011 266.099 24.467 266.576 24.0782 267.685C22.0796 273.393 23.4974 279.604 25.6581 285.052C26.0917 286.146 24.3226 286.615 23.8949 285.537C21.622 279.806 20.2159 273.195 22.315 267.201ZM35.7161 299.802C41.3526 300.593 46.9938 301.081 52.6692 301.475C52.9229 301.493 53.1423 301.455 53.332 301.372C53.1629 303.963 53.0257 306.557 52.9183 309.15C51.3709 309.107 49.7915 309.209 48.2578 309.168C46.2532 309.113 44.2509 309.013 42.2509 308.861C38.3789 308.569 34.5138 308.104 30.6853 307.461C29.2544 307.222 27.4373 307.076 25.8076 306.602C24.267 306.154 22.8956 305.41 22.1756 304.011C21.563 302.826 21.451 301.375 21.451 300.065C21.451 299.162 21.6064 298.246 21.7001 297.337C21.8167 297.255 21.9219 297.157 22.0064 297.047C23.707 297.583 25.4716 297.959 27.1996 298.323C30.0133 298.92 32.8681 299.404 35.7161 299.802ZM32.5369 278.732C32.568 280.473 33.0514 282.056 33.992 283.522C34.6283 284.514 33.045 285.427 32.413 284.442C31.3058 282.715 30.7449 280.777 30.7084 278.732C30.6873 277.556 32.5159 277.56 32.5369 278.732ZM177.023 297.733C177.786 297.775 178.554 297.801 179.319 297.842C179.995 298.418 180.929 298.713 181.783 298.529C181.813 298.603 181.839 298.686 181.864 298.781C182.015 299.367 182.09 299.996 182.177 300.593C182.264 301.181 182.33 301.773 182.376 302.366C182.399 302.664 182.543 303.339 182.36 303.599C182.195 303.833 181.832 303.813 181.58 303.842C180.904 303.915 180.218 303.95 179.537 304.007C178.25 304.118 176.963 304.23 175.679 304.341C174.419 304.451 173.036 304.417 171.804 304.747C171.594 302.284 171.402 299.82 171.224 297.354C173.132 297.635 175.128 297.628 177.023 297.733ZM16.996 293.647C17.764 295.126 18.4726 296.58 19.9423 297.469C20.1343 297.583 20.3492 297.644 20.5686 297.66C20.404 298.364 20.3012 299.084 20.2097 299.75C20.0086 301.215 19.9652 302.73 20.3332 304.175C20.692 305.581 21.2863 306.837 22.452 307.737C22.9937 308.156 23.5857 308.475 24.2074 308.728C24.1023 309.022 24.0406 309.314 24.0726 309.635C23.924 310.38 23.8257 311.139 23.7183 311.866C23.4829 313.48 23.2474 315.095 23.0623 316.718C22.692 319.945 22.4017 323.171 22.1572 326.41C21.9126 329.639 21.7366 332.873 21.5903 336.108C21.5149 337.763 21.4486 339.417 21.3869 341.074C21.3252 342.776 21.0486 344.517 21.8029 346.097C22.4109 347.373 24.4657 347.3 25.0966 346.097C25.8966 344.567 25.6611 342.751 25.6817 341.074C25.7023 339.495 25.7297 337.913 25.764 336.334C25.8326 333.1 25.9331 329.869 26.0131 326.635C26.0909 323.479 26.1869 320.325 26.2509 317.169C26.2829 315.517 26.2851 313.865 26.2943 312.213C26.2989 311.296 26.3377 310.319 26.2691 309.364C26.8406 309.498 27.4166 309.612 27.9857 309.729C32.3308 310.617 36.7217 311.265 41.1399 311.666C43.3594 311.866 45.5856 312.007 47.8119 312.087C49.4485 312.146 51.1445 312.26 52.8062 312.199C52.6759 316.155 52.6165 320.113 52.6233 324.072C52.6279 326.927 52.6668 329.782 52.7376 332.638C52.7765 334.139 52.8085 335.641 52.8542 337.143C52.8748 337.818 52.8748 338.499 52.9205 339.171C52.9342 339.381 52.9639 339.584 53.0028 339.784C52.8519 340.21 52.7262 340.632 52.6233 341.026C52.1205 342.94 52.1205 344.779 52.3445 346.73C52.5365 348.384 53.933 349.918 55.7776 349.337C56.077 349.243 56.3765 349.145 56.6736 349.045C59.389 349.353 62.1204 349.424 64.8747 349.476C68.8998 349.553 72.9273 349.578 76.9547 349.599C84.8541 349.64 92.7558 349.661 100.657 349.683C116.536 349.729 132.415 349.772 148.294 349.818C152.701 349.831 157.108 349.843 161.514 349.857C163.795 349.863 166.072 349.865 168.351 349.952C169.414 349.993 170.479 350.05 171.542 350.066C172.774 350.087 173.864 349.733 175.041 349.412C175.706 349.227 175.969 348.562 175.827 347.999C176.893 348.252 178.184 347.714 178.547 346.518C178.813 345.65 178.714 344.708 178.319 343.904V343.902C177.555 339.096 176.586 334.313 175.825 329.504C174.991 324.238 174.189 318.96 173.482 313.673C172.952 309.681 172.515 312.511 172.138 308.5C173.782 308.628 175.64 308.129 177.267 307.917C178.435 307.767 179.613 307.646 180.783 307.486C180.696 308.662 180.721 309.861 180.689 310.989C180.627 313.229 180.655 315.46 180.712 317.7C180.822 322.023 181.066 319.507 181.457 323.812C181.853 328.148 182.337 332.469 182.925 336.785C183.226 339.007 183.549 341.226 183.889 343.444C184.047 344.478 184.209 345.511 184.376 346.545C184.575 347.764 184.639 348.92 185.555 349.836C186.253 350.531 187.677 350.472 188.138 349.503C188.723 348.279 188.458 347.231 188.241 345.946C188.065 344.914 187.896 343.881 187.729 342.849C187.373 340.636 187.034 338.421 186.717 336.204C186.104 331.931 185.526 327.652 185.009 323.368C184.488 319.049 183.949 321.572 183.437 317.254C183.178 315.075 182.92 312.901 182.618 310.729C182.465 309.612 182.369 308.423 182.168 307.272C182.232 307.263 182.296 307.252 182.36 307.24C183.75 306.987 184.936 306.206 185.286 304.779C185.619 303.414 185.222 301.844 184.941 300.504C184.701 299.363 184.484 297.906 183.747 296.928C186.343 293.631 188.032 289.482 189.109 285.493C190.283 281.147 190.774 276.61 190.878 272.119C190.999 266.916 190.605 261.743 189.711 256.656C189.69 255.578 189.64 254.5 189.56 253.424C188.774 242.859 185.473 230.355 175.009 225.419C174.968 225.399 174.925 225.38 174.881 225.362C174.061 224.385 173.037 223.505 172.209 222.683C170.744 221.224 169.213 219.829 167.59 218.544C164.376 215.999 160.852 213.966 157.188 212.136C153.482 210.283 149.722 208.545 146.102 206.523C142.948 204.759 140.109 202.636 137.414 200.238C134.385 197.542 132.23 193.908 131.384 189.94C131.341 189.733 131.032 189.79 131.028 189.988C130.806 197.26 135.729 203.686 141.396 207.752C148.17 212.608 156.351 214.907 163.222 219.615C164.929 220.784 166.527 222.104 168.047 223.505C165.718 223.268 163.348 223.418 161.165 224.061C160.305 224.009 159.441 223.993 158.58 223.952C156.609 223.854 154.637 223.763 152.664 223.676C148.644 223.498 144.621 223.337 140.598 223.195C132.705 222.917 124.81 222.707 116.916 222.569C101.051 222.288 85.1649 222.233 69.3021 222.692C65.0004 222.815 42.3811 221.96 40.2874 222.202C43.3662 219.544 46.7445 217.375 50.4588 215.591C55.1056 213.364 59.9079 211.878 64.8701 210.52C75.0895 207.724 85.7021 205.028 93.8803 197.925C95.9123 196.159 97.718 194.129 99.1969 191.88C100.609 189.733 102.18 186.985 102.219 184.366C102.246 182.507 99.6494 181.83 98.726 183.423C98.1523 184.41 97.8689 185.492 97.4003 186.527C96.934 187.552 96.3809 188.541 95.766 189.487C94.5569 191.347 93.0575 193.005 91.4255 194.503C87.9466 197.697 83.7318 200.038 79.3707 201.808C69.469 205.826 58.6393 207.521 49.2565 212.818C45.1514 215.135 41.2222 218.332 38.756 222.411C38.3582 222.473 37.9628 222.546 37.5674 222.628C37.8622 222.256 38.1594 221.885 38.4588 221.516C38.6554 221.274 38.3514 220.955 38.1114 221.169C33.4463 225.308 29.1491 229.776 25.2543 234.648C21.5286 239.311 18.0543 244.197 15.5949 249.657C11.1743 259.465 10.2006 270.683 12.4841 281.171C13.1058 284.028 13.9835 286.827 15.1012 289.531C15.6772 290.928 16.3012 292.305 16.996 293.647Z" fill="black" style="fill:black;fill-opacity:1;"/>
<path fill-rule="evenodd" clip-rule="evenodd" d="M117.708 89.0938C130.687 89.0938 146.942 103.854 151.699 110.135C155.699 115.416 155.133 142.62 155.133 158.758C155.133 162.133 153.603 168.521 153.047 171.75C151.012 183.58 142.142 193.502 124.589 193.502C110.295 193.502 99.2961 188.988 88.6595 177.444C86.2329 174.811 74.3819 184.239 71.9582 180.844C65.6275 180.844 60.3341 121.873 72.7634 104.185C85.1928 86.4973 104.73 89.0938 117.708 89.0938Z" fill="white" style="fill:white;fill-opacity:1;"/>
<path fill-rule="evenodd" clip-rule="evenodd" d="M78.7011 93.2475C86.2005 86.4453 96.1913 83.1729 106.271 83.4144C111.492 83.5398 116.694 84.5311 121.624 86.2288C124.091 87.081 126.479 88.1931 128.763 89.451C129.585 89.9033 130.344 90.4332 131.074 90.996L131.256 91.1373H131.259C133.217 91.8392 134.966 93.0994 136.552 94.5738C139.732 94.3209 142.936 94.6057 146.011 95.5833C150.289 96.946 154.25 99.4414 157.032 102.985C160.272 107.11 161.35 112.114 160.965 117.28L160.894 118.158C160.514 122.721 159.833 128.59 156.077 131.589C155.791 131.817 155.476 131.99 155.149 132.095C157.569 136.228 159.556 140.818 160.744 145.453C165.281 163.157 161.793 181.62 156.337 198.684C155.889 200.09 153.757 201.024 152.671 199.65C150.733 197.193 147.917 195.32 144.749 194.969C142.795 194.753 140.849 195.145 139.003 194.261C138.278 193.912 137.579 193.342 137.076 192.65C133.958 193.828 130.6 194.384 127.27 194.247C121.805 194.024 115.963 192.137 112.203 187.998C111.599 187.334 111.446 186.588 111.585 185.916C112.057 185.748 112.541 185.623 113.04 185.545C117.808 188.347 123.063 190.219 128.712 190.337C131.976 190.404 135.159 189.949 137.806 187.918C138.378 187.478 138.905 186.991 139.392 186.468C144.925 182.919 148.826 176.892 150.68 170.436C152.408 164.415 152.196 158.146 151.601 151.97L151.288 148.712C150.831 143.928 150.407 139.131 150.288 134.328L150.324 134.326C151.492 134.251 151.501 132.427 150.324 132.503C147.28 132.699 144.258 132.201 141.223 132.418C141.198 130.988 141.095 129.564 140.673 128.184C140.432 127.396 139.056 127.241 138.91 128.184C138.715 129.447 138.643 130.702 138.622 131.97C134.08 131.91 129.542 131.529 125 131.686C124.162 130.795 123.895 129.215 123.503 128.116C123.446 127.954 123.389 127.794 123.329 127.633C122.985 129.203 122.497 130.739 121.854 132.243L120.74 132.247C114.419 132.276 107.97 132.465 101.797 133.774C101.368 133.445 101.113 132.872 101.044 132.352C100.596 128.967 99.9571 125.671 98.8246 122.445L98.6626 121.99C98.6494 121.952 98.6354 121.912 98.6208 121.87C97.7862 123.213 96.7906 124.465 95.7047 125.63C95.0647 126.317 94.3936 126.974 93.7049 127.613C93.0359 128.353 92.3444 129.083 91.6743 129.826C91.7006 129.961 91.7234 130.098 91.7419 130.238C91.947 131.779 91.9682 133.343 91.818 134.89C91.5465 137.688 90.7543 140.384 89.4816 142.878L89.4413 143.127C89.2481 144.296 88.9731 145.504 88.331 146.384C89.1323 147.279 89.7497 148.348 90.1077 149.536C90.4263 150.594 88.9586 151.511 88.1975 150.645C87.5929 149.957 86.9212 149.388 86.1833 148.935C86.1367 148.998 86.0526 149.029 85.9582 148.976C83.9033 147.839 80.4131 148.183 78.3605 149.254C75.8074 150.585 74.8108 153.317 75.0942 156.086C75.3662 158.732 76.5274 161.824 78.7788 163.18C79.8119 163.802 80.6165 163.854 81.7136 163.556C82.0644 163.461 82.4993 163.17 82.686 163.025L82.8697 162.878C83.589 162.311 84.2588 161.923 85.1079 161.908C85.9763 161.638 86.849 162.013 87.1811 162.921L87.2016 162.979C87.357 163.442 87.6405 164.023 87.5787 164.729C87.5147 165.486 87.1673 166.174 86.6485 166.728C86.5593 166.824 86.4633 166.919 86.365 167.008C95.3021 176.655 96.4496 191.686 91.8667 203.736C91.6679 204.265 91.4553 204.787 91.2336 205.304C90.4679 207.077 87.5193 206.528 87.1445 204.771C87.0325 204.244 86.909 203.72 86.7742 203.2C86.5263 202.24 86.2423 201.289 85.9222 200.352L85.8005 200.001C85.5285 199.226 85.2748 198.445 85.0005 197.67L84.973 197.581C84.9628 197.546 84.9513 197.506 84.9388 197.46L84.4748 198.47L83.0645 201.516C82.4046 202.938 80.3078 202.165 80.2298 200.795L80.2279 200.748C80.2211 200.496 80.2119 200.245 80.1959 199.996C80.0953 198.135 79.7731 196.325 79.2611 194.555L79.0763 194.783C76.3257 198.174 73.0976 201.352 68.6691 202.134C67.5583 202.33 66.3011 201.172 67.0645 200.053C67.38 199.591 67.684 199.117 67.972 198.636C67.7228 198.52 67.4874 198.399 67.2703 198.276C65.5903 197.335 64.1914 195.995 63.0348 194.475C60.5823 191.253 59.7046 187.196 59.4897 183.227C59.2611 179.031 59.6314 174.608 60.7811 170.561C61.2794 168.811 61.9537 167.131 62.7331 165.502C62.6783 165.356 62.6257 165.21 62.5731 165.064C61.732 162.726 61.0417 160.336 60.468 157.918C59.3114 153.037 58.6897 148.001 58.6143 142.985C58.4772 134 60.0314 124.871 63.3068 116.491C66.6897 107.85 71.7777 99.5257 78.7011 93.2475ZM74.4888 171.808C73.8677 170.832 72.3134 171.711 72.8902 172.693L72.9117 172.728C73.8968 174.276 74.3586 176.035 74.9254 177.76C75.2888 178.87 77.0557 178.396 76.6877 177.274L76.5659 176.9C76.0018 175.151 75.4872 173.373 74.4888 171.808ZM79.8985 153.194L80.3112 152.995C81.613 152.375 82.7536 151.954 84.2917 152.494C86.3511 153.217 88.5568 155.516 87.1648 157.747C86.6528 158.57 85.7431 158.898 84.806 158.704C83.2261 158.377 82.8184 156.959 82.0166 155.795L81.8787 155.597C81.3899 154.893 80.7718 153.919 79.958 153.643C79.7728 153.579 79.6951 153.292 79.8985 153.194ZM81.0599 105.827L81.1928 105.708C82.0774 104.929 80.7791 103.644 79.8991 104.418C75.8717 107.966 74.4728 113.52 72.3837 118.253C71.9151 119.317 73.49 120.247 73.9631 119.174C75.956 114.657 77.2787 109.254 81.0599 105.827ZM129.458 104.275C128.405 103.802 127.485 105.329 128.496 105.831L128.534 105.849C132.091 107.451 133.604 111.079 135.053 114.447C135.515 115.523 137.09 114.595 136.632 113.529L136.371 112.925C134.859 109.454 133.095 105.916 129.458 104.275ZM135.032 102.083C133.916 101.697 133.439 103.457 134.545 103.842C137.56 104.888 139.628 107.144 141.372 109.723C142.026 110.69 143.61 109.778 142.95 108.803C140.924 105.808 138.52 103.295 135.032 102.083Z" fill="black" style="fill:black;fill-opacity:1;"/>
<path fill-rule="evenodd" clip-rule="evenodd" d="M128.91 177.501C127.374 176.876 126.003 175.833 125 174.502C124.652 174.039 124.561 173.55 124.635 173.103C124.717 172.6 125.015 172.145 125.422 171.839C125.83 171.532 126.341 171.381 126.834 171.458C127.263 171.525 127.69 171.759 128.028 172.245L128.098 172.342C128.694 173.146 129.471 173.805 130.356 174.23C131.208 174.64 132.162 174.831 133.149 174.72C135.029 174.508 136.324 173.495 137.701 172.118C137.872 171.945 138.043 171.765 138.215 171.583C138.323 171.418 138.473 171.312 138.64 171.256C138.826 171.195 139.036 171.198 139.228 171.265C139.413 171.329 139.579 171.452 139.69 171.614C139.795 171.769 139.855 171.96 139.836 172.179C139.71 173.606 138.962 174.879 137.899 175.878C136.719 176.988 135.155 177.756 133.682 178.026C132.06 178.322 130.407 178.11 128.91 177.501ZM134.448 155.497C136.174 156.543 138.804 158.982 136.947 161.575C134.761 163.862 131.615 161.24 130.064 160.054C128.626 159.135 127.01 161.499 128.344 162.572C139.55 170.843 144.097 155.77 135.321 154.267C134.355 154.101 133.996 155.173 134.448 155.497ZM114.368 145.875C114.558 143.515 118.164 142.979 118.522 145.315C118.843 147.407 118.465 149.328 117.52 151.212C116.617 153.011 114.347 152.172 114.176 150.533C113.946 148.337 114.249 147.343 114.368 145.875ZM141.811 144.831C142.313 144.174 143.039 143.726 143.909 143.979C146.625 144.771 145.824 148.616 144.87 150.488C144.352 151.504 142.676 151.762 141.919 150.867C140.685 149.407 140.094 146.493 141.663 145.056C141.705 144.981 141.753 144.906 141.811 144.831ZM117.482 135.549L117.911 135.474C119.238 135.245 120.889 135.025 121.828 136.089C122.326 136.654 122.498 137.702 121.828 138.242C120.651 139.193 119.349 138.824 117.937 138.905C116.774 138.971 115.657 139.163 114.537 139.482C112.079 140.183 110.076 141.461 107.977 142.865C107.702 143.049 107.421 142.698 107.552 142.441C108.764 140.075 111.112 138.131 113.464 136.947C114.719 136.314 116.093 135.79 117.482 135.549ZM139.334 134.489L139.663 134.556C143.237 135.301 147.881 136.789 149.573 140.289C149.638 140.784 149.57 140.89 149.514 140.959L149.496 140.982C149.45 141.041 149.414 141.123 149.199 141.19C149.139 141.176 149.079 141.161 149.018 141.145C148.242 140.943 147.628 140.663 147.034 140.373L146.389 140.057C145.642 139.692 144.888 139.339 144.088 139.079C142.383 138.525 140.628 138.134 138.847 137.925C138.461 137.88 138.089 137.75 137.796 137.528C137.517 137.316 137.304 137.024 137.207 136.635C137.082 136.131 137.118 135.75 137.389 135.296C137.592 134.955 137.884 134.719 138.219 134.583C138.56 134.444 138.948 134.412 139.334 134.489Z" fill="black" style="fill:black;fill-opacity:1;"/>
<path fill-rule="evenodd" clip-rule="evenodd" d="M153.722 157.536C152.183 159.597 149.33 160.254 146.698 160.027C141.023 159.482 139.236 153.056 139.05 148.061C142.856 149.128 138.728 141.569 151.738 140.737C156.325 140.356 155.06 143.118 157.087 145.135C157.045 149.37 156.338 153.971 153.722 157.536ZM126.689 152.671C123.338 168.315 104.989 164.594 103.061 150.491C104.841 149.239 104.372 146.146 106.583 145.026C110.088 142.793 114.469 142.889 118.448 142.941C123.535 143.29 124.985 145.391 127.598 147.683C127.472 149.214 127.109 151.028 126.689 152.671ZM160.991 138.146C160.802 138.115 160.614 138.086 160.426 138.058C160.279 137.975 160.106 137.911 159.906 137.872C159.447 137.756 158.992 137.678 158.538 137.636C152.016 136.173 136.929 138.25 136.306 143.799C134.23 144.49 132.432 143.871 130.025 143.933C128.193 136.297 96.5172 137.375 94.9938 141.978C94.988 141.977 94.9823 141.975 94.9764 141.974C93.5126 141.522 91.3547 141.631 89.6793 141.559C86.1019 141.484 82.5204 141.802 79.0203 142.555C72.4661 143.593 63.521 144.809 68.0793 152.969C68.0803 152.97 68.0809 152.972 68.0821 152.973L68.0828 152.972C68.8684 153.775 70.2016 153.129 70.2512 152.042C68.7187 148.176 72.1801 147.712 74.8434 146.601C81.4704 144.227 88.2173 143.898 95.0712 144.633C95.5869 145.238 96.3693 145.766 97.1963 146.042C101.779 146.8 99.3638 150.189 102.26 150.682C101.728 162.496 116.115 168.945 124.451 161.179C127.779 157.935 128.572 153.129 129.344 148.797C129.752 148.706 130.011 148.483 130.163 148.189C131.144 147.212 131.76 146.31 133.701 146.042C135.641 145.774 137.135 146.312 137.337 146.477C137.388 146.579 137.443 146.682 137.506 146.784C137.595 146.937 137.715 147.059 137.853 147.155C135.936 158.919 145.097 166.359 154.345 160.257C158.363 156.489 159.212 150.719 159.38 145.57C159.925 145.242 160.269 144.607 160.081 143.808C159.821 142.708 160.43 141.755 161.401 141.276C162.662 140.655 162.439 138.385 160.991 138.146Z" fill="black" style="fill:black;fill-opacity:1;"/>
</g>
<g clip-path="url(#clip2_15_1235)">
<path fill-rule="evenodd" clip-rule="evenodd" d="M353.503 319.459C354.424 314.272 355.269 309.07 356.036 303.858C356.401 301.383 356.756 298.906 357.076 296.425C357.299 294.687 357.64 292.699 356.454 291.411C354.785 289.599 353.268 288.048 353.064 285.453C352.872 283.01 353.7 280.348 354.218 277.977C355.304 273.006 356.656 268.096 358.15 263.233C359.668 258.291 361.333 253.397 363.021 248.511C364.6 243.944 366.117 239.335 368.173 234.953C372.075 226.636 378.676 220.477 386.834 216.365C388.863 215.342 393.002 211.691 395.122 210.873C397.07 210.122 397.063 212.316 398.981 211.49C400.515 210.829 401.942 209.948 402.801 208.472C403.733 206.869 406.07 204.628 406.426 202.762C407.18 198.808 406.364 195.443 409.194 192.467C411.707 189.824 415.085 188.013 418.58 187.042C426.268 184.904 436.521 186.398 441.16 193.521C443.375 196.922 444.149 201.034 447.139 203.81C449.749 206.233 449.165 207.89 452.546 209.14C452.738 209.211 457.928 208.101 458.119 208.172C461.818 207.383 465.353 209.591 468.747 210.873C473.806 212.784 478.622 215.271 483.147 218.227C492.271 224.187 500.086 231.927 506.529 240.685C513.025 249.515 518.065 259.413 521.654 269.757C522.525 272.27 523.308 274.813 523.999 277.381C524.385 278.818 524.798 280.309 524.328 281.78C523.943 282.984 523.087 283.88 522.081 284.603C520.718 285.582 517.984 286.218 518.037 288.187C518.078 289.685 518.588 291.26 518.836 292.74C519.132 294.502 519.375 296.274 519.619 298.044C520.725 306.1 521.586 314.201 521.967 322.325C522.342 330.324 522.653 338.487 522.096 346.483C522.059 347.011 521.902 347.495 521.647 347.904C521.885 347.994 521.903 348.436 521.607 348.498C521.4 348.542 521.194 348.586 520.987 348.629C520.556 348.954 520.02 349.153 519.403 349.172C518.984 349.186 518.566 349.204 518.148 349.226C513.736 350.145 509.325 351.014 504.856 351.671C499.423 352.471 493.975 353.122 488.509 353.652C477.278 354.741 466.136 354.38 454.89 353.793C443.662 353.207 432.44 353.07 421.2 353.361C409.951 353.653 398.705 354.141 387.453 354.341C374.881 354.564 362.329 354.221 349.795 353.225C348.076 353.089 347.013 351.725 347.352 350.023C349.383 339.827 351.684 329.699 353.503 319.459Z" fill="white" style="fill:white;fill-opacity:1;"/>
<path fill-rule="evenodd" clip-rule="evenodd" d="M461.627 207.92C460.464 207.87 459.279 208.058 458.119 208.171C458.018 208.181 457.979 208.337 458.093 208.36C460.169 208.793 462.222 209.384 464.26 209.985L465.133 210.242C467.432 210.92 469.663 211.619 471.888 212.524C476.324 214.326 480.536 216.758 484.413 219.553C499.341 230.314 510.146 246.606 516.964 263.474C518.816 268.055 520.384 272.749 521.655 277.523C521.964 278.685 522.255 279.851 522.531 281.021C522.612 281.364 522.964 282.242 522.771 282.593C522.6 282.903 521.935 283.095 521.627 283.256L520.584 283.795C518.55 284.84 515.163 286.557 514.823 286.725L514.294 286.985C505.628 291.22 496.37 294.811 486.618 295.06L486.542 294.23C486.107 289.64 485.537 285.026 484.292 280.577C484.225 280.338 483.919 280.419 483.892 280.631C483.198 285.898 483.42 291.205 483.662 296.496C484.09 305.867 484.659 315.233 485.165 324.6C485.418 329.286 485.746 333.969 486.041 338.652C486.337 343.345 486.433 348.151 487.109 352.805C487.26 353.842 488.478 354.406 489.401 354.297C490.423 354.176 491.208 353.279 491.213 352.251C491.225 349.54 490.884 346.796 490.694 344.092C490.513 341.522 490.32 338.954 490.121 336.386C489.396 327.013 488.562 317.651 487.791 308.282C487.517 304.959 487.222 301.639 486.918 298.319C497.248 297.987 506.898 294.173 516.105 289.716C516.238 292.732 516.56 295.743 516.871 298.747C517.741 307.13 518.508 315.51 519.082 323.918C519.372 328.165 519.583 332.418 519.766 336.671C519.857 338.761 519.93 340.851 519.987 342.942C520.006 343.639 520.023 344.337 520.038 345.034L520.069 346.631C520.095 347.643 520.198 348.58 521.052 349.317C521.92 350.065 523.091 350.105 523.95 349.317C525.099 348.262 524.896 346.824 524.862 345.407C524.833 344.212 524.799 343.017 524.76 341.822C524.68 339.432 524.579 337.043 524.456 334.655C524.025 326.307 523.164 317.991 522.038 309.71L521.598 306.513C520.778 300.569 519.877 294.491 518.042 288.766C518.757 288.412 519.469 288.055 520.178 287.697C521.437 287.062 522.738 286.465 523.961 285.764C524.932 285.208 525.769 284.445 526.039 283.319C526.34 282.065 525.88 280.692 525.574 279.469L525.547 279.361C525.247 278.129 524.924 276.902 524.583 275.68C523.2 270.726 521.49 265.869 519.489 261.13C515.482 251.643 510.31 242.63 503.993 234.481C498.306 227.145 491.588 220.493 483.715 215.504C479.866 213.064 475.764 211.062 471.426 209.646C469.398 208.984 467.192 208.408 465.069 208.171C463.924 208.044 462.777 207.97 461.627 207.92ZM441.029 192.887C439.648 191.408 436.903 192.939 437.567 194.897C439.127 199.505 441.611 203.707 445.489 206.735C449.134 209.581 453.48 211.43 458.161 211.035C458.197 211.032 458.228 211.023 458.256 211.01L457.852 211.555C454.686 215.826 451.345 220.038 447.318 223.529C439.114 230.641 427.944 234.477 417.158 231.748C408.671 229.601 401.195 222.911 398.996 214.385C399.311 214.525 399.686 214.574 400.097 214.484C401.856 214.104 403.598 212.259 404.732 210.936C405.96 209.505 406.919 207.96 407.621 206.214C408.907 203.018 409.319 198.902 407.564 195.806C407.347 195.424 406.847 195.638 406.805 196.011L406.738 196.593C406.399 199.494 405.978 202.301 404.605 204.946C403.934 206.241 403.129 207.504 402.149 208.588C401.625 209.168 401.056 209.722 400.442 210.209C399.844 210.682 399.121 211.025 398.585 211.569L398.486 211.673L398.484 211.654C398.348 210.506 397.54 210 396.749 210.031C395.984 210.062 395.086 210.398 394.738 210.558L394.705 210.574C389.367 213.128 384.451 216.458 379.825 220.152C370.258 227.792 363.09 237.779 359.617 249.539C357.912 255.311 356.934 261.258 355.901 267.178L355.266 270.805C354.302 276.27 353.225 281.843 351.05 286.926C350.487 288.242 350.921 289.475 352.301 289.992C354.024 290.638 355.753 291.263 357.485 291.881C356.635 295.518 356.116 299.282 355.479 302.938C354.124 310.708 352.465 318.429 351.041 326.189C350.314 330.157 349.658 334.138 348.931 338.107C348.581 340.018 348.215 341.926 347.86 343.836C347.669 344.866 347.495 345.899 347.313 346.931L347.281 347.102C347.176 347.646 347.045 348.209 347.195 348.753C347.366 349.374 347.852 349.813 348.287 350.258C348.644 350.625 349.16 350.627 349.598 350.427L349.742 350.361C350.524 349.996 351.136 349.633 351.413 348.753C351.589 348.197 351.652 347.569 351.767 346.996C351.987 345.896 352.196 344.795 352.393 343.691C352.787 341.483 353.172 339.272 353.548 337.06L353.899 334.988C355.103 327.849 356.247 320.666 356.825 313.451C357.082 310.251 357.354 307.053 357.628 303.854L357.834 301.455C358.095 298.419 358.413 295.305 358.458 292.228L359.494 292.594L364.548 294.375C365.801 294.817 367.396 295.722 368.745 295.557C369.405 295.476 369.908 295.269 370.297 294.893C369.832 301.44 369.202 307.977 368.362 314.48C367.598 320.397 366.751 326.306 365.751 332.189C365.256 335.101 364.747 338.011 364.194 340.914C363.918 342.365 363.632 343.814 363.338 345.262C363.192 345.985 363.017 346.708 362.903 347.436C362.772 348.27 363.003 348.783 363.47 349.47C363.854 350.033 364.622 350.322 365.244 349.934C366.068 349.418 366.498 348.971 366.741 348.032C366.961 347.179 367.095 346.289 367.266 345.425C367.58 343.83 367.885 342.233 368.178 340.635C368.793 337.291 369.359 333.939 369.864 330.578C371.646 318.735 372.776 306.793 373.347 294.832C373.629 288.93 373.716 283.024 373.666 277.116C373.641 274.088 373.542 271.051 373.327 268.031C373.109 264.973 372.656 261.977 372.252 258.949C372.238 258.842 372.087 258.836 372.081 258.949C371.89 262.344 371.59 265.735 371.443 269.138C371.302 272.386 371.241 275.639 371.129 278.889C370.983 283.16 370.78 287.433 370.511 291.704C370.024 291.172 369.289 290.866 368.555 290.986C367.491 290.763 366.345 290.206 365.33 289.868L361.505 288.595C359.495 287.925 357.484 287.26 355.466 286.615C357.27 280.564 358.506 274.423 359.561 268.192L360.032 265.39C360.964 259.874 361.968 254.356 363.655 249.015C365.429 243.399 368.084 238.179 371.606 233.451C375.077 228.791 379.3 224.689 383.648 220.851C387.371 217.566 391.354 214.6 395.151 211.405C395.111 211.617 395.102 211.85 395.137 212.106C395.945 217.997 399.027 223.482 403.322 227.563C411.952 235.76 424.726 237.46 435.771 233.617C446.455 229.898 455.901 221.093 459.239 210.196C459.296 210.01 459.045 209.935 458.945 210.072C458.76 210.325 458.574 210.578 458.387 210.831C458.4 210.731 458.348 210.621 458.223 210.574C454.329 209.075 450.506 206.949 447.587 203.941C446.164 202.475 444.923 200.815 443.942 199.023C443.473 198.165 443.051 197.277 442.715 196.359L442.629 196.121C442.221 194.971 441.881 193.798 441.029 192.887Z" fill="black" style="fill:black;fill-opacity:1;"/>
<path fill-rule="evenodd" clip-rule="evenodd" d="M443.85 102.359L441.875 104.7C442.969 105.468 444.001 106.24 444.971 107.015L444.972 107.013C440.476 104.088 435.496 102.359 430.117 102.359C419.756 102.359 398.711 111.232 393.954 117.632C391.593 120.808 387.206 130.559 384.93 141.159C383.101 149.677 380.382 173.74 383.101 182.782C386.582 194.353 398.034 205.049 409.842 205.049C421.65 205.049 439.982 196.55 453.029 177.925C453.626 177.073 460.477 176.086 465.365 172.889L464.081 186.983L463.106 195.182L463.321 195.765C466.822 205.203 469.596 210.127 471.643 210.537C473.732 210.955 477.986 207.541 484.406 200.295L485.226 196.862C487.31 188.105 488.352 183.405 488.352 182.761L488.35 182.644C488.32 181.162 487.808 172.774 487.797 170.517L487.797 136.684C480.893 113.801 474.304 102.359 468.031 102.359H443.85Z" fill="white" style="fill:white;fill-opacity:1;"/>
<path fill-rule="evenodd" clip-rule="evenodd" d="M460.209 94.566C458.179 93.7821 455.827 93.9302 453.9 95.1107C450.117 94.9489 446.355 97.1548 444.383 100.375C444.341 100.42 444.298 100.466 444.259 100.511L443.841 100.997C443.445 101.461 443.028 101.972 442.697 102.5C444.317 102.537 445.667 103.195 446.609 104.525C447.281 105.474 445.741 106.375 445.054 105.478L445.03 105.445C444.464 104.647 443.61 104.338 442.66 104.322C442.387 104.317 442.18 104.213 442.033 104.059C441.975 104.271 441.923 104.485 441.875 104.7C437.088 102.844 431.928 102.352 426.789 102.793C427.014 103.156 427.202 103.546 427.347 103.955C427.512 104.42 427.161 104.953 426.709 105.077C426.22 105.211 425.777 104.925 425.6 104.483L425.584 104.44C425.387 103.882 425.064 103.403 424.631 103.032C422.212 103.359 419.81 103.879 417.466 104.55C414.649 105.356 411.859 106.34 409.131 107.467C409.593 107.648 409.992 107.953 410.272 108.463C410.83 109.48 409.295 110.392 408.713 109.419L408.693 109.383C408.636 109.279 408.585 109.216 408.548 109.18L408.535 109.168L408.454 109.131L408.304 109.088L408.247 109.074C408.196 109.063 408.175 109.064 408.041 109.056C407.863 109.046 407.685 109.047 407.507 109.047C407.089 109.047 406.821 108.814 406.7 108.516C405.354 109.122 404.025 109.76 402.719 110.429L402.408 110.589C398.378 112.689 394.559 115.446 392.344 119.503C392.197 119.774 392.152 120.071 392.188 120.353C391.715 120.918 391.258 121.502 390.819 122.094C389.48 123.908 388.499 125.97 387.571 128.014C385.704 132.125 384.447 136.348 383.466 140.751C382.517 144.994 381.752 149.283 381.041 153.571C380.253 158.336 379.597 163.142 379.459 167.976C379.217 176.592 380.906 185.258 385.759 192.512C390.088 198.984 396.606 204.122 404.337 205.768C412.2 207.44 420.52 205.809 426.716 200.586C427.715 199.745 427.578 198.047 426.716 197.186C425.74 196.215 424.3 196.349 423.306 197.186C417.471 202.106 408.977 202.865 401.946 200.358C395.445 198.038 390.353 192.687 387.228 186.678C383.416 179.349 382.773 170.931 383.359 162.823C383.679 158.371 384.344 153.954 385.03 149.545L385.444 146.89C385.895 144.016 386.369 141.145 386.988 138.299L387.133 137.636C387.889 134.204 388.775 130.685 390.145 127.458C390.863 125.765 391.727 124.134 392.611 122.523C392.783 122.21 392.959 121.894 393.139 121.575C393.382 121.659 393.658 121.673 393.948 121.581C396.447 120.807 399.014 120.287 401.626 120.114C402.816 120.035 404.008 120.022 405.199 120.068C407.237 119.95 409.332 120.129 411.273 120.752C411.463 120.589 411.656 120.43 411.848 120.271C411.9 120.267 411.952 120.262 412.004 120.251C412.5 120.154 412.848 119.803 413.058 119.36C413.069 119.337 413.079 119.313 413.088 119.29C413.336 119.1 413.587 118.914 413.84 118.73C414.456 118.889 414.996 118.378 415.141 117.818C415.278 117.726 415.418 117.637 415.556 117.546C415.665 117.573 415.773 117.594 415.878 117.602C416.332 117.635 416.77 117.565 417.172 117.35C417.681 117.076 418.006 116.636 418.224 116.135C418.994 116.182 419.773 115.933 420.461 115.483C421.019 115.118 421.447 114.613 421.873 114.11C427.056 111.805 432.691 110.444 438.339 110.095C438.895 110.202 439.448 110.329 439.993 110.476C440.122 110.512 440.306 110.58 440.517 110.663C439.258 110.511 437.982 110.496 436.689 110.682C430.551 111.567 425.77 116.148 421.656 120.473C420.677 120.276 419.688 121.54 420.593 122.377L427.656 128.901C427.482 129.631 428.322 130.35 429.057 130.175C430.29 129.879 431.525 129.592 432.761 129.31C434.05 129.932 435.671 129.825 436.84 128.924C436.894 128.882 437.013 128.815 437.115 128.749C437.211 128.828 437.34 128.907 437.392 128.941C437.807 129.215 438.314 129.296 438.8 129.219C439.299 129.14 439.75 128.887 440.139 128.572C440.387 128.372 440.963 127.535 441.284 127.474L441.316 127.47C441.101 127.476 441.79 128.114 441.975 128.246C442.406 128.553 442.883 128.714 443.42 128.656C444.356 128.553 445.161 127.703 445.618 126.918L445.653 126.857L445.667 126.82L445.679 126.86C445.682 126.868 445.684 126.875 445.687 126.884C445.756 127.069 445.971 127.279 446.117 127.408C446.534 127.775 447.05 127.937 447.602 127.841C448.068 127.76 448.461 127.479 448.776 127.139L448.825 127.085C448.919 126.98 449.533 126.156 449.436 125.959L449.425 125.942L449.456 125.936C449.83 126.028 450.143 125.936 450.373 125.744C451.657 125.463 452.923 125.137 454.149 124.722C454.245 124.991 454.339 125.259 454.43 125.531C453.761 125.943 453.141 126.531 452.572 126.95C451.493 127.743 450.415 128.536 449.338 129.332L445.072 132.469L444.585 132.338C443.961 132.171 443.427 132.533 443.198 133.086L443.179 133.134C443.088 133.376 442.979 133.6 442.85 133.815C441.784 133.772 440.881 134.425 440.589 135.361C440.326 135.355 440.06 135.365 439.788 135.395C439.043 135.476 438.541 136.028 438.676 136.785L438.686 136.837L438.704 136.921C438.272 137.104 437.959 137.457 437.89 137.991C437.774 138.164 437.681 138.353 437.621 138.563C437.31 139.653 437.916 141.001 438.239 142.045L438.263 142.127C438.471 142.814 438.685 143.497 438.902 144.179L439.443 145.875C440.941 150.599 442.402 155.58 441.189 160.533C440.931 161.581 442.275 162.055 442.858 161.235C444.271 159.249 445.798 157.377 447.401 155.581L447.478 155.568C448.601 155.343 449.037 154.553 449.552 153.747C449.855 153.836 450.182 153.857 450.497 153.797C450.954 153.709 451.363 153.449 451.686 153.12C451.96 152.842 452.21 152.128 452.534 151.951C452.938 151.729 453.752 152.046 454.235 151.975C454.628 151.917 454.995 151.783 455.35 151.614C456.005 152.503 456.438 153.548 456.545 154.674C456.586 155.103 456.714 155.465 456.899 155.766C456.218 155.741 455.534 155.789 454.86 155.914C452.364 156.377 450.574 157.913 449.569 160.201C449.525 160.301 449.656 160.383 449.715 160.287C451.207 157.997 454.456 157.881 456.814 158.687C459.32 159.544 460.725 161.743 461.226 164.252C461.774 167.003 461.07 169.968 459.569 172.31C458.872 173.399 457.921 174.393 456.657 174.794C455.155 175.27 453.768 174.418 452.229 174.858C451.182 175.156 450.721 176.166 450.911 177.175C450.986 177.572 451.125 177.918 451.313 178.219C450.759 179.313 450.248 180.439 449.596 181.473C448.591 183.071 447.374 184.392 446.049 185.726C444.68 187.102 443.285 188.451 441.82 189.727C440.417 190.951 438.807 191.821 437.335 192.943C436.302 193.729 435.791 194.832 436.3 196.094C436.721 197.138 438.138 198.027 439.285 197.555C441.482 196.652 443.404 195.117 445.155 193.535C446.778 192.067 448.191 190.313 449.258 188.408C450.265 186.612 451.007 184.572 451.633 182.607L451.71 182.362C452.005 181.428 452.316 180.377 452.517 179.318C453.722 179.974 455.356 180.07 456.645 179.892C458.728 179.607 460.627 178.561 462.062 177.036C462.731 176.327 463.323 175.518 463.833 174.641C463.787 175.175 463.759 175.691 463.73 176.161C462.536 177.464 462.058 179.345 462.481 181.061C461.483 182.085 461.203 183.623 461.724 184.933C460.631 186.013 460.673 187.733 461.145 189.294C459.853 190.734 459.731 192.977 460.739 194.601L460.77 194.718C459.751 196.417 459.981 198.612 461.257 200.113C460.386 201.798 460.521 204.065 462.699 204.719C463.492 204.957 464.262 204.754 464.838 204.311C464.312 206.917 464.077 209.564 464.778 212.183C465.057 213.222 466.076 213.981 467.148 213.981C468.044 213.981 468.696 213.532 469.146 212.871C469.093 214.186 469.173 215.507 469.454 216.841C469.624 217.646 470.373 218.273 471.168 218.468C470.881 218.79 470.767 219.257 471.042 219.742C472.208 221.8 475.025 220.947 475.215 218.975C476.011 218.383 476.381 217.411 476.534 216.361C476.757 214.829 476.838 213.322 477.091 211.81L477.187 211.9L477.237 211.943L477.253 212.053C477.398 212.8 477.821 213.324 478.37 213.636C478.251 214.94 478.471 216.268 479.301 217.258C479.854 217.918 480.795 218.178 481.602 218.034C481.653 218.037 481.705 218.037 481.759 218.03C483.587 217.787 484.644 216.059 484.163 214.472C484.899 213.573 485.209 212.432 484.991 211.305C486.416 210.364 486.386 208.299 485.893 206.641C487.386 205.466 487.948 203.27 487.198 201.524C488.543 199.858 488.73 197.537 487.816 195.64C489.297 194.427 489.288 192.086 487.82 190.846C488.602 189.298 489.073 187.444 488.292 186.028C488.843 185.421 489.146 184.557 489.082 183.721C488.989 182.494 488.174 181.646 487.164 181.082L487.094 180.698C486.857 180.727 486.604 180.661 486.381 180.448C486.161 180.237 485.934 180.066 485.699 179.926C485.433 179.923 485.204 179.804 485.043 179.623C484.603 179.474 484.13 179.408 483.605 179.402C482.471 179.39 482.431 177.699 483.486 177.589C483.653 177.422 483.882 177.316 484.131 177.316L484.326 177.317C484.782 177.322 485.242 177.35 485.665 177.53C485.939 177.647 486.151 177.824 486.306 178.04C486.336 178.367 486.514 178.693 486.9 178.962C487.346 179.273 487.956 179.309 488.433 179.028C489.101 178.634 489.108 178.019 489.031 177.351C488.862 175.889 489.705 174.514 489.504 173.019C489.415 172.358 489.195 171.787 488.835 171.326C489.594 170.193 489.728 168.731 489.143 167.487C490.361 166.181 490.571 164.168 489.795 162.596C489.784 162.558 489.775 162.519 489.763 162.482C489.675 162.215 489.554 161.974 489.421 161.743C490.103 160.566 490.098 159.121 489.405 157.949C490.454 156.73 490.487 154.789 489.554 153.475C489.549 153.366 489.537 153.257 489.528 153.148C489.956 152.039 489.853 150.779 489.31 149.748C489.504 149.303 489.653 148.823 489.749 148.312C489.994 146.995 489.868 145.714 489.502 144.429C489.443 144.226 489.377 144.023 489.306 143.82C489.294 142.94 489.26 142.064 489.216 141.189C489.39 140.448 489.418 139.634 489.422 138.879L489.423 138.389C489.431 137.142 489.518 135.317 488.728 134.257C489.235 133.112 489.027 131.669 488.179 130.762C488.774 129.742 488.899 128.49 488.301 127.359C488.205 127.177 488.094 127.007 487.972 126.847C488.021 125.81 487.802 124.742 487.249 123.712C486.889 123.042 486.352 122.461 485.713 121.997C485.723 121.859 485.73 121.722 485.728 121.587C485.717 120.984 485.582 120.379 485.357 119.814C485.762 119.124 485.95 118.347 485.713 117.509C485.448 116.561 484.75 115.745 483.88 115.285C483.809 114.391 483.669 113.503 483.469 112.626C484.004 111.438 483.578 109.87 482.369 109.171C482.526 108.221 482.384 107.237 481.691 106.495C481.429 106.214 481.119 106.001 480.786 105.86C480.946 104.905 480.765 103.912 480.103 103.135C479.563 102.5 478.761 102.115 477.946 102.058C477.632 100.398 476.04 99.156 474.362 99.2549C474.152 98.5239 473.651 97.8865 472.873 97.5633C472.674 97.4806 472.473 97.4262 472.272 97.3959C470.907 96.0231 468.875 95.0927 467.116 94.6162C465.351 94.1401 463.562 94.094 462.047 94.6475L461.937 94.6891L461.813 94.6731C461.278 94.6139 460.744 94.5797 460.209 94.566ZM473.619 207.079C474.09 206.933 474.616 207.253 474.744 207.716C474.879 208.205 474.578 208.69 474.105 208.837C473.516 209.021 472.896 209.066 472.282 209.067C471.788 209.067 471.368 208.648 471.368 208.155C471.368 207.661 471.786 207.244 472.282 207.244C472.782 207.243 473.151 207.225 473.619 207.079ZM477.812 197.399C478.516 197.4 479.121 197.568 479.643 198.06C479.992 198.388 480 199.023 479.643 199.349C479.283 199.679 478.76 199.699 478.389 199.384L478.318 199.321C478.31 199.313 478.303 199.307 478.298 199.302C478.268 199.282 478.238 199.263 478.206 199.246L478.266 199.285C478.311 199.318 478.206 199.265 478.147 199.239L478.128 199.232L478.122 199.231L478.075 199.227C477.988 199.222 477.9 199.223 477.812 199.223C477.334 199.222 476.876 198.804 476.898 198.311C476.92 197.817 477.299 197.399 477.812 197.399ZM464.514 191.616C463.525 191.011 464.409 189.464 465.401 190.021L465.437 190.042C465.946 190.353 466.572 190.311 467.148 190.311C468.324 190.312 468.327 192.135 467.148 192.134L466.953 192.134C466.108 192.127 465.253 192.068 464.514 191.616ZM472.302 184.962C473.05 184.822 473.887 184.697 474.674 184.782L474.805 184.799H475.047C475.257 184.799 475.461 184.883 475.624 185.015C475.883 185.123 476.128 185.266 476.351 185.459C477.242 186.229 475.944 187.514 475.058 186.748C475.009 186.706 474.952 186.671 474.889 186.642L474.84 186.622H473.862C473.773 186.622 473.686 186.603 473.602 186.576C473.284 186.62 472.989 186.683 472.788 186.72C471.638 186.936 471.145 185.179 472.302 184.962ZM473.137 167.465C474.57 166.803 476.157 166.808 477.483 167.728C478.431 168.386 477.55 169.938 476.594 169.325L476.56 169.302C476.441 169.22 476.319 169.15 476.196 169.088C475.523 169.282 474.846 169.291 474.195 169.052L474.11 169.02L474.06 169.039C472.999 169.53 472.069 167.959 473.137 167.465ZM457.532 164.609C458.979 164.447 458.991 162.167 457.532 162.33C454.45 162.675 451.654 164.04 449.607 166.386C448.654 167.477 450.223 169.072 451.193 168.03L451.223 167.997C452.851 166.132 455.049 164.887 457.532 164.609ZM473.751 152.902C474.073 152.867 474.394 152.85 474.71 152.865C475.469 152.901 476.394 153.406 476.061 154.319C475.793 155.05 474.918 155.079 474.485 154.689C474.305 154.693 474.126 154.705 473.947 154.723C473.469 154.772 472.996 154.863 472.526 154.956C471.376 155.181 470.884 153.424 472.039 153.197L472.55 153.097C472.723 153.063 472.896 153.03 473.071 153C473.175 152.948 473.287 152.914 473.407 152.905L473.468 152.902H473.751ZM482.835 138.759L482.943 138.744C484.487 138.547 486.965 138.728 487.153 140.688C487.256 141.773 485.684 141.841 485.373 140.913C484.233 140.708 483.084 140.669 481.951 140.794C481.519 140.356 481.516 139.515 482.235 139.305C482.336 139.033 482.548 138.8 482.835 138.759ZM447.542 135.449C447.899 135.123 448.484 135.079 448.835 135.449C449.038 135.662 449.206 135.898 449.34 136.159L449.429 136.334C449.444 136.364 449.46 136.393 449.476 136.421C449.506 136.474 449.539 136.525 449.572 136.576L449.594 136.598C449.603 136.607 449.613 136.617 449.625 136.63C449.954 136.977 449.996 137.58 449.625 137.92C449.268 138.246 448.684 138.289 448.332 137.92C448.13 137.707 447.961 137.47 447.827 137.21L447.738 137.034C447.723 137.005 447.708 136.976 447.692 136.948C447.662 136.894 447.628 136.844 447.596 136.792L447.559 136.756C447.554 136.751 447.548 136.745 447.542 136.738C447.213 136.392 447.172 135.788 447.542 135.449ZM466.291 133.075C467.58 132.165 469.112 132.123 470.296 133.218C471.15 134.008 469.895 135.274 469.033 134.534L469.003 134.507C468.971 134.478 468.94 134.452 468.908 134.428C468.754 134.559 468.557 134.642 468.333 134.643C468.274 134.643 468.216 134.643 468.157 134.644L468.069 134.647L468.022 134.651L468.016 134.652L467.975 134.669C467.9 134.703 467.796 134.755 467.938 134.666C467.907 134.683 467.877 134.703 467.847 134.722L467.794 134.769C467.45 135.094 466.853 135.137 466.511 134.778C465.905 134.574 465.584 133.575 466.291 133.075ZM453.696 130.089L453.673 130.082C452.543 129.76 453.024 128.001 454.159 128.324C455.364 128.667 455.939 129.784 456.18 130.929C456.281 131.411 456.038 131.915 455.541 132.051C455.088 132.175 454.519 131.898 454.417 131.414C454.345 131.074 454.263 130.785 454.132 130.517L454.053 130.364C454.016 130.294 454.003 130.283 453.879 130.174C453.858 130.156 453.763 130.112 453.696 130.089ZM472.829 120.907L473.006 120.867C474.106 120.627 475.567 120.501 476.231 121.589C476.837 122.58 475.309 123.482 474.68 122.545C474.67 122.545 474.659 122.545 474.646 122.546L474.626 122.548L474.343 122.526C473.992 122.523 473.656 122.585 473.315 122.665C472.171 122.936 471.682 121.178 472.829 120.907ZM433.324 113.899C432.491 113.069 433.784 111.779 434.617 112.61C435.276 113.267 435.912 113.929 436.34 114.764C436.565 115.202 436.455 115.753 436.012 116.011C435.604 116.249 434.987 116.124 434.761 115.684C434.39 114.96 433.921 114.495 433.324 113.899ZM443.837 111.719C444.66 112.205 445.193 113.005 445.516 113.931C445.679 114.396 445.332 114.928 444.878 115.052C444.39 115.186 443.945 114.901 443.769 114.459L443.753 114.416C443.667 114.168 443.528 113.875 443.357 113.655C443.211 113.466 442.983 113.277 442.812 113.215C442.4 113.064 442.108 112.692 442.146 112.257C442.823 112.49 443.453 112.209 443.837 111.719ZM468.476 107.754C469.306 106.985 470.42 106.883 471.427 107.348C471.875 107.555 471.988 108.2 471.755 108.596C471.486 109.054 470.954 109.131 470.504 108.923C470.62 108.976 470.411 108.906 470.321 108.88C470.31 108.885 470.159 108.878 470.107 108.879L470.044 108.883C470.044 108.883 470.059 108.883 470.09 108.882C470.046 108.892 470.003 108.904 469.96 108.917L469.906 108.936C469.933 108.93 469.81 109.011 469.775 109.037L469.769 109.043C468.907 109.84 467.611 108.554 468.476 107.754Z" fill="black" style="fill:black;fill-opacity:1;"/>
<path fill-rule="evenodd" clip-rule="evenodd" d="M402.132 178.016C401.347 176.636 399.007 176.861 398.65 178.47C397.924 181.732 401.825 184.744 404.788 184.819C407.733 184.893 411.037 182.395 410.611 179.238C410.505 178.458 409.46 178.553 409.103 179.042L408.965 179.23C407.996 180.527 406.718 181.87 404.921 181.553C404.176 181.423 403.499 180.959 403.049 180.361C402.506 179.64 402.566 178.78 402.132 178.016ZM420.856 154.152C420.457 154.042 420.054 154.085 419.7 154.235C418.911 154.379 418.251 155.035 418.019 155.785C418.001 155.849 417.981 155.914 417.958 155.977L417.923 156.071L418.018 155.831C417.974 156.068 417.781 156.316 417.711 156.554C417.626 156.846 417.605 157.177 417.634 157.499C417.383 157.501 417.132 157.51 416.881 157.531L416.639 157.553C415.286 157.678 413.799 157.908 412.997 159.075C412.546 159.73 412.969 160.91 413.797 161.036C415.072 161.231 416.17 160.527 417.44 160.387C418.641 160.253 419.898 160.33 421.083 160.546C423.531 160.992 425.779 161.981 428.164 162.602L428.489 162.684L428.488 162.682C428.897 162.781 429.361 162.214 428.957 161.883C427.046 160.318 424.6 159.05 422.19 158.277C422.541 157.721 422.65 156.987 422.41 156.39C422.373 156.266 422.327 156.145 422.278 156.025L422.176 155.778C422.167 155.662 422.144 155.547 422.112 155.434L422.107 155.399L422.104 155.402C421.924 154.82 421.456 154.317 420.856 154.152ZM396.48 154.242C395.957 153.721 395.223 153.798 394.678 154.208L394.605 154.265C394.091 154.492 393.666 154.99 393.387 155.451C393.097 155.93 392.904 156.417 392.896 156.944C391.632 156.948 390.42 157.327 389.491 158.345C389.191 158.673 388.986 159.18 389.152 159.626L389.25 159.891C389.562 160.732 390.964 161.217 391.44 160.227L391.462 160.179C391.968 159.004 393.912 159.127 394.945 159.247C395.665 159.331 396.376 159.51 397.071 159.71C397.316 159.78 397.559 159.857 397.802 159.935L398.044 160.013C398.173 160.055 398.847 160.42 398.428 160.333C398.315 160.31 398.231 160.474 398.346 160.528C398.845 160.767 399.378 160.292 399.345 159.757C399.287 158.828 397.808 158.319 397.096 157.999L397.053 157.98C396.78 157.854 396.494 157.733 396.199 157.621C396.365 157.375 396.502 157.102 396.616 156.808C396.724 156.531 396.796 156.262 396.836 155.967C396.875 155.823 396.875 155.679 396.836 155.535L396.83 155.494C396.85 155.398 396.86 155.3 396.858 155.201L396.862 155.162H396.858C396.844 154.815 396.706 154.467 396.48 154.242ZM404.829 164.133C402.821 164.752 399.509 166.437 400.555 169.037C402.016 171.425 405.89 169.67 407.768 168.898C409.454 168.341 410.332 170.698 408.701 171.408C395.225 176.724 395.275 162.695 404.34 162.901C405.338 162.924 405.37 163.928 404.829 164.133ZM422.658 145.842L422.316 145.742C420.537 145.228 418.72 144.341 417.14 145.726C416.52 146.269 416.392 147.399 416.836 148.077C417.847 149.623 419.347 149.386 420.98 149.518C422.223 149.618 423.448 149.983 424.609 150.438C425.558 150.81 426.437 151.334 427.268 151.918C428.084 152.492 428.642 153.391 429.479 153.908C429.785 154.097 430.14 153.902 430.25 153.595C430.64 152.504 429.98 151.146 429.422 150.217C428.741 149.083 427.706 148.156 426.593 147.455C425.374 146.687 424.027 146.243 422.658 145.842ZM396.73 144.669C393.723 144.668 390.828 146.336 389.146 148.78C388.574 149.611 388.993 150.842 389.814 151.32C390.735 151.857 391.719 151.47 392.325 150.701L392.361 150.654C393.326 149.373 394.57 148.365 396.044 147.708C396.763 147.387 397.559 147.127 398.337 146.995L398.588 146.952C398.941 146.893 399.35 146.837 399.668 146.892C399.839 146.915 399.996 146.971 400.14 147.057C400.071 147.208 400.25 147.39 400.416 147.299C401.163 146.89 401.072 146.16 400.454 145.593C399.581 144.79 397.858 144.669 396.73 144.669Z" fill="black" style="fill:black;fill-opacity:1;"/>
</g>
<g clip-path="url(#clip3_15_1235)">
<path fill-rule="evenodd" clip-rule="evenodd" d="M342.092 250.572C341.334 248.49 342.441 246.414 343.055 244.399C345.236 237.414 347.618 230.429 350.987 223.914C352.264 221.735 350.164 219.062 347.731 219.676C343.565 220.26 339.27 219.795 335.097 219.538C333.571 215.588 329.498 213.95 326.293 211.675C322.655 209.404 319.117 206.795 315.334 204.804C315.123 202.923 312.843 202.456 311.448 203.802C307.618 201.419 303.025 201.861 298.919 200.3C295.8 195.255 295.565 189.951 294.739 185.084C294.379 182.962 294.762 180.916 293.313 179.024C288.445 172.176 269.212 169.206 262.121 173.265C258.304 170.883 258.212 175.196 257.606 177.858C256.932 179.19 256.567 180.698 256.68 182.287C252.58 190.855 243.2 194.728 234.799 197.865C233.745 196.851 232.239 196.979 231.236 197.818C223.955 199.402 216.888 202.186 210.787 206.532C203.856 208.56 198.974 214.2 195.445 220.246C195.056 220.884 194.964 221.534 195.078 222.131C184.223 238.048 179.043 257.103 178.315 276.349C171.335 280.54 181.633 318.187 184.03 326.003C184.032 326.002 184.035 326.001 184.037 326C185.592 328.754 187.358 336.614 191.25 336.006C193.92 339.026 198.175 338.432 201.798 338.664C201.208 340.929 201.498 343.52 202.2 345.758C203.031 348.421 207.107 348.511 207.686 345.607C243.766 352.62 280.786 347.025 317.272 348.077C327.821 348.152 338.369 348.479 348.893 349.23C350.375 349.336 351.878 347.821 351.777 346.345C349.514 322.264 347.389 290.585 344.859 266.74C344.259 261.301 343.784 255.804 342.092 250.572Z" fill="white" style="fill:white;fill-opacity:1;"/>
<path fill-rule="evenodd" clip-rule="evenodd" d="M258.201 174.751C258.304 174.468 258.726 174.506 258.734 174.823C258.9 181.594 257.215 189.868 251.799 194.442C249.019 196.789 245.343 197.864 241.968 199.098L241.587 199.239L235.623 201.461C234.042 202.051 232.335 202.958 230.938 202.125C232.069 204.93 233.018 207.811 234.395 210.514C236.109 213.879 238.181 216.958 240.717 219.758C250.765 230.851 266.667 234.234 280.938 230.984C288.286 229.31 295.436 226.138 300.45 220.353C304.26 215.955 306.449 210.053 306.965 204.231C306.814 204.255 306.656 204.254 306.494 204.218C304.688 203.824 302.865 202.856 301.276 201.907L301.123 201.815C299.595 200.894 298.001 199.839 296.904 198.409C295.815 196.989 294.671 192.355 294.671 192.355C294.36 190.614 294.068 187.145 294.118 185.384C294.122 185.218 294.859 185.12 294.937 185.293C295.618 186.787 295.838 190.071 296.364 191.626L296.47 191.936C297.03 193.561 297.512 195.538 298.675 196.851C300.858 199.317 304.153 200.36 307.094 201.597C307.305 198.81 311.754 198.875 311.698 201.781C311.695 201.939 311.688 202.096 311.682 202.253C312.033 202.446 312.37 202.667 312.686 202.88L312.994 203.089C314.158 203.881 315.332 204.635 316.573 205.307C318.974 206.609 321.516 207.642 323.977 208.823C326.466 210.019 328.794 211.444 330.967 213.149C331.988 213.95 332.967 214.803 333.896 215.709L334.148 215.958C335.031 216.838 336.181 217.823 336.685 218.98C336.796 219.235 337.352 219.828 337.653 219.848C342.328 220.155 346.993 220.588 351.639 221.237C352.841 221.405 353.317 222.025 352.872 223.028C351.344 226.474 345.364 240.237 343.773 243.93C343.959 246.644 343.708 249.838 343.876 252.552C344.12 256.513 344.441 260.472 344.825 264.422C346.201 278.551 348.285 292.611 350.169 306.677C351.112 313.718 351.972 320.768 352.82 327.82C353.249 331.384 353.612 334.951 353.892 338.53C354.009 340.021 354.115 341.514 354.208 343.006L354.288 344.331C354.399 345.997 354.654 347.589 353.623 349.019C353.156 349.668 352.089 350.033 351.474 349.296C350.701 348.369 350.414 347.677 350.341 346.46C350.284 345.528 350.271 344.592 350.228 343.66C350.136 341.638 350.021 339.617 349.886 337.598C349.616 333.561 349.309 329.524 348.953 325.494C347.703 311.362 345.33 297.336 343.75 283.238C342.954 276.131 342.388 269.01 342.089 261.864C341.939 258.295 341.885 254.726 341.92 251.154C341.933 249.82 341.996 248.492 342.088 247.167C339.722 252.545 337.234 257.871 334.633 263.126L334.016 264.37C332.368 267.692 330.676 271.026 328.695 274.158L328.354 274.691C327.552 275.963 326.455 277.969 324.992 278.37C323.973 278.65 322.727 278.453 321.682 278.433C320.644 278.413 319.606 278.409 318.57 278.367C317.407 278.32 316.297 278.167 315.174 277.864C314.987 277.814 314.811 277.759 314.65 277.69C313.518 279.543 311.594 280.954 309.628 281.777C308.052 282.435 306.401 282.887 304.748 283.305L304.164 283.451C302.391 283.893 300.363 284.103 299.363 285.816L299.131 286.213C298.388 287.476 297.675 288.586 296.444 289.492C295.12 290.467 293.551 291.08 291.988 291.558C290.388 292.046 288.75 292.42 287.125 292.821L286.682 292.931C285.61 293.2 284.527 293.446 283.461 293.738C283.006 293.863 282.543 293.991 282.097 294.145C281.574 294.324 281.194 294.605 280.782 294.91C280.411 296.205 278.827 296.909 277.525 296.818C276.841 296.771 276.228 296.539 275.669 296.198C274.695 297.028 273.622 297.772 272.629 298.54C271.238 299.617 269.841 300.686 268.437 301.745C265.542 303.928 262.625 306.082 259.677 308.194C254.445 311.942 249.1 315.519 243.663 318.963C241.397 320.399 239.115 321.833 236.81 323.233L237.056 323.324L237.544 323.508C238.697 323.939 239.982 324.635 240.205 325.98C240.382 327.048 239.787 327.783 238.733 327.914C237.481 328.068 236.507 327.183 235.727 326.339C235.383 325.966 234.998 325.62 234.669 325.237C234.534 325.08 234.431 324.899 234.34 324.71C232.066 326.051 229.768 327.346 227.433 328.558L226.848 328.859C221.059 331.821 215.423 335.065 209.584 337.943C208.061 338.694 206.204 339.506 204.269 340.06C204.782 342.051 204.774 344.238 204.787 346.26C204.8 348.23 201.67 348.22 201.736 346.26L201.768 345.313C201.825 343.721 201.918 342.068 202.296 340.519C196.592 341.465 190.895 339.409 189.834 338.791C188.663 338.11 187.601 337.02 186.716 336.009C184.823 333.845 183.51 331.25 182.344 328.641C179.848 323.052 178.08 317.077 176.787 311.103C172.02 289.074 174.07 265.498 181.812 244.382C183.746 239.106 186.029 233.946 188.645 228.973L188.97 228.358C191.581 223.441 194.483 218.542 198.17 214.357C202.009 209.998 206.745 206.608 211.902 203.977C214.419 202.693 217.009 201.58 219.655 200.594C220.08 200.435 220.508 200.293 220.937 200.158C223.696 198.398 227.043 196.716 230.392 196.782C230.619 196.786 230.803 196.872 230.941 197.002C231.102 197.031 231.264 197.065 231.425 197.112C231.782 197.216 232.159 197.607 232.108 198.009L232.091 198.142C232.081 198.208 232.069 198.271 232.049 198.332C232.168 198.35 232.286 198.379 232.401 198.418C235.605 197.513 238.757 196.129 241.883 195.012L242.595 194.761C245.214 193.843 247.9 192.943 250.048 191.126C252.185 189.319 253.792 186.978 254.954 184.447C256.385 181.329 257.026 177.952 258.201 174.751ZM322.345 339.196C322.979 338.724 323.729 339.272 323.966 339.857C324.746 341.774 324.361 344.754 323.262 346.45C322.124 348.206 319.399 347.513 319.333 345.385C319.265 343.166 320.554 340.53 322.345 339.196ZM328.897 286.245C328.954 285.995 329.341 285.998 329.399 286.245C329.927 288.495 329.915 290.918 330.07 293.225L330.088 293.481C330.274 296.025 330.43 298.576 330.542 301.125C330.76 306.139 331.022 311.154 331.315 316.164C331.461 318.649 331.616 321.133 331.783 323.617C332.303 323.326 332.84 323.072 333.396 322.847C334.228 322.51 335.039 322.471 335.934 322.48C337.024 322.492 337.845 323.45 337.7 324.519C337.543 325.682 336.519 326.18 335.456 326.014C334.279 325.83 333.096 325.544 331.908 325.426C332.04 327.346 332.177 329.266 332.322 331.184C332.514 333.725 332.765 336.262 332.941 338.803C332.958 339.046 332.976 339.288 332.995 339.532C333.703 339.163 334.456 338.974 335.309 338.742L335.531 338.68C336.77 338.324 338.095 337.832 339.242 338.665C340.012 339.225 340.166 340.147 339.528 340.886C338.56 342.007 337.128 341.79 335.79 341.733L335.071 341.706C334.393 341.68 333.768 341.636 333.141 341.465C333.256 343.121 333.317 344.782 333.114 346.414C333.004 347.295 331.844 347.527 331.537 346.627C330.735 344.277 330.569 341.741 330.275 339.279C330.001 336.98 329.834 334.663 329.655 332.354L329.6 331.661C329.196 326.579 328.873 321.495 328.637 316.403C328.401 311.312 328.259 306.221 328.203 301.125C328.177 298.811 328.216 296.488 328.306 294.175L328.335 293.481C328.439 291.101 328.366 288.576 328.897 286.245ZM222.878 339.572C222.908 339.247 223.169 338.843 223.556 338.893C223.913 338.939 224.281 338.917 224.633 338.976C225.099 339.053 225.474 339.329 225.908 339.502C226.612 339.784 227.38 339.929 228.102 340.16C229.458 340.593 230.197 342.02 229.635 343.354C229.045 344.755 227.561 345.073 226.279 344.485C225.269 344.022 224.516 343.281 223.836 342.423L223.644 342.179C223.351 341.81 223.019 341.399 222.896 340.953C222.777 340.518 222.836 340.014 222.878 339.572ZM288.743 332.982C290.432 332.745 291.874 333.322 293.437 333.866L293.564 333.911C295.154 334.46 297.474 334.84 298.289 336.468C298.781 337.45 298.399 338.754 297.242 339.044C295.409 339.504 293.766 338.164 292.251 337.262L292.171 337.215C290.709 336.358 289.199 335.637 288.265 334.159C288.016 333.765 288.232 333.055 288.743 332.982ZM229.797 198.641C229.12 198.793 228.444 198.927 227.768 199.056C225.197 200.434 222.702 201.865 220.048 203.093C217.232 204.396 214.426 205.742 211.751 207.318C206.347 210.503 201.892 214.644 198.211 219.719C191.852 228.487 187.122 238.598 183.737 248.857C182.867 251.493 182.088 254.158 181.4 256.846C182.617 255.719 184.059 255.027 185.675 254.434C186.36 254.183 187.213 254.608 187.56 255.201C187.716 255.468 187.804 255.731 187.788 256.044C187.752 256.734 187.303 257.517 186.562 257.654C184.836 257.972 183.157 258.592 181.492 259.137C181.239 259.22 181.022 259.189 180.849 259.091C179.196 266.096 178.162 273.244 177.796 280.435C177.486 286.523 177.677 292.659 178.351 298.739C178.869 298.506 179.376 298.288 179.944 298.155C180.68 297.984 181.405 297.775 182.123 297.54C184.197 296.859 185.143 300.284 183.023 300.806C182.235 301 181.441 301.161 180.637 301.279C179.937 301.382 179.317 301.337 178.657 301.229C179.162 305.022 179.851 308.788 180.728 312.5L180.922 313.312C182.062 318.053 183.391 322.838 185.313 327.318C186.255 329.516 187.503 331.603 189.044 333.436C189.802 334.337 190.642 335.109 191.558 335.841C192.321 336.451 194.914 337.772 197.986 337.772C201.057 337.772 201.888 337.481 203.438 336.948C206.502 335.893 209.412 334.208 212.286 332.708L212.583 332.553C213.853 331.896 215.119 331.228 216.382 330.555C216.222 329.267 216.502 328.186 217.172 326.996C217.897 325.71 219.694 326.351 219.827 327.666L219.832 327.717C219.852 328.013 219.902 328.316 219.963 328.617C228.406 323.991 236.669 319.041 244.801 313.882C250.039 310.559 255.222 307.137 260.328 303.615C262.881 301.854 265.412 300.062 267.917 298.234C269.23 297.277 270.536 296.312 271.837 295.338C272.379 294.933 272.91 294.507 273.453 294.099C273.321 293.934 273.192 293.77 273.068 293.606C271.04 290.951 269.725 287.787 269.07 284.522C268.674 282.552 268.483 280.507 268.425 278.498L268.4 277.625C268.359 276.153 268.349 274.613 268.62 273.188C268.251 273.39 267.874 273.589 267.499 273.802C266.151 274.566 264.801 275.328 263.45 276.087C260.744 277.605 258.03 279.106 255.281 280.547C250.372 283.12 245.415 285.567 240.323 287.761L237.846 288.829C233.546 290.679 229.211 292.496 224.741 293.871C222.219 294.647 219.679 295.309 217.121 295.901L218.155 297.113C218.857 297.935 218.869 299.114 217.973 299.806C217.092 300.487 215.909 300.203 215.322 299.3L214.252 297.654C214.024 297.302 213.894 296.972 213.82 296.625C212.642 296.871 211.461 297.108 210.276 297.337L208.037 297.765C204.84 298.382 201.74 299.604 198.882 301.169C197.888 301.713 197.611 300.656 198.664 299.92C201.742 297.767 205.332 296.549 209.037 295.527L209.219 295.477C210.578 295.104 211.935 294.716 213.288 294.314C213.14 293.776 213.054 293.217 213.071 292.6C213.109 291.227 213.23 289.849 213.303 288.477C213.456 285.597 213.651 282.726 213.88 279.852C213.968 278.744 214.066 277.634 214.179 276.524C213.453 276.135 212.827 275.618 212.017 275.364L211.881 275.324C211.015 275.09 211.307 273.975 212.076 273.879C212.773 273.793 213.466 273.832 214.153 273.98C214.259 274.003 214.36 274.029 214.456 274.058C214.582 273.03 214.722 272.005 214.881 270.986C215.301 268.293 215.599 265.455 216.474 262.868C216.539 262.676 216.823 262.608 216.929 262.808C218.202 265.232 218.247 268.205 218.39 270.903L218.408 271.226C218.577 274.17 218.587 277.143 218.532 280.091C218.476 283.129 218.372 286.16 218.236 289.195C218.181 290.418 218.183 291.686 217.975 292.855C225.553 290.39 232.997 287.441 240.132 283.948C245.165 281.484 250.155 278.922 255.087 276.263C257.559 274.932 260.042 273.621 262.511 272.284C263.376 271.816 264.24 271.346 265.104 270.875L266.4 270.168C267.613 269.506 268.625 268.847 270.037 268.801C270.458 268.787 270.836 268.984 271.104 269.283C271.863 268.744 272.74 268.414 273.661 268.422C275.047 266.507 276.454 264.607 277.917 262.749L278.998 261.374C280.869 259 282.85 256.591 285.236 254.785C286.3 253.979 287.472 253.374 288.693 252.874C288.406 252.804 288.124 252.663 287.874 252.43C286.707 251.348 286.546 249.338 286.309 247.828C286.064 246.263 286.159 244.861 286.401 243.301C286.496 242.694 287.5 242.568 287.745 243.125C288.261 244.3 288.809 245.425 289.279 246.613L289.417 246.971C289.922 248.308 290.996 249.715 290.925 251.166C290.906 251.563 290.773 251.91 290.567 252.188C291.592 251.848 292.632 251.544 293.656 251.227C296.879 250.231 300.114 249.263 303.398 248.49C304.273 248.285 305.152 248.094 306.034 247.918C306.496 245.723 307.17 243.568 307.964 241.452C307.212 241.067 306.725 240.42 306.078 239.846C305.471 239.308 305.055 238.652 304.538 238.034C304.067 237.472 304.332 236.457 305.178 236.489L305.417 236.499C306.294 236.54 307.142 236.631 307.937 237.04L308.22 237.186C308.608 237.388 309.033 237.619 309.412 237.892C309.907 236.753 310.421 235.625 310.941 234.508L311.616 233.064C313.366 229.305 315.111 225.404 317.308 221.904C318.284 220.348 319.584 219.377 321.45 219.226C323.37 219.072 325.368 219.272 327.291 219.34C329.521 219.42 331.751 219.515 333.979 219.632C333.408 219.034 332.886 218.367 332.313 217.793C331.361 216.841 330.355 215.938 329.298 215.104C327.205 213.453 324.904 212.092 322.515 210.921C320.124 209.749 317.664 208.727 315.42 207.279C314 206.363 312.731 205.211 311.573 203.963C310.845 211.829 307.048 219.137 301.344 224.628C295.419 230.33 287.232 233.463 279.223 234.796C271.053 236.155 262.527 235.656 254.712 232.815C250.683 231.351 246.818 229.258 243.371 226.633C243.334 226.861 243.288 227.087 243.199 227.299C243.078 227.584 242.931 227.827 242.763 228.078L242.463 228.517C242.273 228.793 242.08 229.067 241.865 229.324C241.344 229.944 240.606 230.216 239.811 230.213C238.289 230.208 237.136 228.715 237.546 227.238C237.803 226.31 238.354 225.752 239.214 225.388C239.485 225.273 239.762 225.177 240.041 225.083L240.25 225.012C240.532 224.915 240.811 224.823 241.101 224.77C239.469 223.329 237.955 221.762 236.599 220.071C232.346 214.768 228.151 207.341 229.573 200.298C229.598 200.178 229.707 200.101 229.824 200.082C229.906 199.588 230.169 199.11 230.529 198.788C230.287 198.724 230.043 198.675 229.797 198.641ZM273.958 320.408C274.801 319.939 275.671 321.053 274.986 321.74L273.964 322.763C273.016 323.717 272.093 324.68 271.281 325.767L271.084 326.033C269.988 327.524 268.82 329.252 267.024 329.81C264.852 330.484 262.765 327.837 264.023 325.904C265.122 324.214 267.237 323.577 269.061 322.878C270.787 322.218 272.345 321.305 273.958 320.408ZM203.893 312.611C204.388 311.963 205.679 312.304 205.341 313.221C204.243 316.199 203.795 320.26 201.022 322.238C200.127 322.876 198.722 322.583 197.985 321.846C197.148 321.009 197.115 319.83 197.593 318.809C198.177 317.563 199.613 316.659 200.62 315.71L200.71 315.624C201.793 314.572 202.964 313.828 203.893 312.611ZM319.796 316.038C320.68 315.657 322.982 314.917 323.664 315.794C323.696 315.826 323.723 315.861 323.745 315.899C323.912 316.19 323.937 316.6 323.745 316.889C322.95 318.084 322.122 318.976 320.992 319.827L320.865 319.921C319.634 320.826 318.478 321.889 316.979 322.297C314.901 322.863 313.45 320.26 314.909 318.74C316.085 317.516 317.88 316.88 319.438 316.197L319.796 316.038ZM236.345 299.023C235.997 298.394 236.708 297.623 237.351 298.016C239.186 299.138 241.323 299.98 243.384 300.584C244.218 300.829 244.971 301.675 244.909 302.588L244.899 302.726C244.874 303.048 244.83 303.368 244.625 303.636C243.907 304.575 242.881 304.937 241.784 304.381C239.34 303.143 237.667 301.413 236.345 299.023ZM289.974 297.119C289.929 296.855 290.122 296.651 290.391 296.702C291.941 296.996 293.374 297.745 294.705 298.606C295.419 299.068 296.108 299.576 296.821 300.042C297.701 300.618 298.03 301.094 298.16 302.151C298.246 302.848 297.595 303.486 296.998 303.678C295.37 304.203 293.506 302.48 292.403 301.361L292.353 301.311C291.199 300.134 290.247 298.742 289.974 297.119ZM336.546 295.291C336.193 294.336 337.411 293.544 338.207 294.013C338.958 294.455 339.771 294.821 340.479 295.327C341.129 295.792 341.722 296.343 342.346 296.847L342.654 297.091C343.798 298.011 345.685 300.286 344.05 301.605C342.494 302.861 340.43 301.257 339.386 300.084L339.313 300.001C338.712 299.307 337.971 298.552 337.535 297.741C337.125 296.978 336.846 296.101 336.546 295.291ZM321.199 221.374C319.249 221.753 318.455 224.159 317.634 225.728C315.697 229.431 313.916 233.201 312.126 236.976C311.575 238.137 311.039 239.308 310.498 240.476C310.465 240.567 310.422 240.657 310.372 240.746C309.264 243.134 308.122 245.506 306.788 247.773C308.009 247.544 309.237 247.349 310.469 247.195C310.407 246.035 311.201 244.481 311.594 243.504L311.627 243.422C312.117 242.17 312.63 240.198 313.892 239.548C314.312 239.332 314.761 239.603 314.794 240.065C314.889 241.444 313.542 243.021 312.883 244.191C312.485 244.898 312.097 245.609 311.718 246.328C311.576 246.597 311.458 246.861 311.312 247.098C311.948 247.029 312.584 246.968 313.222 246.923L313.638 246.895C316.003 246.739 318.515 246.694 320.651 247.861C322.634 248.943 323.647 251.253 322.558 253.356C321.201 255.977 318.213 256.324 315.586 256.537C312.304 256.801 309.015 257.28 305.756 257.746C302.386 258.228 299.212 259.471 295.892 260.11C295.583 260.169 295.39 259.765 295.674 259.593C298.293 257.998 301.477 257.12 304.405 256.226L304.642 256.154C306.23 255.666 307.782 255.108 309.426 254.831C311.021 254.563 312.625 254.345 314.234 254.179L314.39 254.165C316.162 254.016 320.681 254.067 320.49 251.444C320.363 249.707 317.542 249.407 316.254 249.387C310.349 249.292 304.402 250.86 298.79 252.54L297.537 252.916C295.239 253.607 292.938 254.319 290.684 255.13C288.129 256.048 286.116 257.481 284.255 259.441C282.192 261.615 280.193 263.838 278.053 265.939C276.703 267.263 275.336 268.564 273.958 269.854C273.647 270.257 273.398 270.696 273.226 271.265C272.934 272.226 273.001 273.119 273.111 274.106C273.389 276.599 273.45 279.118 273.798 281.603C274.12 283.906 274.571 286.293 275.526 288.428C275.905 289.274 276.397 290.105 276.958 290.848L277.411 291.437C277.608 291.692 277.829 291.972 278.061 292.235C278.401 291.82 278.893 291.55 279.465 291.618C280.681 291.761 281.637 291.727 282.829 291.447C283.752 291.231 284.668 290.978 285.587 290.744C287.392 290.283 289.213 289.864 290.999 289.335L291.306 289.243C292.637 288.834 293.969 288.323 295.077 287.463C296.364 286.464 296.76 285.023 297.713 283.777C299.749 281.116 304.148 281.171 307.127 280.442C309.658 279.823 312.094 278.846 313.846 277.009L313.949 276.899C313.871 276.571 313.997 276.201 314.301 276.031L314.368 275.994C314.486 275.928 314.614 275.9 314.74 275.903C314.902 275.664 315.059 275.418 315.202 275.155C315.319 274.938 315.612 275.098 315.574 275.312C315.551 275.439 315.519 275.564 315.489 275.689C317.186 275.252 319.049 275.335 320.772 275.336L323.008 275.329C323.395 275.324 323.972 275.304 324.023 275.281L324.076 275.258C324.215 275.197 324.017 275.297 324.115 275.168C324.222 275.025 324.327 274.881 324.431 274.735C324.802 274.217 325.152 273.682 325.496 273.143C321.751 274.097 317.873 274.691 314.05 275.186C309.948 275.718 305.792 276.087 301.654 276.09C300.514 276.092 300.524 274.369 301.654 274.326C306.036 274.158 310.395 273.926 314.748 273.364C316.998 273.074 319.24 272.709 321.469 272.282C322.329 272.118 323.188 271.943 324.044 271.759L324.686 271.618C325.088 271.529 326.226 271.401 326.781 271.029C326.89 270.841 326.999 270.654 327.107 270.467C327.054 269.809 325.383 269.897 324.991 269.896C323.88 269.894 322.769 269.903 321.657 269.906C319.435 269.912 317.213 269.893 314.99 269.875C310.55 269.839 306.093 269.684 301.656 269.874C300.579 269.92 300.013 268.192 301.078 267.737C305.777 265.73 310.994 265.294 316.012 264.677C318.651 264.353 321.291 263.978 323.871 263.322L324.508 263.159C326.129 262.744 327.918 262.237 329.283 261.247C327.232 260.417 324.682 260.512 322.556 260.394L322.394 260.385C319.417 260.202 316.434 260.108 313.452 260.104C307.349 260.095 301.245 260.312 295.149 260.601C294.996 260.608 294.964 260.367 295.113 260.334C301.378 258.967 307.746 258.308 314.158 258.206C317.144 258.159 320.132 258.201 323.115 258.333L324.21 258.384C326.754 258.494 329.577 258.523 331.705 260.06C332.03 260.294 332.201 260.593 332.228 260.91C335.082 255.218 337.718 249.406 340.365 243.634C342.423 239.146 344.404 234.62 346.537 230.166L347.227 228.725C348.152 226.803 349.099 224.88 350.151 223.028C346.218 222.502 342.263 222.137 338.306 221.857C334.7 221.602 322.935 221.037 321.199 221.374ZM319.457 283.065C319.906 282.816 320.593 283.019 320.704 283.572C320.786 283.984 320.926 284.442 320.926 284.863C320.926 285.368 320.746 285.917 320.65 286.411C320.428 287.546 320.156 288.469 319.579 289.481C319.217 290.114 318.488 290.544 317.755 290.527C317.175 290.514 316.66 290.358 316.262 289.909C315.785 289.37 315.457 288.578 315.719 287.853C316.404 285.954 317.665 284.061 319.457 283.065ZM224.326 281.17C225.375 279.331 227.863 277.688 230.034 277.85C233.294 278.095 233.959 282.486 230.803 283.533C228.916 284.159 226.321 283.516 224.671 282.486C224.226 282.208 224.063 281.631 224.326 281.17ZM190.823 274.888C190.585 274.541 190.979 274.145 191.334 274.223C192.122 274.396 192.971 274.472 193.743 274.707C194.533 274.947 195.298 275.346 196.081 275.62C197.72 276.195 199.472 276.483 201.058 277.177C201.693 277.454 202.192 278.373 202.133 279.051L202.118 279.209C202.083 279.545 202.025 279.839 201.837 280.146C201.332 280.971 200.331 281.397 199.387 281.143C197.635 280.673 195.923 279.463 194.43 278.458L194.153 278.275C193.501 277.845 192.799 277.395 192.273 276.841C191.724 276.263 191.273 275.542 190.823 274.888ZM251.043 268.2C250.842 267.473 251.745 266.993 252.272 267.484C253.324 268.465 254.425 269.374 255.455 270.38L255.525 270.449C256.263 271.191 257.336 272.62 256.377 273.581C255.147 274.811 253.434 272.985 252.774 272.034C251.937 270.827 251.435 269.611 251.043 268.2ZM331.58 262.193C330.019 263.847 327.613 264.608 325.496 265.238C322.984 265.984 320.397 266.431 317.807 266.797C315.304 267.152 312.821 267.469 310.358 267.875C312.221 267.898 314.084 267.912 315.943 267.946C318.086 267.984 320.229 268.031 322.372 268.093C323.933 268.138 325.764 267.924 327.247 268.505C327.514 268.609 327.764 268.754 327.982 268.93C329.229 266.712 330.424 264.463 331.58 262.193ZM235.28 246.723C236.909 246.205 238.442 245.518 240.169 245.697C240.628 245.744 240.957 246.191 240.706 246.633C239.888 248.074 238.557 248.888 237.246 249.852L237.131 249.937C235.696 251.004 234.156 251.977 232.596 252.853C229.911 254.36 227.504 250.045 230.216 248.779C231.848 248.017 233.563 247.269 235.28 246.723ZM264.618 242.977C267.111 243.141 269.603 243.253 272.099 243.354C274.99 243.471 274.018 247.922 271.603 247.021C269.217 246.131 266.83 245.252 264.423 244.422C263.69 244.169 263.749 242.965 264.571 242.975L264.618 242.977ZM200.675 235.058C201.322 235.013 201.973 235.154 202.62 235.217L203.309 235.284C204.728 235.425 206.059 235.599 207.413 236.177C209.91 237.244 208.569 241.26 206.062 241.168C204.208 241.1 202.624 240.304 201.059 239.377C199.691 238.566 198.852 237.553 197.928 236.28C197.622 235.859 198.049 235.387 198.465 235.344C199.199 235.269 199.941 235.11 200.675 235.058ZM325.874 226.856C325.461 229.436 324.435 231.854 322.889 233.959C322.112 235.017 320.749 235.057 319.979 233.959C318.89 232.406 319.561 230.627 320.382 229.135L320.624 228.698C320.992 228.043 321.556 227.088 322.201 226.428L322.212 226.36C322.557 223.659 326.3 224.198 325.874 226.856ZM225.04 210.299C225.661 209.739 226.806 209.907 227.008 210.819C227.29 212.095 227.462 213.533 227.277 214.829C227.177 215.531 227.139 216.32 226.863 216.974C226.566 217.677 225.995 218.219 225.458 218.748C224.384 219.804 222.121 219.455 221.833 217.79L221.797 217.586C221.652 216.799 221.467 215.957 221.681 215.177C221.843 214.588 222.204 213.987 222.503 213.441L222.566 213.325C223.165 212.209 224.098 211.147 225.04 210.299ZM312.401 213.014L312.626 213.017C314.361 213.051 317.532 213.473 317.549 215.618C317.553 216.123 317.179 216.647 316.677 216.763C315.64 217.004 314.97 216.391 314.231 215.772C313.627 215.265 312.922 214.861 312.19 214.57C311.4 214.255 311.452 213.013 312.401 213.014Z" fill="black" style="fill:black;fill-opacity:1;"/>
<path fill-rule="evenodd" clip-rule="evenodd" d="M315.397 129.441C314.501 122.292 311.688 114.701 308.729 108.036C302.077 93.9435 286.846 92.0033 273.192 89.0978C259.719 87.1355 245.451 85.3636 232.181 89.2788C224.721 91.1071 221.807 99.9956 222.984 107.01C223.656 111.381 225.645 115.517 227.341 119.568C230.712 127.887 232.85 136.793 232.854 145.8C232.623 151.686 231.792 158.404 238.554 160.897C244.987 164.098 245.531 172.774 253.587 177.697C256.845 184.298 265.719 184.879 272.105 186.41C276.142 187.183 280.224 187.752 284.317 188.119C296.17 189.639 305.652 186.203 311.856 175.64C316.008 169.212 319.1 161.79 318.336 153.999C317.576 145.795 316.308 137.634 315.397 129.441Z" fill="white" style="fill:white;fill-opacity:1;"/>
<path fill-rule="evenodd" clip-rule="evenodd" d="M273.295 71.9711C273.971 71.204 275.013 71.4671 275.646 72.0737C276.058 72.1951 276.457 72.3756 276.834 72.6146C277.686 72.5052 278.578 72.5052 279.414 72.5359C279.616 72.4222 279.834 72.3211 280.07 72.2342C281.759 71.6165 283.254 71.9303 284.488 72.7572C285.082 72.1948 285.832 71.842 286.79 71.8953C287.646 71.9431 288.255 72.3457 288.777 72.876C289.298 72.1246 290.14 71.5885 291.189 71.514C292.656 71.4097 294.065 71.9979 295.233 72.9086C295.914 72.1275 296.842 71.6786 297.876 71.6742C298.556 71.5506 299.274 71.5994 299.923 71.7954C300.865 72.0799 301.692 72.6131 302.351 73.3051C303.393 72.3068 304.668 71.5885 306.139 71.6933C308.043 71.8309 309.621 73.231 310.354 74.9543C311.642 75.4706 312.832 76.207 313.826 77.257C313.879 77.3122 313.93 77.3702 313.983 77.4283C314.518 77.626 315.023 77.9062 315.467 78.2753C316.873 79.4461 317.187 81.1405 316.721 82.8008C316.786 83.0666 316.842 83.3369 316.892 83.607C318.21 83.8073 319.406 84.5678 320.087 85.806C321.018 87.5052 320.835 89.7449 319.826 91.3671C319.393 92.0648 318.842 92.6528 318.224 93.1669C318.923 94.7551 318.588 96.6503 317.461 97.9348C317.186 98.3777 316.849 98.7774 316.47 99.1392C316.889 100.781 316.144 102.475 314.658 103.353L314.531 103.671C314.509 103.724 314.488 103.777 314.465 103.829C314.449 103.896 314.429 103.962 314.409 104.028C314.373 104.61 314.181 105.182 313.801 105.721C313.021 106.825 312.055 107.545 311.543 108.834L311.491 108.969C311.271 109.579 310.56 110.009 309.954 109.821C313.319 116.734 315.083 124.426 316.294 131.964C316.898 135.725 317.364 139.499 317.742 143.287L318.113 147.059C318.439 150.412 318.729 153.777 318.731 157.141C318.736 164.751 316.559 172.071 311.889 178.128C307.471 183.852 301.22 188.001 294.158 189.635C286.867 191.32 278.314 190.656 271.775 186.799C269.847 185.665 271.536 182.938 273.498 183.85C277.211 185.578 280.984 186.862 285.1 187.15C289.113 187.432 293.135 186.93 296.939 185.617C303.234 183.442 308.59 178.888 312.033 173.216C313.729 170.421 314.957 167.387 315.611 164.181C316.425 160.186 316.303 156.057 316.003 152.01L315.983 151.734C315.392 143.938 314.612 136.094 313.353 128.375C312.24 121.55 310.528 114.863 308.306 108.323C307.435 107.557 306.461 106.922 305.419 106.441C297.789 106.122 290.144 106.215 282.524 106.742C276.024 107.194 269.557 107.959 263.138 109.073L262.45 109.194C261.029 109.447 259.451 109.592 258.112 110.164C256.964 110.657 256.498 111.603 256.208 112.766C255.48 115.708 255.369 118.928 255.246 121.945C255.125 124.895 255.398 127.868 255.161 130.808C254.961 133.267 254.331 135.785 252.51 137.564C251.557 138.495 250.384 139.005 249.284 139.712C248.572 140.168 248.271 140.639 248.362 141.484C248.56 143.332 250.049 145.661 248.377 147.245C248.083 147.522 247.573 147.559 247.284 147.245C246.594 146.494 245.641 145.922 244.823 145.316C244.48 145.066 244.765 144.578 245.154 144.752C245.665 144.981 246.186 145.251 246.719 145.488C245.542 144.518 243.868 144.042 242.473 143.76C241.771 143.62 241.033 143.579 240.302 143.644C239.761 143.902 239.209 144.141 238.656 144.375C237.954 144.67 237.245 144.937 236.531 145.191C234.053 147.211 232.871 150.496 233.387 153.709C233.669 155.483 234.487 157.411 236.029 158.447C237.855 159.673 240.302 159.146 242.275 160.057C244.123 160.908 245.248 162.63 246.09 164.411L246.441 165.152C247.222 166.794 248.026 168.393 249.093 169.887C250.329 171.618 251.842 173.172 253.492 174.507C254.292 175.153 255.146 175.734 256.028 176.264L256.269 176.407C257.161 176.93 257.801 177.43 257.861 178.538C257.88 178.924 257.637 179.276 257.323 179.477C255.972 180.333 254.628 179.262 253.504 178.513C252.29 177.707 251.13 176.8 250.056 175.81C248.015 173.933 246.249 171.702 244.891 169.281C243.856 167.438 243.267 164.843 241.631 163.414C240.632 162.542 239.221 162.535 237.973 162.376C236.813 162.227 235.715 161.985 234.682 161.413C230.482 159.079 229.295 153.429 230.291 149.063C230.46 148.326 230.697 147.609 230.989 146.919C229.425 147.18 227.669 145.563 228.303 143.931C228.352 143.808 228.407 143.692 228.46 143.574C227.43 142.895 226.617 141.868 226.231 140.523C226.033 139.828 226.004 139.125 226.108 138.447C225.608 138.112 225.196 137.651 224.93 137.083C224.1 136.7 223.365 136.125 222.925 135.305C222.317 134.173 222.395 133.13 222.858 132.191C222.793 132.073 222.73 131.952 222.67 131.829C220.969 130.75 219.782 128.892 219.917 126.83C219.96 126.147 220.129 125.532 220.39 124.977C220.368 124.907 220.346 124.834 220.327 124.764C218.903 124.04 217.726 122.85 217.306 121.262C216.886 119.664 217.381 118.071 218.37 116.845C216.923 115.786 216.052 114.306 216.58 112.069C216.795 111.159 217.227 110.331 217.811 109.633C217.808 109.612 217.803 109.59 217.798 109.568L217.663 109.463C215.876 108.052 214.849 106.254 215.946 104.043C216.438 103.049 217.14 102.356 217.965 101.9L218.006 101.77C217.415 100.502 217.215 99.0953 217.622 97.6157C217.955 96.3971 218.744 95.4265 219.753 94.7823C219.685 94.2366 219.695 93.6552 219.803 93.025C219.984 91.9608 220.513 91.0316 221.285 90.3726C221.314 90.2324 221.35 90.0951 221.391 89.9573C221.652 89.1151 222.139 88.2004 222.703 87.5219C223.169 86.9595 223.69 86.7544 224.327 86.7326C224.289 86.2139 224.315 85.6875 224.421 85.1541C224.747 83.5083 225.794 81.9609 227.345 81.2585C227.982 80.9713 228.653 80.8871 229.3 80.9568C229.85 79.7983 230.924 78.9586 232.243 78.7775C232.757 78.7051 233.235 78.7097 233.674 78.7751C233.922 78.659 234.181 78.5555 234.451 78.4611C234.629 78.3984 234.81 78.3404 234.991 78.2827C235.602 77.5249 236.405 76.9188 237.344 76.5546C238.427 76.1322 239.53 76.1754 240.507 76.5302L240.818 76.465C241.305 75.6203 242.082 74.9662 243.276 74.6693C244.632 74.3338 246.025 74.802 247.091 75.6543C247.096 75.6543 247.101 75.6543 247.108 75.6516C247.665 74.4038 248.618 73.5349 250.218 73.5952C251.214 73.6338 252.114 74.1289 252.809 74.8337C253.195 74.7852 253.581 74.7417 253.97 74.6985C254.38 74.2179 254.836 73.7693 255.34 73.3662C256.165 72.7046 257.239 72.7579 257.847 73.6894C257.979 73.8921 258.102 74.0973 258.225 74.3024L258.783 74.2638C259.439 73.378 260.334 72.7794 261.56 72.7314C262.684 72.6853 263.485 73.2358 264.096 74.0055C264.593 73.9935 265.092 73.9841 265.591 73.9766C266.173 73.3032 266.858 72.7094 267.64 72.217C268.238 71.8405 269.121 71.9687 269.606 72.4707C269.934 72.812 270.239 73.1683 270.522 73.5371C271.253 72.7174 272.24 72.1775 273.295 71.9711ZM237.785 148.616C238.912 147.974 240.427 148.669 241.518 149.215C242.847 149.878 244.167 150.88 244.98 152.135C246.087 153.844 243.484 155.225 242.319 153.692C241.602 152.748 241.03 151.797 240.162 150.972C239.368 150.214 238.217 149.707 237.761 148.708C237.744 148.674 237.749 148.635 237.785 148.616ZM238.577 107.137L238.598 107.077C238.919 106.2 237.52 105.822 237.203 106.692C236.721 108.01 237.276 109.443 238.578 110.012C238.938 110.17 239.35 110.115 239.568 109.752C239.75 109.447 239.666 108.918 239.308 108.762C238.576 108.442 238.331 107.876 238.577 107.137ZM226.529 104.685C227.229 104.068 226.202 103.046 225.505 103.662C224.855 104.236 224.373 105.015 224.498 105.912C224.626 106.826 225.315 107.471 226.069 107.927C226.868 108.41 227.596 107.158 226.799 106.676L226.71 106.621C226.375 106.414 225.984 106.128 225.927 105.719C225.867 105.285 226.235 104.945 226.529 104.685ZM230.504 93.7826L230.553 93.7461C231.305 93.2093 230.583 91.9528 229.822 92.4956C229.125 92.9936 228.566 93.6404 228.507 94.5325C228.45 95.3995 228.891 96.1511 229.468 96.761C230.109 97.4395 231.132 96.4142 230.491 95.7371C229.867 95.0773 229.745 94.3573 230.504 93.7826Z" fill="black" style="fill:black;fill-opacity:1;"/>
<path fill-rule="evenodd" clip-rule="evenodd" d="M299.149 164.86C299.316 164.815 299.464 165.04 299.325 165.163C298.757 165.667 298.397 166.607 297.982 167.247C297.588 167.856 297.208 168.459 296.861 169.097C296.472 169.811 296.097 170.523 295.794 171.28L295.735 171.432C295.825 171.648 295.896 171.861 295.948 172L295.963 172.04C296.48 173.36 295.395 174.827 294.172 175.197C292.079 175.828 290.284 174.108 290.234 172.064C290.194 170.455 291.284 169.022 292.392 167.959C293.36 167.029 294.445 166.237 295.658 165.657C296.194 165.402 296.75 165.188 297.331 165.064C297.926 164.937 298.567 165.018 299.149 164.86ZM295.205 170.689C295.359 170.762 295.49 170.939 295.6 171.145C295.545 170.97 295.432 170.796 295.205 170.689ZM296.515 148.341C298.337 149.449 301.113 152.032 299.153 154.779C296.846 157.2 293.524 154.424 291.887 153.168C290.369 152.195 288.664 154.698 290.072 155.834C301.9 164.594 306.7 148.631 297.436 147.038C296.416 146.863 296.037 147.998 296.515 148.341ZM281.538 137.703L281.86 137.676C283.256 137.553 284.67 137.365 286.047 137.681C287.897 138.106 287.761 140.798 286.047 141.293C284.536 141.729 282.862 141.54 281.302 141.555C281.057 141.558 280.812 141.564 280.567 141.568C280.519 142.152 280.327 142.655 280.035 143.157C279.825 143.518 279.557 143.86 279.293 144.181C278.667 144.942 277.19 144.925 276.558 144.181C276.09 143.63 275.718 142.996 275.712 142.251C275.71 142.06 275.733 141.857 275.779 141.658L274.928 141.672C272.844 141.704 270.745 141.69 268.7 141.359C267.972 141.51 267.376 140.196 268.381 139.803C271.111 138.735 274.162 138.42 277.059 138.099C278.548 137.934 280.045 137.821 281.538 137.703ZM304.799 136.599L304.874 136.591C306.68 136.406 308.672 136.086 310.483 136.27C313.186 136.545 313.181 140.201 310.483 140.474C309.492 140.574 308.448 140.526 307.407 140.43C307.939 141.559 307.308 142.907 306.026 143.08C304.835 143.24 303.601 142.082 303.991 140.84L304.01 140.785C304.086 140.569 304.154 140.328 304.236 140.091L303.805 140.054C302.516 139.94 300.728 139.707 300.253 138.69C300.11 138.383 300.143 138.098 300.364 137.836C301.267 136.76 303.494 136.725 304.799 136.599ZM285.585 128.229C286.893 127.754 288.252 128.866 288.422 130.119C288.617 131.564 287.576 132.514 286.256 132.687L286.19 132.695C283.276 133.016 280.384 133.603 277.467 133.935C276.142 134.085 274.807 134.184 273.473 134.22L272.52 134.241C271.352 134.271 270.099 134.298 269.02 133.895L269.025 133.888C268.738 133.805 268.606 133.392 268.925 133.166C270.073 132.354 271.621 132.047 272.958 131.661C274.302 131.272 275.655 130.914 277.013 130.578C279.863 129.873 282.824 129.232 285.585 128.229ZM297.646 128.566C297.993 126.739 300.58 126.543 301.531 127.873C302.145 128.084 303.046 128.304 303.604 128.469C304.576 128.758 305.549 129.045 306.524 129.322C308.544 129.898 310.514 130.627 312.5 131.307C312.704 131.377 312.648 131.637 312.451 131.663C309.68 132.024 306.956 132.192 304.168 132.076L303.596 132.05C301.14 131.954 296.969 132.137 297.646 128.566Z" fill="black" style="fill:black;fill-opacity:1;"/>
<path fill-rule="evenodd" clip-rule="evenodd" d="M301.625 175.359C299.378 173.357 296.859 169.331 293.631 172.516C292.833 173.416 292.51 175.434 291.289 175.83C289.667 176.356 288.061 174.64 287.508 173.322C285.247 166 294.593 163.992 299.917 165.175C302.517 166.243 304.433 170.544 304.549 172.789C304.624 174.297 303.347 176.516 301.625 175.359ZM318.576 164.073C318.554 163.976 318.524 163.888 318.487 163.808C317.493 163.433 316.707 163.816 316.221 164.532C316.237 164.71 316.29 164.89 316.323 165.066C315.948 165.857 315.61 166.834 315.102 167.517C315.002 167.525 314.898 167.514 314.798 167.485C306.374 168.365 310.487 159.549 301.943 157.359C295.339 156.269 283.402 157.517 280.287 164.394C277.83 175.378 265.336 167.724 261.234 162.012C256.857 156.813 254.027 150.461 251.299 144.296C250.722 142.992 248.922 143.924 249.118 145.176C246.596 150.238 246.68 156.318 246.055 161.863C244.992 172.926 243.957 188.44 254.232 195.195C267.619 210.333 301.049 215.675 316.49 201.766C321.835 190.27 321.176 176.245 318.576 164.073Z" fill="black" style="fill:black;fill-opacity:1;"/>
</g>
</g>
<rect x="1.44253" y="1.44253" width="538.065" height="343.323" rx="21.638" stroke="#18191F" style="stroke:#18191F;stroke:color(display-p3 0.0941 0.0980 0.1216);stroke-opacity:1;" stroke-width="2.88507"/>
<defs>
<clipPath id="clip0_15_1235">
<rect width="540.95" height="346.208" rx="23.0805" fill="white" style="fill:white;fill-opacity:1;"/>
</clipPath>
<clipPath id="clip1_15_1235">
<rect width="259.656" height="280.337" fill="white" style="fill:white;fill-opacity:1;" transform="translate(-25.9656 66.1484)"/>
</clipPath>
<clipPath id="clip2_15_1235">
<rect width="259.656" height="280.337" fill="white" style="fill:white;fill-opacity:1;" transform="matrix(-1 0 0 1 564.081 66.1484)"/>
</clipPath>
<clipPath id="clip3_15_1235">
<rect width="274.082" height="296.922" fill="white" style="fill:white;fill-opacity:1;" transform="translate(127.189 50.2806)"/>
</clipPath>
</defs>
</svg>
