<svg width="188" height="147" viewBox="0 0 188 147" fill="none" xmlns="http://www.w3.org/2000/svg">
<rect width="188" height="146.893" rx="73.4465" fill="#FFBD12" style="fill:#FFBD12;fill:color(display-p3 1.0000 0.7398 0.0708);fill-opacity:1;"/>
<mask id="path-2-outside-1_15_1571" maskUnits="userSpaceOnUse" x="22.6661" y="31.1147" width="141" height="84" fill="black">
<rect fill="white" x="22.6661" y="31.1147" width="141" height="84"/>
<path fill-rule="evenodd" clip-rule="evenodd" d="M63.4874 85.4587V83.3305H65.6156V77.4057H54.8762C55.2571 76.224 55.7498 75.1169 56.3543 74.0842C57.9887 71.224 60.168 69.0107 62.892 67.4443C65.6161 65.878 68.7147 65.0948 72.1879 65.0948C75.5929 65.0948 78.6575 65.878 81.3815 67.4443C84.1737 69.0107 86.3529 71.224 87.9193 74.0842C89.5537 76.8764 90.3709 80.2133 90.3709 84.0951C90.3709 87.9088 89.5537 91.2798 87.9193 94.2082C86.3529 97.0684 84.1737 99.2817 81.3815 100.848C78.6575 102.414 75.5929 103.198 72.1879 103.198C68.7147 103.198 65.6161 102.414 62.892 100.848C60.168 99.2817 57.9887 97.0684 56.3543 94.2082C54.9174 91.6338 54.1122 88.7173 53.9385 85.4587H63.4874ZM44.6488 77.4057C44.9832 75.7979 45.4457 74.267 46.0363 72.813L41.2749 77.4057H44.6488ZM59.9586 58.6835C60.2045 58.3567 60.433 58.037 60.6442 57.7244C61.7792 56.0445 62.551 54.4555 62.9596 52.9573C63.3683 51.4591 63.5726 49.9381 63.5726 48.3945C63.5726 45.6704 62.8915 43.3096 61.5295 41.312C60.2129 39.3143 58.3288 37.7934 55.8771 36.7492C53.4255 35.6596 50.5425 35.1147 47.2282 35.1147C43.5508 35.1147 40.1684 35.7504 37.0811 37.0216C34.1767 38.192 31.8311 39.8592 30.0442 42.023C29.1601 42.7546 28.3674 43.5675 27.6661 44.4617L32.297 48.4797C33.7953 46.709 35.5659 45.4151 37.6089 44.5979C39.652 43.7353 41.9447 43.304 44.4872 43.304C47.8014 43.304 50.3212 44.0077 52.0464 45.4151C53.7716 46.8225 54.6343 48.7521 54.6343 51.2037C54.6343 52.2025 54.4754 53.2467 54.1576 54.3364C53.8852 55.3806 53.3176 56.5383 52.455 57.8095C51.9626 58.5481 51.3054 59.3609 50.4834 60.2478L31.3606 78.6996V78.7743L29.2325 80.8278V85.4587H44.0187C44.2006 90.4117 45.3841 94.7924 47.5692 98.6007C49.9528 102.755 53.1876 105.99 57.2737 108.305C61.4278 110.621 66.1268 111.778 71.3706 111.778C76.0696 111.778 80.2579 110.757 83.9353 108.714C86.5911 107.189 88.8385 105.149 90.6774 102.595V111.165H100.075V35.3686H90.2688V65.2607C88.4456 62.8811 86.2663 60.9871 83.731 59.5786C80.0536 57.5356 75.9334 56.5141 71.3706 56.5141C67.2263 56.5141 63.4223 57.2372 59.9586 58.6835ZM117.736 108.203C121.959 110.587 126.794 111.778 132.242 111.778C137.622 111.778 142.423 110.587 146.645 108.203C150.936 105.819 154.273 102.551 156.656 98.3964C159.108 94.2422 160.334 89.4751 160.334 84.0951C160.334 78.647 159.108 73.8799 156.656 69.7938C154.273 65.6397 150.936 62.4048 146.645 60.0894C142.423 57.7059 137.622 56.5141 132.242 56.5141C126.794 56.5141 121.959 57.7059 117.736 60.0894C113.514 62.4048 110.177 65.6397 107.726 69.7938C105.274 73.948 104.048 78.7151 104.048 84.0951C104.048 89.407 105.274 94.1741 107.726 98.3964C110.177 102.551 113.514 105.819 117.736 108.203ZM141.538 100.848C138.814 102.414 135.715 103.198 132.242 103.198C128.769 103.198 125.67 102.414 122.946 100.848C120.222 99.2817 118.043 97.0684 116.408 94.2082C114.774 91.2798 113.957 87.9088 113.957 84.0951C113.957 80.2133 114.774 76.8764 116.408 74.0842C118.043 71.224 120.222 69.0107 122.946 67.4443C125.67 65.878 128.769 65.0948 132.242 65.0948C135.715 65.0948 138.814 65.878 141.538 67.4443C144.33 69.0107 146.509 71.224 148.076 74.0842C149.642 76.8764 150.425 80.2133 150.425 84.0951C150.425 87.9088 149.642 91.2798 148.076 94.2082C146.509 97.0684 144.33 99.2817 141.538 100.848Z"/>
</mask>
<path fill-rule="evenodd" clip-rule="evenodd" d="M63.4874 85.4587V83.3305H65.6156V77.4057H54.8762C55.2571 76.224 55.7498 75.1169 56.3543 74.0842C57.9887 71.224 60.168 69.0107 62.892 67.4443C65.6161 65.878 68.7147 65.0948 72.1879 65.0948C75.5929 65.0948 78.6575 65.878 81.3815 67.4443C84.1737 69.0107 86.3529 71.224 87.9193 74.0842C89.5537 76.8764 90.3709 80.2133 90.3709 84.0951C90.3709 87.9088 89.5537 91.2798 87.9193 94.2082C86.3529 97.0684 84.1737 99.2817 81.3815 100.848C78.6575 102.414 75.5929 103.198 72.1879 103.198C68.7147 103.198 65.6161 102.414 62.892 100.848C60.168 99.2817 57.9887 97.0684 56.3543 94.2082C54.9174 91.6338 54.1122 88.7173 53.9385 85.4587H63.4874ZM44.6488 77.4057C44.9832 75.7979 45.4457 74.267 46.0363 72.813L41.2749 77.4057H44.6488ZM59.9586 58.6835C60.2045 58.3567 60.433 58.037 60.6442 57.7244C61.7792 56.0445 62.551 54.4555 62.9596 52.9573C63.3683 51.4591 63.5726 49.9381 63.5726 48.3945C63.5726 45.6704 62.8915 43.3096 61.5295 41.312C60.2129 39.3143 58.3288 37.7934 55.8771 36.7492C53.4255 35.6596 50.5425 35.1147 47.2282 35.1147C43.5508 35.1147 40.1684 35.7504 37.0811 37.0216C34.1767 38.192 31.8311 39.8592 30.0442 42.023C29.1601 42.7546 28.3674 43.5675 27.6661 44.4617L32.297 48.4797C33.7953 46.709 35.5659 45.4151 37.6089 44.5979C39.652 43.7353 41.9447 43.304 44.4872 43.304C47.8014 43.304 50.3212 44.0077 52.0464 45.4151C53.7716 46.8225 54.6343 48.7521 54.6343 51.2037C54.6343 52.2025 54.4754 53.2467 54.1576 54.3364C53.8852 55.3806 53.3176 56.5383 52.455 57.8095C51.9626 58.5481 51.3054 59.3609 50.4834 60.2478L31.3606 78.6996V78.7743L29.2325 80.8278V85.4587H44.0187C44.2006 90.4117 45.3841 94.7924 47.5692 98.6007C49.9528 102.755 53.1876 105.99 57.2737 108.305C61.4278 110.621 66.1268 111.778 71.3706 111.778C76.0696 111.778 80.2579 110.757 83.9353 108.714C86.5911 107.189 88.8385 105.149 90.6774 102.595V111.165H100.075V35.3686H90.2688V65.2607C88.4456 62.8811 86.2663 60.9871 83.731 59.5786C80.0536 57.5356 75.9334 56.5141 71.3706 56.5141C67.2263 56.5141 63.4223 57.2372 59.9586 58.6835ZM117.736 108.203C121.959 110.587 126.794 111.778 132.242 111.778C137.622 111.778 142.423 110.587 146.645 108.203C150.936 105.819 154.273 102.551 156.656 98.3964C159.108 94.2422 160.334 89.4751 160.334 84.0951C160.334 78.647 159.108 73.8799 156.656 69.7938C154.273 65.6397 150.936 62.4048 146.645 60.0894C142.423 57.7059 137.622 56.5141 132.242 56.5141C126.794 56.5141 121.959 57.7059 117.736 60.0894C113.514 62.4048 110.177 65.6397 107.726 69.7938C105.274 73.948 104.048 78.7151 104.048 84.0951C104.048 89.407 105.274 94.1741 107.726 98.3964C110.177 102.551 113.514 105.819 117.736 108.203ZM141.538 100.848C138.814 102.414 135.715 103.198 132.242 103.198C128.769 103.198 125.67 102.414 122.946 100.848C120.222 99.2817 118.043 97.0684 116.408 94.2082C114.774 91.2798 113.957 87.9088 113.957 84.0951C113.957 80.2133 114.774 76.8764 116.408 74.0842C118.043 71.224 120.222 69.0107 122.946 67.4443C125.67 65.878 128.769 65.0948 132.242 65.0948C135.715 65.0948 138.814 65.878 141.538 67.4443C144.33 69.0107 146.509 71.224 148.076 74.0842C149.642 76.8764 150.425 80.2133 150.425 84.0951C150.425 87.9088 149.642 91.2798 148.076 94.2082C146.509 97.0684 144.33 99.2817 141.538 100.848Z" fill="white" style="fill:white;fill-opacity:1;"/>
<path fill-rule="evenodd" clip-rule="evenodd" d="M63.4874 85.4587V83.3305H65.6156V77.4057H54.8762C55.2571 76.224 55.7498 75.1169 56.3543 74.0842C57.9887 71.224 60.168 69.0107 62.892 67.4443C65.6161 65.878 68.7147 65.0948 72.1879 65.0948C75.5929 65.0948 78.6575 65.878 81.3815 67.4443C84.1737 69.0107 86.3529 71.224 87.9193 74.0842C89.5537 76.8764 90.3709 80.2133 90.3709 84.0951C90.3709 87.9088 89.5537 91.2798 87.9193 94.2082C86.3529 97.0684 84.1737 99.2817 81.3815 100.848C78.6575 102.414 75.5929 103.198 72.1879 103.198C68.7147 103.198 65.6161 102.414 62.892 100.848C60.168 99.2817 57.9887 97.0684 56.3543 94.2082C54.9174 91.6338 54.1122 88.7173 53.9385 85.4587H63.4874ZM44.6488 77.4057C44.9832 75.7979 45.4457 74.267 46.0363 72.813L41.2749 77.4057H44.6488ZM59.9586 58.6835C60.2045 58.3567 60.433 58.037 60.6442 57.7244C61.7792 56.0445 62.551 54.4555 62.9596 52.9573C63.3683 51.4591 63.5726 49.9381 63.5726 48.3945C63.5726 45.6704 62.8915 43.3096 61.5295 41.312C60.2129 39.3143 58.3288 37.7934 55.8771 36.7492C53.4255 35.6596 50.5425 35.1147 47.2282 35.1147C43.5508 35.1147 40.1684 35.7504 37.0811 37.0216C34.1767 38.192 31.8311 39.8592 30.0442 42.023C29.1601 42.7546 28.3674 43.5675 27.6661 44.4617L32.297 48.4797C33.7953 46.709 35.5659 45.4151 37.6089 44.5979C39.652 43.7353 41.9447 43.304 44.4872 43.304C47.8014 43.304 50.3212 44.0077 52.0464 45.4151C53.7716 46.8225 54.6343 48.7521 54.6343 51.2037C54.6343 52.2025 54.4754 53.2467 54.1576 54.3364C53.8852 55.3806 53.3176 56.5383 52.455 57.8095C51.9626 58.5481 51.3054 59.3609 50.4834 60.2478L31.3606 78.6996V78.7743L29.2325 80.8278V85.4587H44.0187C44.2006 90.4117 45.3841 94.7924 47.5692 98.6007C49.9528 102.755 53.1876 105.99 57.2737 108.305C61.4278 110.621 66.1268 111.778 71.3706 111.778C76.0696 111.778 80.2579 110.757 83.9353 108.714C86.5911 107.189 88.8385 105.149 90.6774 102.595V111.165H100.075V35.3686H90.2688V65.2607C88.4456 62.8811 86.2663 60.9871 83.731 59.5786C80.0536 57.5356 75.9334 56.5141 71.3706 56.5141C67.2263 56.5141 63.4223 57.2372 59.9586 58.6835ZM117.736 108.203C121.959 110.587 126.794 111.778 132.242 111.778C137.622 111.778 142.423 110.587 146.645 108.203C150.936 105.819 154.273 102.551 156.656 98.3964C159.108 94.2422 160.334 89.4751 160.334 84.0951C160.334 78.647 159.108 73.8799 156.656 69.7938C154.273 65.6397 150.936 62.4048 146.645 60.0894C142.423 57.7059 137.622 56.5141 132.242 56.5141C126.794 56.5141 121.959 57.7059 117.736 60.0894C113.514 62.4048 110.177 65.6397 107.726 69.7938C105.274 73.948 104.048 78.7151 104.048 84.0951C104.048 89.407 105.274 94.1741 107.726 98.3964C110.177 102.551 113.514 105.819 117.736 108.203ZM141.538 100.848C138.814 102.414 135.715 103.198 132.242 103.198C128.769 103.198 125.67 102.414 122.946 100.848C120.222 99.2817 118.043 97.0684 116.408 94.2082C114.774 91.2798 113.957 87.9088 113.957 84.0951C113.957 80.2133 114.774 76.8764 116.408 74.0842C118.043 71.224 120.222 69.0107 122.946 67.4443C125.67 65.878 128.769 65.0948 132.242 65.0948C135.715 65.0948 138.814 65.878 141.538 67.4443C144.33 69.0107 146.509 71.224 148.076 74.0842C149.642 76.8764 150.425 80.2133 150.425 84.0951C150.425 87.9088 149.642 91.2798 148.076 94.2082C146.509 97.0684 144.33 99.2817 141.538 100.848Z" fill="white" style="fill:white;fill-opacity:1;"/>
<path d="M63.4874 83.3305V80.1382H60.2952V83.3305H63.4874ZM63.4874 85.4587V88.6509H66.6797V85.4587H63.4874ZM65.6156 83.3305V86.5227H68.8078V83.3305H65.6156ZM65.6156 77.4057H68.8078V74.2134H65.6156V77.4057ZM54.8762 77.4057L51.8379 76.4263L50.4932 80.5979H54.8762V77.4057ZM56.3543 74.0842L59.1093 75.6969L59.1177 75.6825L59.1259 75.668L56.3543 74.0842ZM62.892 67.4443L64.4833 70.2117L64.4833 70.2117L62.892 67.4443ZM81.3815 67.4443L79.7903 70.2117L79.805 70.2202L79.8197 70.2284L81.3815 67.4443ZM87.9193 74.0842L85.1193 75.6175L85.1413 75.6575L85.1643 75.6969L87.9193 74.0842ZM87.9193 94.2082L85.1318 92.6524L85.1255 92.6636L85.1193 92.6749L87.9193 94.2082ZM81.3815 100.848L79.8197 98.0639L79.805 98.0722L79.7903 98.0807L81.3815 100.848ZM56.3543 94.2082L53.5668 95.764L53.5747 95.778L53.5826 95.792L56.3543 94.2082ZM53.9385 85.4587V82.2664H50.5715L50.7507 85.6286L53.9385 85.4587ZM44.6488 77.4057V80.5979H47.2453L47.7741 78.0558L44.6488 77.4057ZM46.0363 72.813L48.9939 74.0143L43.8201 70.5154L46.0363 72.813ZM41.2749 77.4057L39.0587 75.1081L33.3672 80.5979H41.2749V77.4057ZM60.6442 57.7244L63.2893 59.5116L63.2893 59.5116L60.6442 57.7244ZM59.9586 58.6835L57.4076 56.7644L50.3403 66.1589L61.1886 61.6292L59.9586 58.6835ZM62.9596 52.9573L66.0394 53.7972L66.0394 53.7972L62.9596 52.9573ZM61.5295 41.312L58.8641 43.0687L58.8779 43.0896L58.892 43.1103L61.5295 41.312ZM55.8771 36.7492L54.5806 39.6663L54.6033 39.6764L54.6262 39.6861L55.8771 36.7492ZM37.0811 37.0216L38.2743 39.9825L38.2855 39.978L38.2966 39.9734L37.0811 37.0216ZM30.0442 42.023L32.0795 44.4823L32.3128 44.2892L32.5057 44.0556L30.0442 42.023ZM27.6661 44.4617L25.1543 42.4916L23.2795 44.882L25.5741 46.8729L27.6661 44.4617ZM32.297 48.4797L30.205 50.8908L32.6462 53.009L34.7339 50.5417L32.297 48.4797ZM37.6089 44.5979L38.7945 47.5618L38.8227 47.5505L38.8506 47.5387L37.6089 44.5979ZM52.0464 45.4151L50.0285 47.8887L50.0285 47.8887L52.0464 45.4151ZM54.1576 54.3364L51.093 53.4425L51.0802 53.4864L51.0687 53.5306L54.1576 54.3364ZM52.455 57.8095L49.8135 56.0171L49.8062 56.0279L49.7989 56.0388L52.455 57.8095ZM50.4834 60.2478L52.7 62.545L52.7641 62.4831L52.8247 62.4178L50.4834 60.2478ZM31.3606 78.6996L29.144 76.4024L28.1684 77.3438V78.6996H31.3606ZM31.3606 78.7743L33.5772 81.0715L34.5529 80.1301V78.7743H31.3606ZM29.2325 80.8278L27.0159 78.5306L26.0402 79.472V80.8278H29.2325ZM29.2325 85.4587H26.0402V88.6509H29.2325V85.4587ZM44.0187 85.4587L47.2088 85.3415L47.0958 82.2664H44.0187V85.4587ZM47.5692 98.6007L44.8004 100.189L44.8004 100.189L47.5692 98.6007ZM57.2737 108.305L55.6998 111.082L55.7096 111.088L55.7195 111.093L57.2737 108.305ZM83.9353 108.714L85.4856 111.504L85.5052 111.493L85.5246 111.482L83.9353 108.714ZM90.6774 102.595H93.8696V92.6958L88.0865 100.73L90.6774 102.595ZM90.6774 111.165H87.4851V114.358H90.6774V111.165ZM100.075 111.165V114.358H103.268V111.165H100.075ZM100.075 35.3686H103.268V32.1764H100.075V35.3686ZM90.2688 35.3686V32.1764H87.0765V35.3686H90.2688ZM90.2688 65.2607L87.7348 67.2022L93.461 74.6756V65.2607H90.2688ZM83.731 59.5786L82.1807 62.3692L82.1807 62.3692L83.731 59.5786ZM117.736 108.203L116.167 110.983L116.167 110.983L117.736 108.203ZM146.645 108.203L145.095 105.412L145.086 105.418L145.076 105.423L146.645 108.203ZM156.656 98.3964L153.907 96.7739L153.897 96.7907L153.888 96.8077L156.656 98.3964ZM156.656 69.7938L153.888 71.3825L153.903 71.4095L153.919 71.4362L156.656 69.7938ZM146.645 60.0894L145.076 62.8693L145.103 62.8842L145.129 62.8987L146.645 60.0894ZM117.736 60.0894L119.271 62.8884L119.289 62.879L119.306 62.8693L117.736 60.0894ZM107.726 69.7938L110.475 71.4163L110.475 71.4163L107.726 69.7938ZM107.726 98.3964L104.965 99.9993L104.971 100.009L104.976 100.019L107.726 98.3964ZM141.538 100.848L139.976 98.0639L139.961 98.0722L139.947 98.0807L141.538 100.848ZM116.408 94.2082L113.621 95.7639L113.629 95.778L113.637 95.792L116.408 94.2082ZM116.408 74.0842L119.163 75.6969L119.172 75.6825L119.18 75.668L116.408 74.0842ZM122.946 67.4443L124.537 70.2117L124.537 70.2117L122.946 67.4443ZM141.538 67.4443L139.947 70.2117L139.961 70.2202L139.976 70.2284L141.538 67.4443ZM148.076 74.0842L145.276 75.6175L145.284 75.6318L145.292 75.646L148.076 74.0842ZM148.076 94.2082L150.876 95.7414L150.883 95.7277L150.89 95.7138L148.076 94.2082ZM60.2952 83.3305V85.4587H66.6797V83.3305H60.2952ZM65.6156 80.1382H63.4874V86.5227H65.6156V80.1382ZM62.4233 77.4057V83.3305H68.8078V77.4057H62.4233ZM54.8762 80.5979H65.6156V74.2134H54.8762V80.5979ZM53.5993 72.4716C52.8734 73.7117 52.2873 75.0321 51.8379 76.4263L57.9145 78.3851C58.2269 77.4159 58.6263 76.522 59.1093 75.6969L53.5993 72.4716ZM61.3008 64.677C58.0609 66.5399 55.4842 69.1726 53.5826 72.5004L59.1259 75.668C60.4932 73.2753 62.275 71.4815 64.4833 70.2117L61.3008 64.677ZM72.1879 61.9026C68.2165 61.9026 64.5587 62.8037 61.3008 64.677L64.4833 70.2117C66.6735 68.9524 69.2128 68.2871 72.1879 68.2871V61.9026ZM82.9728 64.677C79.7245 62.8092 76.1032 61.9026 72.1879 61.9026V68.2871C75.0826 68.2871 77.5905 68.9468 79.7903 70.2117L82.9728 64.677ZM90.7192 72.5509C88.8711 69.1763 86.2674 66.525 82.9433 64.6602L79.8197 70.2284C82.08 71.4964 83.8347 73.2716 85.1193 75.6175L90.7192 72.5509ZM93.5632 84.0951C93.5632 79.76 92.6474 75.8424 90.6742 72.4716L85.1643 75.6969C86.46 77.9104 87.1787 80.6667 87.1787 84.0951H93.5632ZM90.7067 95.7639C92.6412 92.2979 93.5632 88.3776 93.5632 84.0951H87.1787C87.1787 87.4399 86.4661 90.2617 85.1318 92.6524L90.7067 95.7639ZM82.9433 103.632C86.2674 101.767 88.8711 99.1161 90.7192 95.7414L85.1193 92.6749C83.8347 95.0207 82.08 96.796 79.8197 98.0639L82.9433 103.632ZM72.1879 106.39C76.1032 106.39 79.7245 105.483 82.9728 103.615L79.7903 98.0807C77.5905 99.3456 75.0826 100.005 72.1879 100.005V106.39ZM61.3008 103.615C64.5587 105.489 68.2165 106.39 72.1879 106.39V100.005C69.2128 100.005 66.6735 99.34 64.4833 98.0807L61.3008 103.615ZM53.5826 95.792C55.4842 99.1198 58.0609 101.752 61.3008 103.615L64.4833 98.0807C62.275 96.8109 60.4932 95.0171 59.1259 92.6244L53.5826 95.792ZM50.7507 85.6286C50.9476 89.321 51.8681 92.7205 53.5668 95.764L59.1418 92.6524C57.9667 90.5471 57.2768 88.1135 57.1262 85.2888L50.7507 85.6286ZM63.4874 82.2664H53.9385V88.6509H63.4874V82.2664ZM47.7741 78.0558C48.0712 76.6277 48.479 75.282 48.9939 74.0143L43.0787 71.6117C42.4124 73.2521 41.8952 74.9681 41.5234 76.7556L47.7741 78.0558ZM43.8201 70.5154L39.0587 75.1081L43.4911 79.7033L48.2525 75.1106L43.8201 70.5154ZM41.2749 80.5979H44.6488V74.2134H41.2749V80.5979ZM57.9991 55.9372C57.8205 56.2015 57.6236 56.4772 57.4076 56.7644L62.5096 60.6025C62.7853 60.2361 63.0454 59.8725 63.2893 59.5116L57.9991 55.9372ZM59.8799 52.1174C59.5865 53.193 58.9948 54.4636 57.9991 55.9372L63.2893 59.5116C64.5636 57.6255 65.5155 55.7181 66.0394 53.7972L59.8799 52.1174ZM60.3803 48.3945C60.3803 49.6527 60.2143 50.8912 59.8799 52.1174L66.0394 53.7972C66.5222 52.0269 66.7648 50.2236 66.7648 48.3945H60.3803ZM58.892 43.1103C59.8479 44.5122 60.3803 46.2277 60.3803 48.3945H66.7648C66.7648 45.1132 65.9352 42.107 64.167 39.5136L58.892 43.1103ZM54.6262 39.6861C56.5687 40.5135 57.9314 41.6535 58.8641 43.0687L64.1949 39.5552C62.4944 36.9751 60.0888 35.0733 57.128 33.8122L54.6262 39.6861ZM47.2282 38.307C50.1982 38.307 52.6213 38.7955 54.5806 39.6663L57.1736 33.8321C54.2297 32.5236 50.8869 31.9225 47.2282 31.9225V38.307ZM38.2966 39.9734C40.9609 38.8763 43.9253 38.307 47.2282 38.307V31.9225C43.1762 31.9225 39.3759 32.6244 35.8657 34.0698L38.2966 39.9734ZM32.5057 44.0556C33.9159 42.3479 35.8052 40.9775 38.2743 39.9825L35.888 34.0607C32.5482 35.4066 29.7462 37.3704 27.5827 39.9903L32.5057 44.0556ZM30.178 46.4317C30.737 45.719 31.3695 45.0698 32.0795 44.4823L28.0089 39.5637C26.9507 40.4395 25.9979 41.4161 25.1543 42.4916L30.178 46.4317ZM34.3891 46.0685L29.7582 42.0505L25.5741 46.8729L30.205 50.8908L34.3891 46.0685ZM36.4234 41.634C33.8694 42.6555 31.6766 44.2708 29.8601 46.4176L34.7339 50.5417C35.9139 49.1472 37.2624 48.1747 38.7945 47.5618L36.4234 41.634ZM44.4872 40.1117C41.5802 40.1117 38.8566 40.606 36.3672 41.657L38.8506 47.5387C40.4474 46.8646 42.3092 46.4962 44.4872 46.4962V40.1117ZM54.0643 42.9415C51.549 40.8896 48.1907 40.1117 44.4872 40.1117V46.4962C47.4121 46.4962 49.0933 47.1257 50.0285 47.8887L54.0643 42.9415ZM57.8265 51.2037C57.8265 47.9032 56.6141 45.0216 54.0643 42.9415L50.0285 47.8887C50.9292 48.6234 51.442 49.6009 51.442 51.2037H57.8265ZM57.2221 55.2302C57.6133 53.889 57.8265 52.543 57.8265 51.2037H51.442C51.442 51.8621 51.3374 52.6045 51.093 53.4425L57.2221 55.2302ZM55.0965 59.602C56.0841 58.1467 56.8523 56.6531 57.2464 55.1422L51.0687 53.5306C50.918 54.1081 50.5512 54.93 49.8135 56.0171L55.0965 59.602ZM52.8247 62.4178C53.7238 61.4477 54.4978 60.5003 55.1111 59.5803L49.7989 56.0388C49.4275 56.596 48.887 57.2741 48.1421 58.0778L52.8247 62.4178ZM33.5772 80.9968L52.7 62.545L48.2668 57.9506L29.144 76.4024L33.5772 80.9968ZM34.5529 78.7743V78.6996H28.1684V78.7743H34.5529ZM31.4491 83.125L33.5772 81.0715L29.144 76.4771L27.0159 78.5306L31.4491 83.125ZM32.4247 85.4587V80.8278H26.0402V85.4587H32.4247ZM44.0187 82.2664H29.2325V88.6509H44.0187V82.2664ZM50.3381 97.012C48.4423 93.7079 47.3742 89.8446 47.2088 85.3415L40.8286 85.5758C41.027 90.9788 42.326 95.8769 44.8004 100.189L50.3381 97.012ZM58.8475 105.528C55.2693 103.5 52.4429 100.68 50.3381 97.012L44.8004 100.189C47.4627 104.829 51.1059 108.479 55.6998 111.082L58.8475 105.528ZM71.3706 108.586C66.6137 108.586 62.4593 107.541 58.8278 105.517L55.7195 111.093C60.3964 113.7 65.6399 114.971 71.3706 114.971V108.586ZM82.385 105.923C79.2353 107.673 75.5918 108.586 71.3706 108.586V114.971C76.5474 114.971 81.2804 113.84 85.4856 111.504L82.385 105.923ZM88.0865 100.73C86.5057 102.926 84.5963 104.653 82.346 105.945L85.5246 111.482C88.586 109.725 91.1713 107.373 93.2682 104.46L88.0865 100.73ZM93.8696 111.165V102.595H87.4851V111.165H93.8696ZM100.075 107.973H90.6774V114.358H100.075V107.973ZM96.8831 35.3686V111.165H103.268V35.3686H96.8831ZM90.2688 38.5609H100.075V32.1764H90.2688V38.5609ZM93.461 65.2607V35.3686H87.0765V65.2607H93.461ZM82.1807 62.3692C84.3205 63.5579 86.1687 65.1582 87.7348 67.2022L92.8027 63.3191C90.7224 60.6041 88.2122 58.4164 85.2813 56.7881L82.1807 62.3692ZM71.3706 59.7063C75.4381 59.7063 79.0171 60.6116 82.1807 62.3692L85.2813 56.7881C81.09 54.4596 76.4288 53.3218 71.3706 53.3218V59.7063ZM61.1886 61.6292C64.2239 60.3618 67.6045 59.7063 71.3706 59.7063V53.3218C66.8482 53.3218 62.6207 54.1126 58.7286 55.7377L61.1886 61.6292ZM132.242 108.586C127.275 108.586 122.992 107.504 119.306 105.423L116.167 110.983C120.925 113.669 126.313 114.971 132.242 114.971V108.586ZM145.076 105.423C141.384 107.508 137.134 108.586 132.242 108.586V114.971C138.11 114.971 143.463 113.665 148.215 110.983L145.076 105.423ZM153.888 96.8077C151.801 100.445 148.891 103.304 145.095 105.412L148.196 110.994C152.981 108.335 156.745 104.656 159.425 99.9851L153.888 96.8077ZM157.142 84.0951C157.142 88.9719 156.036 93.1663 153.907 96.7739L159.406 100.019C162.18 95.3182 163.526 89.9783 163.526 84.0951H157.142ZM153.919 71.4362C156.032 74.9584 157.142 79.1411 157.142 84.0951H163.526C163.526 78.153 162.184 72.8014 159.394 68.1514L153.919 71.4362ZM145.129 62.8987C148.907 64.9371 151.805 67.7536 153.888 71.3825L159.425 68.2051C156.74 63.5257 152.965 59.8725 148.162 57.2802L145.129 62.8987ZM132.242 59.7063C137.134 59.7063 141.384 60.7848 145.076 62.8693L148.215 57.3095C143.463 54.6269 138.11 53.3218 132.242 53.3218V59.7063ZM119.306 62.8693C122.992 60.7882 127.275 59.7063 132.242 59.7063V53.3218C126.313 53.3218 120.925 54.6235 116.167 57.3095L119.306 62.8693ZM110.475 71.4163C112.635 67.7554 115.553 64.9274 119.271 62.8884L116.202 57.2904C111.475 59.8822 107.719 63.5239 104.976 68.1714L110.475 71.4163ZM107.24 84.0951C107.24 79.2183 108.346 75.024 110.475 71.4163L104.976 68.1714C102.202 72.8721 100.856 78.2119 100.856 84.0951H107.24ZM110.486 96.7934C108.342 93.1004 107.24 88.895 107.24 84.0951H100.856C100.856 89.919 102.206 95.2478 104.965 99.9993L110.486 96.7934ZM119.306 105.423C115.569 103.314 112.64 100.443 110.475 96.7739L104.976 100.019C107.714 104.658 111.459 108.325 116.167 110.983L119.306 105.423ZM132.242 106.39C136.213 106.39 139.871 105.489 143.129 103.615L139.947 98.0807C137.756 99.34 135.217 100.005 132.242 100.005V106.39ZM121.355 103.615C124.613 105.489 128.271 106.39 132.242 106.39V100.005C129.267 100.005 126.728 99.34 124.537 98.0807L121.355 103.615ZM113.637 95.792C115.538 99.1198 118.115 101.752 121.355 103.615L124.537 98.0807C122.329 96.8109 120.547 95.0171 119.18 92.6244L113.637 95.792ZM110.765 84.0951C110.765 88.3776 111.687 92.2979 113.621 95.7639L119.196 92.6524C117.862 90.2617 117.149 87.4399 117.149 84.0951H110.765ZM113.654 72.4716C111.68 75.8424 110.765 79.76 110.765 84.0951H117.149C117.149 80.6667 117.868 77.9104 119.163 75.6969L113.654 72.4716ZM121.355 64.677C118.115 66.5399 115.538 69.1726 113.637 72.5004L119.18 75.668C120.547 73.2753 122.329 71.4815 124.537 70.2117L121.355 64.677ZM132.242 61.9026C128.271 61.9026 124.613 62.8037 121.355 64.677L124.537 70.2117C126.728 68.9524 129.267 68.2871 132.242 68.2871V61.9026ZM143.129 64.677C139.871 62.8037 136.213 61.9026 132.242 61.9026V68.2871C135.217 68.2871 137.756 68.9524 139.947 70.2117L143.129 64.677ZM150.876 72.5509C149.027 69.1763 146.424 66.525 143.1 64.6602L139.976 70.2284C142.236 71.4964 143.991 73.2716 145.276 75.6175L150.876 72.5509ZM153.617 84.0951C153.617 79.782 152.745 75.8832 150.86 72.5224L145.292 75.646C146.539 77.8695 147.233 80.6446 147.233 84.0951H153.617ZM150.89 95.7138C152.739 92.2576 153.617 88.3555 153.617 84.0951H147.233C147.233 87.4621 146.545 90.302 145.261 92.7025L150.89 95.7138ZM143.1 103.632C146.424 101.767 149.027 99.1161 150.876 95.7414L145.276 92.6749C143.991 95.0207 142.236 96.796 139.976 98.0639L143.1 103.632Z" fill="black" style="fill:black;fill-opacity:1;" mask="url(#path-2-outside-1_15_1571)"/>
</svg>
